<svg width="235" height="365" viewBox="0 0 235 365" fill="none" xmlns="http://www.w3.org/2000/svg">
<path d="M2.18933 69.0684H0.684082V103.347H2.18933V69.0684Z" fill="#150035"/>
<path d="M2.18933 55.0421H0.684082V67.0842H2.18933V55.0421Z" fill="#150035"/>
<path d="M2.9418 160.137H1.43652V172.179H2.9418V160.137Z" fill="#150035"/>
<path d="M232.905 182.579H234.41V144.742C234.41 144.605 235.437 132.495 222.437 127.295L221.821 128.526C233.794 133.247 232.973 144.195 232.973 144.674V182.579H232.905Z" fill="#150035"/>
<path d="M47.6894 220.621L55.8315 220.758C55.9683 220.758 56.1052 220.758 56.1736 220.621L87.3052 204.679C89.1525 203.653 92.0262 203.584 93.8052 204.474L164.416 240.532C164.416 240.532 164.553 240.532 164.553 240.668L188.021 247.647C188.363 247.784 188.5 247.99 188.5 248.332V253.532C188.774 254.284 188.158 255.105 186.995 255.721L147.995 275.632C146.147 276.658 143.274 276.726 141.495 275.837L47.7578 227.942C47.0052 227.6 46.6631 227.053 46.6631 226.505V221.305C46.9368 220.963 47.2789 220.621 47.6894 220.621Z" fill="#150035"/>
<path d="M141.289 276.453L47.5526 228.558C46.5263 228.147 46.0474 227.326 46.0474 226.574V221.374C46.0474 221.032 46.1842 220.69 46.5263 220.347C46.8 220.142 47.1421 219.937 47.621 220.005L55.7631 220.142L86.8947 204.2C89.0158 203.105 92.3 202.968 94.1473 203.995L164.758 240.053L188.226 247.032C188.842 247.237 189.253 247.716 189.253 248.332V253.532C189.526 254.558 188.774 255.653 187.405 256.269L148.405 276.179C147.31 276.726 145.805 277.069 144.437 277.069C143.274 277.137 142.179 276.863 141.289 276.453ZM87.7842 205.363L56.6526 221.305C56.3789 221.442 56.1737 221.511 55.9 221.511L47.7579 221.374V220.69V226.574C47.7579 226.984 48.1 227.258 48.5105 227.463L142.247 275.358C143.616 276.111 146.216 276.042 147.995 275.153L186.995 255.242C187.884 254.832 188.226 254.216 188.089 253.805V248.4L164.689 241.421C164.553 241.421 164.553 241.284 164.416 241.284L93.8052 205.226C93.1895 204.884 92.3 204.816 91.4105 204.816C89.9052 204.611 88.6737 204.884 87.7842 205.363Z" fill="#150035"/>
<path d="M47.8946 222.263L141.631 270.158C143.274 271.047 146.147 270.91 148.131 269.953L187.131 250.042C188.979 249.016 189.253 247.579 187.61 246.758L93.8736 198.863C92.2315 197.974 89.3578 198.111 87.3736 199.068L48.3736 218.979C46.5262 219.937 46.3209 221.374 47.8946 222.263Z" fill="white"/>
<path d="M141.289 270.705L47.5526 222.811C46.5263 222.4 46.0474 221.579 46.0474 220.826C46.0474 219.937 46.8 219.047 48.0316 218.363L87.0316 198.453C89.1526 197.358 92.4368 197.221 94.2842 198.247L188.021 246.142C189.047 246.553 189.526 247.374 189.526 248.126C189.526 249.016 188.774 249.905 187.542 250.589L148.542 270.5C147.447 271.047 145.942 271.389 144.574 271.389C143.274 271.389 142.179 271.116 141.289 270.705ZM87.7842 199.616L48.7842 219.526C48.0316 219.868 47.5526 220.416 47.5526 220.826C47.5526 221.237 47.8947 221.511 48.3052 221.716L142.042 269.611C143.41 270.363 146.01 270.295 147.789 269.405L186.789 249.495C187.542 249.153 188.021 248.605 188.021 248.195C188.021 247.784 187.679 247.511 187.268 247.305L93.5316 199.411C92.9158 199.068 92.0263 199 91.1368 199C89.9052 198.932 88.6737 199.137 87.7842 199.616Z" fill="#150035"/>
<path d="M145.053 271.116H143.958V275.974H145.053V271.116Z" fill="#39A1FF"/>
<path d="M185.01 251.479H183.916V256.337H185.01V251.479Z" fill="#39A1FF"/>
<path d="M51.6577 224.042H50.563V228.9H51.6577V224.042Z" fill="#39A1FF"/>
<path d="M8.2789 32.6684C8.14206 32.5316 8.14206 32.4632 8.2789 32.4632L15.2579 29.0421C15.6 28.8369 16.1473 28.8369 16.7631 29.0421L226.884 136.395C227.979 136.942 228.868 138.516 228.868 139.816V281.995C228.868 282.679 228.595 283.089 228.253 283.432L220.863 286.99L213.61 279.258L216.484 278.163L16.6947 176.079C15.5999 175.532 14.7105 173.958 14.7105 172.658V40.4L8.2789 32.6684Z" fill="white"/>
<path d="M212.379 278.984L214.774 278.095L16.2844 176.626C14.916 175.942 13.8896 174.163 13.8896 172.521V40.6052L7.66333 33.0789C7.38964 32.8736 7.38965 32.6683 7.38965 32.3262C7.38965 32.121 7.66332 31.9157 7.86858 31.7789L14.7107 28.4947C15.3265 28.0841 16.216 28.0841 16.9686 28.4947L227.09 135.847C228.458 136.531 229.484 138.31 229.484 139.953V282.131C229.484 283.021 229.142 283.705 228.458 284.116L220.59 288.016L212.379 278.984ZM15.6686 29.5894L9.16858 32.6683L15.3949 40.0578V172.521C15.3949 173.616 16.1475 174.984 17.037 175.395L218.126 278.231L214.774 279.531L221 286.168L227.774 282.884C227.911 282.747 228.048 282.542 228.048 281.995V139.816C228.048 138.721 227.295 137.353 226.405 136.942L16.2844 29.5894C16.1475 29.4526 16.0107 29.4526 15.9423 29.4526C15.8054 29.4526 15.6686 29.4526 15.6686 29.5894Z" fill="#150035"/>
<path d="M9.44211 179.705L219.563 287.058C220.658 287.605 221.547 287.058 221.547 285.758V143.305C221.547 142.005 220.658 140.432 219.563 139.884L9.44211 32.6685C8.34737 32.1211 7.45788 32.6685 7.45788 33.9685V176.147C7.32104 177.516 8.27895 179.021 9.44211 179.705Z" fill="#150035"/>
<path d="M219.153 287.468L9.03146 180.253C7.66303 179.568 6.63672 177.79 6.63672 176.147V34.0369C6.63672 33.0106 6.97883 32.3948 7.73146 32.0527C8.34725 31.7106 9.09986 31.7106 9.8525 32.1895L220.042 139.474C221.41 140.158 222.437 141.937 222.437 143.579V285.758C222.437 286.784 222.095 287.4 221.342 287.742C221.068 287.879 220.726 287.947 220.453 287.947C219.905 287.811 219.495 287.742 219.153 287.468ZM8.41567 33.1474C8.27883 33.2842 8.07357 33.4895 8.07357 34.0369V176.216C8.07357 177.311 8.82619 178.679 9.71567 179.09L219.837 286.442C219.974 286.579 220.179 286.647 220.453 286.579C220.589 286.442 220.795 286.237 220.795 285.69V143.305C220.795 142.211 220.042 140.842 219.153 140.432L9.03146 33.2158C8.89461 33.2158 8.75776 33.079 8.5525 33.079H8.41567V33.1474Z" fill="#150035"/>
<path d="M9.64704 177.037L219.152 284.047C219.494 284.253 219.768 284.047 219.768 283.637V142.69C219.768 142.279 219.494 141.8 219.152 141.663L9.64704 34.6527C9.30493 34.4474 9.03125 34.6527 9.03125 35.0632V176.011C9.03125 176.421 9.30493 176.832 9.64704 177.037Z" fill="#034EA2"/>
<path d="M218.742 284.595L9.30512 177.584C8.68933 177.242 8.27881 176.558 8.27881 176.011V35.0632C8.27881 34.6527 8.55249 34.3106 8.89459 34.0369C9.2367 33.7632 9.64723 33.9001 9.98933 34.0369L219.495 141.047C220.11 141.39 220.521 142.074 220.521 142.621V283.569C220.521 283.979 220.247 284.321 219.905 284.595C219.768 284.732 219.563 284.732 219.426 284.732C219.152 284.732 219.016 284.595 218.742 284.595ZM9.78408 175.942C9.78408 176.147 9.92092 176.353 10.0578 176.353L219.016 283.021V142.69C219.016 142.484 218.879 142.279 218.742 142.279L9.78408 35.5422V175.942Z" fill="#150035"/>
<path d="M7.3208 176.421V168.21L221.547 277.684V285.895C221.547 287.126 220.521 287.674 219.289 286.989L9.57869 179.705C8.27869 179.158 7.3208 177.584 7.3208 176.421Z" fill="#150035"/>
<path d="M218.879 287.468L9.16835 180.389C7.66309 179.637 6.56836 177.926 6.56836 176.421V167.116L221.889 277.137L222.232 277.342V285.826C222.232 286.716 221.889 287.4 221.205 287.674C220.932 287.81 220.589 287.879 220.179 287.879C219.905 287.81 219.426 287.742 218.879 287.468ZM8.07363 169.442V176.421C8.07363 177.447 8.96309 178.747 9.92099 179.158L219.768 286.305C220.11 286.51 220.384 286.51 220.658 286.442C220.795 286.305 220.931 286.1 220.931 285.758V278.026L8.07363 169.442Z" fill="#150035"/>
<path d="M101.194 220.758L100.647 221.647L127.81 235.537L128.358 234.647L101.194 220.758Z" fill="#39A1FF"/>
<path d="M228.389 137.147L221.205 140.979L221.958 142.142L229.142 138.311L228.389 137.147Z" fill="#150035"/>
<path d="M28.0524 34.3105L20.8682 38.1421L21.6208 39.3053L28.805 35.4737L28.0524 34.3105Z" fill="#150035"/>
<path d="M228.458 271.868L221.273 275.7L222.026 276.863L229.21 273.032L228.458 271.868Z" fill="#150035"/>
<path d="M171.189 263.589L171.805 262.7L167.152 260.374L166.673 261.263L171.189 263.589Z" fill="#39A1FF"/>
<path d="M144.916 267.695C145.668 267.695 146.421 267.489 147.173 267.147L155.315 262.7L154.563 261.605L146.421 266.053C145.531 266.463 144.437 266.463 143.547 266.053L62.8103 225.342L62.0576 226.437L142.794 267.147C143.41 267.489 144.163 267.695 144.916 267.695Z" fill="#150035"/>
<path d="M59.7998 225.274L60.5524 224.179L54.5314 221.168C54.2577 221.032 54.2577 220.826 54.2577 220.758C54.2577 220.621 54.2577 220.553 54.5314 220.347L62.8788 216.037L62.1261 214.942L53.7788 219.253C53.163 219.595 52.7524 220.142 52.7524 220.826C52.7524 221.511 53.0945 222.058 53.7788 222.4L59.7998 225.274Z" fill="#150035"/>
<path d="M228.937 267.01L221.752 270.842L222.505 272.005L229.689 268.174L228.937 267.01Z" fill="#150035"/>
<path d="M32.7052 36.6368L25.521 40.4684L26.2736 41.6316L33.4578 37.8L32.7052 36.6368Z" fill="#150035"/>
<path d="M228.868 143.99L221.684 147.821L222.437 148.984L229.621 145.153L228.868 143.99Z" fill="#150035"/>
<path d="M141.426 229.105C141.7 230.542 143.205 231.979 143.41 232.321C143.137 232.321 141.563 232.116 141.426 233.416C141.153 231.979 139.647 230.542 139.305 230.2C139.647 230.132 141.153 230.337 141.426 229.105C141.426 229.037 141.426 229.037 141.426 229.105Z" fill="#150035"/>
<path d="M135.542 226.026C135.816 227.463 137.321 228.9 137.526 229.242C137.252 229.242 135.679 229.037 135.542 230.337C135.268 228.9 133.763 227.463 133.421 227.121C133.695 227.121 135.268 227.258 135.542 226.026C135.405 226.026 135.542 226.026 135.542 226.026Z" fill="#150035"/>
<path d="M129.521 222.947C129.795 224.384 131.3 225.821 131.505 226.163C131.231 226.163 129.658 225.958 129.521 227.258C129.247 225.821 127.742 224.384 127.4 224.042C127.674 224.042 129.316 224.247 129.521 222.947Z" fill="#150035"/>
<path d="M123.568 219.937C123.842 221.374 125.347 222.81 125.552 223.153C125.279 223.153 123.705 222.947 123.568 224.247C123.295 222.81 121.789 221.374 121.447 221.032C121.653 221.032 123.295 221.168 123.568 219.937Z" fill="#150035"/>
<path d="M117.547 216.858C117.821 218.295 119.326 219.732 119.532 220.074C119.258 220.074 117.684 219.868 117.547 221.168C117.274 219.732 115.768 218.295 115.426 217.953C115.768 217.953 117.274 218.089 117.547 216.858Z" fill="#150035"/>
<path d="M111.526 213.847C111.8 215.284 113.305 216.721 113.511 217.063C113.237 217.063 111.663 216.858 111.526 218.158C111.253 216.721 109.747 215.284 109.405 214.942C109.816 214.874 111.321 215.079 111.526 213.847C111.526 213.779 111.526 213.847 111.526 213.847Z" fill="#150035"/>
<path d="M105.642 210.768C105.916 212.205 107.421 213.642 107.626 213.984C107.353 213.984 105.779 213.779 105.642 215.079C105.368 213.642 103.863 212.205 103.521 211.863C103.795 211.863 105.437 212 105.642 210.768C105.574 210.768 105.642 210.768 105.642 210.768Z" fill="#150035"/>
<path d="M99.6894 207.758C99.9631 209.195 101.468 210.632 101.674 210.974C101.4 210.974 99.8263 210.768 99.6894 212.068C99.4157 210.632 97.9105 209.195 97.5684 208.853C97.7736 208.784 99.4157 208.989 99.6894 207.758C99.6894 207.689 99.6894 207.689 99.6894 207.758Z" fill="#150035"/>
<path d="M93.6684 204.679C93.9421 206.116 95.4473 207.553 95.6526 207.895C95.3789 207.895 93.8052 207.689 93.6684 208.989C93.3947 207.553 91.8895 206.116 91.5474 205.774C91.8895 205.774 93.3947 205.911 93.6684 204.679Z" fill="#150035"/>
<path d="M87.6474 201.6C87.9211 203.037 89.4264 204.474 89.6317 204.816C89.358 204.816 87.7843 204.611 87.6474 205.911C87.3737 204.474 85.8685 203.037 85.5264 202.695C85.9369 202.695 87.4422 202.832 87.6474 201.6Z" fill="#150035"/>
<path d="M201.158 259.553C201.431 260.989 202.937 262.426 203.142 262.768C202.868 262.768 201.295 262.563 201.158 263.863C200.884 262.426 199.379 260.989 199.037 260.647C199.379 260.647 200.884 260.853 201.158 259.553Z" fill="#150035"/>
<path d="M195.137 256.542C195.41 257.979 196.916 259.416 197.121 259.758C196.847 259.758 195.273 259.553 195.137 260.853C194.863 259.416 193.358 257.979 193.016 257.637C193.426 257.637 194.931 257.774 195.137 256.542Z" fill="#150035"/>
<path d="M189.252 253.463C189.526 254.9 191.031 256.337 191.237 256.679C190.963 256.679 189.389 256.474 189.252 257.774C188.979 256.337 187.473 254.9 187.131 254.558C187.405 254.558 189.047 254.695 189.252 253.463C189.184 253.463 189.252 253.463 189.252 253.463Z" fill="#150035"/>
<path d="M183.3 250.453C183.573 251.89 185.079 253.326 185.284 253.668C185.01 253.668 183.437 253.463 183.3 254.763C183.026 253.326 181.521 251.89 181.179 251.547C181.384 251.479 183.026 251.684 183.3 250.453C183.3 250.384 183.3 250.384 183.3 250.453Z" fill="#150035"/>
<path d="M177.279 247.374C177.552 248.811 179.058 250.247 179.263 250.59C178.989 250.59 177.416 250.384 177.279 251.684C177.005 250.247 175.5 248.811 175.158 248.468C175.431 248.468 177.005 248.605 177.279 247.374Z" fill="#150035"/>
<path d="M171.258 244.363C171.531 245.8 173.037 247.237 173.242 247.579C172.968 247.579 171.395 247.374 171.258 248.674C170.984 247.237 169.479 245.8 169.137 245.458C169.547 245.389 171.053 245.595 171.258 244.363C171.258 244.295 171.258 244.295 171.258 244.363Z" fill="#150035"/>
<path d="M165.305 241.284C165.579 242.721 167.084 244.158 167.289 244.5C167.016 244.5 165.442 244.295 165.305 245.595C165.031 244.158 163.526 242.721 163.184 242.379C163.526 242.379 165.031 242.516 165.305 241.284Z" fill="#150035"/>
<path d="M159.421 238.205C159.695 239.642 161.2 241.079 161.405 241.421C161.131 241.421 159.558 241.216 159.421 242.516C159.147 241.079 157.642 239.642 157.3 239.3C157.505 239.3 159.147 239.437 159.421 238.205C159.284 238.205 159.421 238.205 159.421 238.205Z" fill="#150035"/>
<path d="M153.4 235.195C153.674 236.632 155.179 238.068 155.384 238.411C155.11 238.411 153.537 238.205 153.4 239.505C153.126 238.068 151.621 236.632 151.279 236.289C151.552 236.289 153.126 236.426 153.4 235.195C153.4 235.126 153.4 235.195 153.4 235.195Z" fill="#150035"/>
<path d="M147.379 232.116C147.653 233.553 149.158 234.989 149.363 235.332C149.089 235.332 147.516 235.126 147.379 236.426C147.105 234.989 145.6 233.553 145.258 233.21C145.668 233.21 147.174 233.347 147.379 232.116Z" fill="#150035"/>
<path d="M141.426 222.947C141.7 224.384 143.205 225.821 143.41 226.163C143.137 226.163 141.563 225.958 141.426 227.258C141.153 225.821 139.647 224.384 139.305 224.042C139.647 224.042 141.153 224.179 141.426 222.947Z" fill="#150035"/>
<path d="M135.542 219.937C135.816 221.374 137.321 222.81 137.526 223.153C137.252 223.153 135.679 222.947 135.542 224.247C135.268 222.81 133.763 221.374 133.421 221.032C133.695 220.963 135.268 221.168 135.542 219.937C135.405 219.868 135.542 219.868 135.542 219.937Z" fill="#150035"/>
<path d="M129.521 216.858C129.795 218.295 131.3 219.732 131.505 220.074C131.231 220.074 129.658 219.868 129.521 221.168C129.247 219.732 127.742 218.295 127.4 217.953C127.674 217.953 129.316 218.089 129.521 216.858Z" fill="#150035"/>
<path d="M123.568 213.779C123.842 215.216 125.347 216.653 125.552 216.995C125.279 216.995 123.705 216.789 123.568 218.089C123.295 216.653 121.789 215.216 121.447 214.874C121.653 214.874 123.295 215.079 123.568 213.779Z" fill="#150035"/>
<path d="M117.547 210.768C117.821 212.205 119.326 213.642 119.532 213.984C119.258 213.984 117.684 213.779 117.547 215.079C117.274 213.642 115.768 212.205 115.426 211.863C115.768 211.863 117.274 212 117.547 210.768Z" fill="#150035"/>
<path d="M111.526 207.689C111.8 209.126 113.305 210.563 113.511 210.905C113.237 210.905 111.663 210.7 111.526 212C111.253 210.563 109.747 209.126 109.405 208.784C109.816 208.784 111.321 208.921 111.526 207.689Z" fill="#150035"/>
<path d="M105.642 204.679C105.916 206.116 107.421 207.553 107.626 207.895C107.353 207.895 105.779 207.689 105.642 208.989C105.368 207.553 103.863 206.116 103.521 205.774C103.795 205.705 105.437 205.911 105.642 204.679C105.574 204.611 105.642 204.679 105.642 204.679Z" fill="#150035"/>
<path d="M99.6894 201.6C99.9631 203.037 101.468 204.474 101.674 204.816C101.4 204.816 99.8263 204.611 99.6894 205.911C99.4157 204.474 97.9105 203.037 97.5684 202.695C97.7736 202.695 99.4157 202.832 99.6894 201.6Z" fill="#150035"/>
<path d="M93.6684 198.59C93.9421 200.026 95.4473 201.463 95.6526 201.805C95.3789 201.805 93.8052 201.6 93.6684 202.9C93.3947 201.463 91.8895 200.026 91.5474 199.684C91.8895 199.616 93.3947 199.821 93.6684 198.59C93.6684 198.521 93.6684 198.521 93.6684 198.59Z" fill="#150035"/>
<path d="M87.6474 195.51C87.9211 196.947 89.4264 198.384 89.6317 198.726C89.358 198.726 87.7843 198.521 87.6474 199.821C87.3737 198.384 85.8685 196.947 85.5264 196.605C85.9369 196.605 87.4422 196.742 87.6474 195.51Z" fill="#150035"/>
<path d="M201.158 253.463C201.431 254.9 202.937 256.337 203.142 256.679C202.868 256.679 201.295 256.474 201.158 257.774C200.884 256.337 199.379 254.9 199.037 254.558C199.379 254.558 200.884 254.695 201.158 253.463Z" fill="#150035"/>
<path d="M195.137 250.384C195.41 251.821 196.916 253.258 197.121 253.6C196.847 253.6 195.273 253.395 195.137 254.695C194.863 253.258 193.358 251.821 193.016 251.479C193.426 251.479 194.931 251.684 195.137 250.384Z" fill="#150035"/>
<path d="M189.252 247.374C189.526 248.811 191.031 250.247 191.237 250.59C190.963 250.59 189.389 250.384 189.252 251.684C188.979 250.247 187.473 248.811 187.131 248.468C187.405 248.468 189.047 248.605 189.252 247.374C189.184 247.374 189.252 247.374 189.252 247.374Z" fill="#150035"/>
<path d="M183.3 244.295C183.573 245.732 185.079 247.168 185.284 247.511C185.01 247.511 183.437 247.305 183.3 248.605C183.026 247.168 181.521 245.732 181.179 245.39C181.384 245.39 183.026 245.458 183.3 244.295Z" fill="#150035"/>
<path d="M177.279 241.284C177.552 242.721 179.058 244.158 179.263 244.5C178.989 244.5 177.416 244.295 177.279 245.595C177.005 244.158 175.5 242.721 175.158 242.379C175.431 242.311 177.005 242.516 177.279 241.284C177.279 241.147 177.279 241.284 177.279 241.284Z" fill="#150035"/>
<path d="M171.258 238.205C171.531 239.642 173.037 241.079 173.242 241.421C172.968 241.421 171.395 241.216 171.258 242.516C170.984 241.079 169.479 239.642 169.137 239.3C169.547 239.3 171.053 239.437 171.258 238.205Z" fill="#150035"/>
<path d="M165.305 235.195C165.579 236.632 167.084 238.068 167.289 238.411C167.016 238.411 165.442 238.205 165.305 239.505C165.031 238.068 163.526 236.632 163.184 236.289C163.526 236.221 165.031 236.426 165.305 235.195C165.305 235.126 165.305 235.126 165.305 235.195Z" fill="#150035"/>
<path d="M159.421 232.116C159.695 233.553 161.2 234.989 161.405 235.332C161.131 235.332 159.558 235.126 159.421 236.426C159.147 234.989 157.642 233.553 157.3 233.21C157.505 233.21 159.147 233.347 159.421 232.116C159.284 232.116 159.421 232.116 159.421 232.116Z" fill="#150035"/>
<path d="M153.4 229.037C153.674 230.474 155.179 231.911 155.384 232.253C155.11 232.253 153.537 232.047 153.4 233.347C153.126 231.911 151.621 230.474 151.279 230.132C151.552 230.132 153.126 230.2 153.4 229.037Z" fill="#150035"/>
<path d="M147.379 226.026C147.653 227.463 149.158 228.9 149.363 229.242C149.089 229.242 147.516 229.037 147.379 230.337C147.105 228.9 145.6 227.463 145.258 227.121C145.668 227.121 147.174 227.258 147.379 226.026C147.379 225.89 147.379 226.026 147.379 226.026Z" fill="#150035"/>
<path d="M141.426 216.858C141.7 218.295 143.205 219.732 143.41 220.074C143.137 220.074 141.563 219.868 141.426 221.168C141.153 219.732 139.647 218.295 139.305 217.953C139.647 217.953 141.153 218.089 141.426 216.858Z" fill="#150035"/>
<path d="M135.542 213.779C135.816 215.216 137.321 216.653 137.526 216.995C137.252 216.995 135.679 216.789 135.542 218.089C135.268 216.653 133.763 215.216 133.421 214.874C133.695 214.874 135.268 215.011 135.542 213.779C135.405 213.779 135.542 213.779 135.542 213.779Z" fill="#150035"/>
<path d="M129.521 210.768C129.795 212.205 131.3 213.642 131.505 213.984C131.231 213.984 129.658 213.779 129.521 215.079C129.247 213.642 127.742 212.205 127.4 211.863C127.674 211.795 129.316 212 129.521 210.768C129.521 210.632 129.521 210.632 129.521 210.768Z" fill="#150035"/>
<path d="M123.568 207.689C123.842 209.126 125.347 210.563 125.552 210.905C125.279 210.905 123.705 210.7 123.568 212C123.295 210.563 121.789 209.126 121.447 208.784C121.653 208.784 123.295 208.921 123.568 207.689Z" fill="#150035"/>
<path d="M117.547 204.611C117.821 206.047 119.326 207.484 119.532 207.826C119.258 207.826 117.684 207.621 117.547 208.921C117.274 207.484 115.768 206.047 115.426 205.705C115.768 205.705 117.274 205.911 117.547 204.611Z" fill="#150035"/>
<path d="M111.526 201.6C111.8 203.037 113.305 204.474 113.511 204.816C113.237 204.816 111.663 204.611 111.526 205.911C111.253 204.474 109.747 203.037 109.405 202.695C109.816 202.695 111.321 202.832 111.526 201.6Z" fill="#150035"/>
<path d="M105.642 198.521C105.916 199.958 107.421 201.395 107.626 201.737C107.353 201.737 105.779 201.532 105.642 202.832C105.368 201.395 103.863 199.958 103.521 199.616C103.795 199.616 105.437 199.753 105.642 198.521C105.574 198.521 105.642 198.521 105.642 198.521Z" fill="#150035"/>
<path d="M99.6894 195.511C99.9631 196.947 101.468 198.384 101.674 198.726C101.4 198.726 99.8263 198.521 99.6894 199.821C99.4157 198.384 97.9105 196.947 97.5684 196.605C97.7736 196.537 99.4157 196.742 99.6894 195.511C99.6894 195.442 99.6894 195.511 99.6894 195.511Z" fill="#150035"/>
<path d="M93.6684 192.432C93.9421 193.868 95.4473 195.305 95.6526 195.647C95.3789 195.647 93.8052 195.442 93.6684 196.742C93.3947 195.305 91.8895 193.868 91.5474 193.526C91.8895 193.526 93.3947 193.663 93.6684 192.432Z" fill="#150035"/>
<path d="M87.6474 189.421C87.9211 190.858 89.4264 192.295 89.6317 192.637C89.358 192.637 87.7843 192.432 87.6474 193.732C87.3737 192.295 85.8685 190.858 85.5264 190.516C85.9369 190.447 87.4422 190.653 87.6474 189.421C87.6474 189.353 87.6474 189.353 87.6474 189.421Z" fill="#150035"/>
<path d="M201.158 247.374C201.431 248.81 202.937 250.247 203.142 250.589C202.868 250.589 201.295 250.384 201.158 251.684C200.884 250.247 199.379 248.81 199.037 248.468C199.379 248.332 200.884 248.605 201.158 247.374C201.158 247.237 201.158 247.237 201.158 247.374Z" fill="#150035"/>
<path d="M195.137 244.295C195.41 245.732 196.916 247.168 197.121 247.511C196.847 247.511 195.273 247.305 195.137 248.605C194.863 247.168 193.358 245.732 193.016 245.39C193.426 245.39 194.931 245.458 195.137 244.295Z" fill="#150035"/>
<path d="M189.252 241.147C189.526 242.584 191.031 244.021 191.237 244.363C190.963 244.363 189.389 244.158 189.252 245.458C188.979 244.021 187.473 242.584 187.131 242.242C187.405 242.311 189.047 242.516 189.252 241.147C189.184 241.147 189.252 241.147 189.252 241.147Z" fill="#150035"/>
<path d="M183.3 238.205C183.573 239.642 185.079 241.079 185.284 241.421C185.01 241.421 183.437 241.216 183.3 242.516C183.026 241.079 181.521 239.642 181.179 239.3C181.384 239.3 183.026 239.437 183.3 238.205Z" fill="#150035"/>
<path d="M177.279 235.126C177.552 236.563 179.058 238 179.263 238.342C178.989 238.342 177.416 238.137 177.279 239.437C177.005 238 175.5 236.563 175.158 236.221C175.431 236.221 177.005 236.29 177.279 235.126Z" fill="#150035"/>
<path d="M171.258 232.116C171.531 233.553 173.037 234.989 173.242 235.332C172.968 235.332 171.395 235.126 171.258 236.426C170.984 234.989 169.479 233.553 169.137 233.21C169.547 233.074 171.053 233.347 171.258 232.116C171.258 231.979 171.258 232.116 171.258 232.116Z" fill="#150035"/>
<path d="M165.305 229.037C165.579 230.474 167.084 231.911 167.289 232.253C167.016 232.253 165.442 232.047 165.305 233.347C165.031 231.911 163.526 230.474 163.184 230.132C163.526 230.132 165.031 230.2 165.305 229.037Z" fill="#150035"/>
<path d="M159.421 226.026C159.695 227.463 161.2 228.9 161.405 229.242C161.131 229.242 159.558 229.037 159.421 230.337C159.147 228.9 157.642 227.463 157.3 227.121C157.505 227.053 159.147 227.258 159.421 226.026C159.284 225.889 159.421 225.889 159.421 226.026Z" fill="#150035"/>
<path d="M153.4 222.947C153.674 224.384 155.179 225.821 155.384 226.163C155.11 226.163 153.537 225.958 153.4 227.258C153.126 225.821 151.621 224.384 151.279 224.042C151.552 224.042 153.126 224.179 153.4 222.947Z" fill="#150035"/>
<path d="M147.379 219.868C147.653 221.305 149.158 222.742 149.363 223.084C149.089 223.084 147.516 222.879 147.379 224.179C147.105 222.742 145.6 221.305 145.258 220.963C145.668 220.963 147.174 221.032 147.379 219.868Z" fill="#150035"/>
<path d="M141.426 210.632C141.7 212.068 143.205 213.505 143.41 213.847C143.137 213.847 141.563 213.642 141.426 214.942C141.153 213.505 139.647 212.068 139.305 211.726C139.647 211.795 141.153 211.863 141.426 210.632Z" fill="#150035"/>
<path d="M135.542 207.689C135.816 209.126 137.321 210.563 137.526 210.905C137.252 210.905 135.679 210.7 135.542 212C135.268 210.563 133.763 209.126 133.421 208.784C133.695 208.784 135.268 208.921 135.542 207.689C135.405 207.689 135.542 207.689 135.542 207.689Z" fill="#150035"/>
<path d="M129.521 204.611C129.795 206.047 131.3 207.484 131.505 207.826C131.231 207.826 129.658 207.621 129.521 208.921C129.247 207.484 127.742 206.047 127.4 205.705C127.674 205.705 129.316 205.774 129.521 204.611Z" fill="#150035"/>
<path d="M123.568 201.6C123.842 203.037 125.347 204.474 125.552 204.816C125.279 204.816 123.705 204.61 123.568 205.91C123.295 204.474 121.789 203.037 121.447 202.695C121.653 202.626 123.295 202.832 123.568 201.6C123.568 201.463 123.568 201.463 123.568 201.6Z" fill="#150035"/>
<path d="M117.547 198.521C117.821 199.958 119.326 201.395 119.532 201.737C119.258 201.737 117.684 201.532 117.547 202.832C117.274 201.395 115.768 199.958 115.426 199.616C115.768 199.616 117.274 199.753 117.547 198.521Z" fill="#150035"/>
<path d="M111.526 195.511C111.8 196.947 113.305 198.384 113.511 198.726C113.237 198.726 111.663 198.521 111.526 199.821C111.253 198.384 109.747 196.947 109.405 196.605C109.816 196.537 111.321 196.742 111.526 195.511C111.526 195.442 111.526 195.442 111.526 195.511Z" fill="#150035"/>
<path d="M105.642 192.432C105.916 193.868 107.421 195.305 107.626 195.647C107.353 195.647 105.779 195.442 105.642 196.742C105.368 195.305 103.863 193.868 103.521 193.526C103.795 193.526 105.437 193.663 105.642 192.432C105.574 192.432 105.642 192.432 105.642 192.432Z" fill="#150035"/>
<path d="M99.6894 189.353C99.9631 190.789 101.468 192.226 101.674 192.568C101.4 192.568 99.8263 192.363 99.6894 193.663C99.4157 192.226 97.9105 190.789 97.5684 190.447C97.7736 190.447 99.4157 190.516 99.6894 189.353Z" fill="#150035"/>
<path d="M93.6684 186.342C93.9421 187.779 95.4473 189.216 95.6526 189.558C95.3789 189.558 93.8052 189.353 93.6684 190.653C93.3947 189.216 91.8895 187.779 91.5474 187.437C91.8895 187.437 93.3947 187.574 93.6684 186.342C93.6684 186.205 93.6684 186.342 93.6684 186.342Z" fill="#150035"/>
<path d="M87.6474 183.263C87.9211 184.7 89.4264 186.137 89.6317 186.479C89.358 186.479 87.7843 186.274 87.6474 187.574C87.3737 186.137 85.8685 184.7 85.5264 184.358C85.9369 184.358 87.4422 184.495 87.6474 183.263Z" fill="#150035"/>
<path d="M81.7631 198.589C82.0368 200.026 83.5421 201.463 83.7473 201.805C83.4737 201.805 81.9 201.6 81.7631 202.9C81.4895 201.463 79.9842 200.026 79.6421 199.684C79.9158 199.753 81.5579 199.821 81.7631 198.589C81.6947 198.521 81.7631 198.589 81.7631 198.589Z" fill="#150035"/>
<path d="M75.8105 195.51C76.0842 196.947 77.5894 198.384 77.7947 198.726C77.521 198.726 75.9473 198.521 75.8105 199.821C75.5368 198.384 74.0316 196.947 73.6895 196.605C73.8947 196.605 75.5368 196.742 75.8105 195.51Z" fill="#150035"/>
<path d="M69.7895 192.568C70.0632 194.005 71.5684 195.442 71.7737 195.784C71.5 195.784 69.9264 195.579 69.7895 196.879C69.5158 195.442 68.0106 194.005 67.6685 193.663C67.9421 193.526 69.5158 193.732 69.7895 192.568C69.7895 192.432 69.7895 192.432 69.7895 192.568Z" fill="#150035"/>
<path d="M63.7685 189.421C64.0422 190.858 65.5475 192.295 65.7527 192.637C65.479 192.637 63.9054 192.432 63.7685 193.732C63.4948 192.295 61.9896 190.858 61.6475 190.516C62.058 190.516 63.5633 190.653 63.7685 189.421Z" fill="#150035"/>
<path d="M81.7631 192.432C82.0368 193.868 83.5421 195.305 83.7473 195.647C83.4737 195.647 81.9 195.442 81.7631 196.742C81.4895 195.305 79.9842 193.868 79.6421 193.526C79.9158 193.526 81.5579 193.663 81.7631 192.432C81.6947 192.432 81.7631 192.432 81.7631 192.432Z" fill="#150035"/>
<path d="M75.8105 189.421C76.0842 190.858 77.5894 192.295 77.7947 192.637C77.521 192.637 75.9473 192.432 75.8105 193.732C75.5368 192.295 74.0316 190.858 73.6895 190.516C73.8947 190.516 75.5368 190.653 75.8105 189.421Z" fill="#150035"/>
<path d="M69.7895 186.342C70.0632 187.779 71.5684 189.216 71.7737 189.558C71.5 189.558 69.9264 189.353 69.7895 190.653C69.5158 189.216 68.0106 187.779 67.6685 187.437C67.9421 187.437 69.5158 187.574 69.7895 186.342Z" fill="#150035"/>
<path d="M63.7685 183.332C64.0422 184.768 65.5475 186.205 65.7527 186.547C65.479 186.547 63.9054 186.342 63.7685 187.642C63.4948 186.205 61.9896 184.768 61.6475 184.426C62.058 184.358 63.5633 184.563 63.7685 183.332C63.7685 183.263 63.7685 183.263 63.7685 183.332Z" fill="#150035"/>
<path d="M81.7631 186.342C82.0368 187.779 83.5421 189.216 83.7473 189.558C83.4737 189.558 81.9 189.353 81.7631 190.653C81.4895 189.216 79.9842 187.779 79.6421 187.437C79.9158 187.437 81.5579 187.574 81.7631 186.342C81.6947 186.342 81.7631 186.342 81.7631 186.342Z" fill="#150035"/>
<path d="M75.8105 183.263C76.0842 184.7 77.5894 186.137 77.7947 186.479C77.521 186.479 75.9473 186.274 75.8105 187.574C75.5368 186.137 74.0316 184.7 73.6895 184.358C73.8947 184.358 75.5368 184.495 75.8105 183.263Z" fill="#150035"/>
<path d="M69.7895 180.253C70.0632 181.69 71.5684 183.126 71.7737 183.468C71.5 183.468 69.9264 183.263 69.7895 184.563C69.5158 183.126 68.0106 181.69 67.6685 181.347C67.9421 181.347 69.5158 181.484 69.7895 180.253Z" fill="#150035"/>
<path d="M63.7685 177.174C64.0422 178.611 65.5475 180.047 65.7527 180.389C65.479 180.389 63.9054 180.184 63.7685 181.484C63.4948 180.047 61.9896 178.611 61.6475 178.268C62.058 178.268 63.5633 178.405 63.7685 177.174Z" fill="#150035"/>
<path d="M81.7631 180.253C82.0368 181.69 83.5421 183.126 83.7473 183.469C83.4737 183.469 81.9 183.263 81.7631 184.563C81.4895 183.126 79.9842 181.69 79.6421 181.347C79.9158 181.279 81.5579 181.484 81.7631 180.253C81.6947 180.184 81.7631 180.184 81.7631 180.253Z" fill="#150035"/>
<path d="M75.8105 177.174C76.0842 178.611 77.5894 180.047 77.7947 180.389C77.521 180.389 75.9473 180.184 75.8105 181.484C75.5368 180.047 74.0316 178.611 73.6895 178.268C73.8947 178.268 75.5368 178.405 75.8105 177.174Z" fill="#150035"/>
<path d="M69.7895 174.095C70.0632 175.532 71.5684 176.968 71.7737 177.311C71.5 177.311 69.9264 177.105 69.7895 178.405C69.5158 176.968 68.0106 175.532 67.6685 175.189C67.9421 175.189 69.5158 175.395 69.7895 174.095Z" fill="#150035"/>
<path d="M63.7685 171.084C64.0422 172.521 65.5475 173.958 65.7527 174.3C65.479 174.3 63.9054 174.095 63.7685 175.395C63.4948 173.958 61.9896 172.521 61.6475 172.179C62.058 172.179 63.5633 172.316 63.7685 171.084Z" fill="#150035"/>
<path d="M201.158 241.147C201.431 242.584 202.937 244.021 203.142 244.363C202.868 244.363 201.295 244.158 201.158 245.458C200.884 244.021 199.379 242.584 199.037 242.242C199.379 242.311 200.884 242.379 201.158 241.147Z" fill="#150035"/>
<path d="M195.137 238.205C195.41 239.642 196.916 241.079 197.121 241.421C196.847 241.421 195.273 241.216 195.137 242.516C194.863 241.079 193.358 239.642 193.016 239.3C193.426 239.163 194.931 239.437 195.137 238.205C195.137 238.068 195.137 238.068 195.137 238.205Z" fill="#150035"/>
<path d="M189.252 235.126C189.526 236.563 191.031 238 191.237 238.342C190.963 238.342 189.389 238.137 189.252 239.437C188.979 238 187.473 236.563 187.131 236.221C187.405 236.221 189.047 236.29 189.252 235.126C189.184 235.126 189.252 235.126 189.252 235.126Z" fill="#150035"/>
<path d="M183.3 232.116C183.573 233.553 185.079 234.99 185.284 235.332C185.01 235.332 183.437 235.126 183.3 236.426C183.026 234.99 181.521 233.553 181.179 233.211C181.384 233.074 183.026 233.347 183.3 232.116C183.3 231.979 183.3 231.979 183.3 232.116Z" fill="#150035"/>
<path d="M177.279 229.037C177.552 230.474 179.058 231.911 179.263 232.253C178.989 232.253 177.416 232.047 177.279 233.347C177.005 231.911 175.5 230.474 175.158 230.132C175.431 230.132 177.005 230.2 177.279 229.037Z" fill="#150035"/>
<path d="M171.258 225.889C171.531 227.326 173.037 228.763 173.242 229.105C172.968 229.105 171.395 228.9 171.258 230.2C170.984 228.763 169.479 227.326 169.137 226.984C169.547 227.053 171.053 227.121 171.258 225.889Z" fill="#150035"/>
<path d="M165.305 222.947C165.579 224.384 167.084 225.821 167.289 226.163C167.016 226.163 165.442 225.958 165.305 227.258C165.031 225.821 163.526 224.384 163.184 224.042C163.526 224.042 165.031 224.179 165.305 222.947C165.305 222.81 165.305 222.947 165.305 222.947Z" fill="#150035"/>
<path d="M159.421 219.868C159.695 221.305 161.2 222.742 161.405 223.084C161.131 223.084 159.558 222.879 159.421 224.179C159.147 222.742 157.642 221.305 157.3 220.963C157.505 220.963 159.147 221.032 159.421 219.868C159.284 219.868 159.421 219.868 159.421 219.868Z" fill="#150035"/>
<path d="M153.4 216.858C153.674 218.295 155.179 219.732 155.384 220.074C155.11 220.074 153.537 219.868 153.4 221.168C153.126 219.732 151.621 218.295 151.279 217.953C151.552 217.884 153.126 218.089 153.4 216.858C153.4 216.721 153.4 216.721 153.4 216.858Z" fill="#150035"/>
<path d="M147.379 213.779C147.653 215.216 149.158 216.653 149.363 216.995C149.089 216.995 147.516 216.789 147.379 218.089C147.105 216.653 145.6 215.216 145.258 214.874C145.668 214.874 147.174 215.011 147.379 213.779Z" fill="#150035"/>
<path d="M159.216 95.821L158.395 97.0526L165.1 100.474L165.921 99.2421L159.216 95.821Z" fill="#150035"/>
<path d="M169.684 101.226L168.863 102.458L214.979 125.995L215.8 124.763L169.684 101.226Z" fill="#150035"/>
<path d="M220.931 292.463L220.042 291.232L228.937 286.51C230.784 285.484 231.947 283.637 231.947 281.789V250.932H233.589V281.789C233.589 284.253 232.084 286.442 229.826 287.742L220.931 292.463Z" fill="#150035"/>
<path d="M233.521 204.679H231.879V229.105H233.521V204.679Z" fill="#150035"/>
<path d="M228.1 331.226C228.1 331.089 228.1 331.089 228.1 331.226V323.837L219.958 323.974L172.2 296.674C168.984 294.826 164.879 294.826 161.663 296.674L146.61 305.705L132.926 308.237V315.626C132.789 317.2 133.473 318.774 135.047 319.595L188.826 350.453C192.042 352.3 196.147 352.3 199.363 350.453L225.979 334.579C227.416 333.895 228.1 332.663 228.1 331.226Z" fill="#39A1FF"/>
<path d="M194.163 352.505C192.179 352.505 190.331 351.958 188.689 350.932L135.047 320.074C133.474 319.253 132.653 317.405 132.789 315.695V307.895L146.747 305.226L161.663 296.195C165.016 294.21 169.395 294.21 172.816 296.195L220.437 323.495L228.853 323.358V331.705C228.716 333.142 227.895 334.374 226.595 335.263L199.979 351.137C197.926 352.026 195.942 352.505 194.163 352.505ZM133.61 308.716V315.626C133.474 317.063 134.158 318.432 135.458 319.184L189.1 350.042C192.179 351.889 196.147 351.889 199.226 350.042L225.842 334.168C226.937 333.484 227.689 332.321 227.689 331.021V330.884V324.247L219.958 324.384L172.2 296.879C169.121 295.032 165.153 295.032 162.074 296.879L147.021 306.116L133.61 308.716Z" fill="#150035"/>
<path d="M134.979 312.274L188.758 343.132C191.973 344.979 196.079 344.979 199.294 343.132L225.91 327.258C228.716 325.684 228.716 321.579 225.91 320.005L172.2 289.147C168.984 287.3 164.879 287.3 161.663 289.147L135.047 305.021C132.31 306.595 132.31 310.7 134.979 312.274Z" fill="white"/>
<path d="M194.163 345.116C192.179 345.116 190.331 344.568 188.689 343.542L134.91 312.684C133.474 311.863 132.516 310.289 132.516 308.579C132.516 306.868 133.337 305.295 134.91 304.474L161.526 288.6C164.879 286.616 169.258 286.616 172.679 288.6L226.458 319.458C227.895 320.279 228.852 321.853 228.852 323.563C228.852 325.274 228.031 326.847 226.458 327.668L199.842 343.542C197.926 344.568 195.942 345.116 194.163 345.116ZM135.252 311.863L189.031 342.721C192.11 344.568 196.079 344.568 199.158 342.721L225.773 326.847C226.868 326.163 227.621 325 227.621 323.7C227.621 322.4 226.937 321.168 225.773 320.553L171.995 289.695C168.916 287.847 165.084 287.847 161.868 289.695L135.252 305.568C134.158 306.253 133.405 307.416 133.405 308.716C133.474 310.016 134.158 311.111 135.252 311.863Z" fill="#150035"/>
<path d="M137.51 313.368H136.552V321.032H137.51V313.368Z" fill="#150035"/>
<path d="M194.3 344.432H193.342V352.095H194.3V344.432Z" fill="#150035"/>
<path d="M199.089 343.268H198.131V350.932H199.089V343.268Z" fill="#150035"/>
<path d="M224.816 327.942H223.858V335.605H224.816V327.942Z" fill="#150035"/>
<path d="M200.321 342.584V350.111L222.831 336.632V329.242L200.321 342.584Z" fill="#150035"/>
<path d="M157.695 305.021C157.695 305.021 157.695 301.053 157.695 300.779L148.937 301.6L148.116 296.811C148.116 296.811 148.116 296.811 147.979 296.811L139.973 301.463L138.4 301.053H138.263C138.263 301.463 138.263 305.158 138.263 305.158C138.263 305.432 138.4 305.705 138.673 305.842L146.816 310.495C147.5 310.905 148.389 310.905 149.073 310.495L157.216 305.705C157.558 305.568 157.695 305.295 157.695 305.021Z" fill="#39A1FF"/>
<path d="M147.979 311.247C147.568 311.247 147.158 311.11 146.679 310.837L138.537 306.184C138.263 306.047 137.989 305.637 137.989 305.226C137.989 305.226 137.989 305.226 137.989 301.942V301.121C137.989 300.984 137.989 300.847 138.126 300.71C138.263 300.574 138.4 300.574 138.537 300.574L139.973 300.984L147.842 296.468C147.979 296.332 148.116 296.332 148.252 296.468L148.389 296.605L149.073 301.258L157.558 300.574C157.695 300.574 157.831 300.847 157.831 300.984V305.226C157.831 305.637 157.558 306.047 157.284 306.184L149.142 310.974C148.937 311.11 148.389 311.247 147.979 311.247ZM138.673 301.326V301.737C138.673 302.9 138.673 304.884 138.673 305.021C138.673 305.158 138.673 305.295 138.947 305.295L147.089 309.947C147.637 310.221 148.389 310.221 148.937 309.947L157.079 305.158C157.216 305.021 157.352 304.884 157.352 304.747H157.763H157.352C157.352 304.747 157.352 301.942 157.352 300.916L148.868 301.6H148.731L148.595 301.463L147.91 296.947L140.179 301.463H139.905L138.673 301.326Z" fill="#150035"/>
<path d="M157.695 300.779L148.937 301.6L147.979 304.542V310.905C148.389 310.905 148.8 310.768 149.074 310.632L157.216 305.842C157.489 305.705 157.626 305.432 157.626 305.158C157.695 305.021 157.695 301.053 157.695 300.779Z" fill="#150035"/>
<path d="M147.979 311.247H147.568V304.474L148.663 301.053L148.937 301.189L157.694 300.368C157.831 300.368 157.968 300.642 157.968 300.779V305.021C157.968 305.432 157.694 305.842 157.421 306.184L149.279 310.974C148.937 311.111 148.389 311.247 147.979 311.247ZM148.252 304.61V310.426C148.389 310.426 148.663 310.289 148.8 310.153L156.942 305.363C157.079 305.226 157.216 305.089 157.216 304.953C157.216 304.953 157.216 302.147 157.216 301.121L149.073 301.805L148.252 304.61Z" fill="#150035"/>
<path d="M139.495 301.942C139.495 301.942 139.631 301.668 139.768 301.258L138.331 300.847H138.195C138.195 301.258 138.195 304.953 138.195 304.953C138.195 305.226 138.331 305.5 138.605 305.637L139.426 306.047V303.789V301.942H139.495Z" fill="#150035"/>
<path d="M139.905 306.868L138.468 306.047C138.195 305.91 137.921 305.5 137.921 305.089C137.921 305.089 137.921 305.089 137.921 301.805V300.984C137.921 300.847 137.921 300.71 138.058 300.574C138.195 300.437 138.331 300.437 138.468 300.437L140.316 300.984L140.179 301.395C140.042 301.668 140.042 301.942 139.905 302.079V306.868ZM138.674 301.326V301.737C138.674 302.9 138.674 304.884 138.674 305.021C138.674 305.158 138.674 305.295 138.947 305.295L139.221 305.431V301.737C139.221 301.737 139.221 301.6 139.358 301.463L138.674 301.326Z" fill="#150035"/>
<path d="M146.816 306.321L138.673 301.532C138.126 301.258 138.126 300.368 138.673 299.958L146.952 295.168C147.637 294.758 148.526 294.758 149.073 295.168L157.216 299.958C157.763 300.232 157.763 301.121 157.216 301.532L148.937 306.321C148.389 306.732 147.5 306.732 146.816 306.321Z" fill="white"/>
<path d="M147.979 307.005C147.568 307.005 147.158 306.868 146.679 306.732L138.537 301.942C138.126 301.668 137.989 301.258 137.989 300.779C137.989 300.368 138.263 299.958 138.537 299.616L146.816 294.826C147.637 294.416 148.663 294.416 149.347 294.826L157.489 299.616C157.9 299.889 158.037 300.3 158.037 300.779C158.037 301.19 157.763 301.6 157.489 301.942L149.21 306.732C148.8 306.868 148.389 307.005 147.979 307.005ZM148.116 295.374C147.842 295.374 147.568 295.511 147.295 295.647L139.016 300.437C138.879 300.574 138.742 300.711 138.742 300.847C138.742 300.984 138.742 301.121 139.016 301.258L147.158 306.047C147.705 306.321 148.458 306.321 148.868 306.047L157.147 301.258C157.284 301.121 157.421 300.984 157.421 300.847C157.421 300.711 157.421 300.574 157.147 300.437L149.005 295.647C148.663 295.374 148.389 295.374 148.116 295.374Z" fill="#150035"/>
<path d="M156.942 296.537C156.942 296.537 156.942 292.568 156.942 292.295L148.184 293.116L147.363 288.326C147.363 288.326 147.363 288.326 147.226 288.326L139.221 292.979L137.647 292.568H137.51C137.51 292.979 137.51 296.674 137.51 296.674C137.51 296.947 137.647 297.221 137.921 297.358L146.063 302.011C146.747 302.421 147.637 302.421 148.321 302.011L156.463 297.221C156.805 297.084 156.942 296.811 156.942 296.537Z" fill="#39A1FF"/>
<path d="M147.089 302.763C146.679 302.763 146.268 302.626 145.789 302.353L137.647 297.7C137.374 297.563 137.1 297.153 137.1 296.742C137.1 296.742 137.1 296.742 137.1 293.595V292.432C137.1 292.295 137.1 292.158 137.237 292.021C137.374 291.884 137.51 291.884 137.647 291.884L139.084 292.295L146.952 287.779C147.089 287.642 147.226 287.642 147.363 287.779L147.5 287.916L148.184 292.568L156.668 291.884C156.805 291.884 156.942 292.158 156.942 292.295V296.537C156.942 296.947 156.668 297.358 156.395 297.495L148.252 302.284C148.116 302.626 147.637 302.763 147.089 302.763ZM137.921 292.979V293.663C137.921 294.826 137.921 296.468 137.921 296.605C137.921 296.742 137.921 296.879 138.195 296.879L146.337 301.532C146.884 301.805 147.637 301.805 148.184 301.532L156.326 296.742C156.463 296.605 156.6 296.468 156.6 296.332H157.01H156.6C156.6 296.332 156.6 293.526 156.6 292.5L148.116 293.184H147.979L147.842 293.047L147.158 288.532L139.426 293.047H139.152L137.921 292.979Z" fill="#150035"/>
<path d="M156.805 292.295L148.047 293.116L147.089 296.058V302.421C147.5 302.421 147.91 302.284 148.184 302.147L156.326 297.358C156.6 297.221 156.737 296.947 156.737 296.674C156.942 296.537 156.942 292.705 156.805 292.295C156.942 292.295 156.942 292.295 156.805 292.295Z" fill="#150035"/>
<path d="M147.089 302.763H146.679V295.989L147.773 292.568L148.047 292.705L156.805 291.884C156.942 291.884 157.079 292.158 157.079 292.295V296.537C157.079 296.947 156.805 297.358 156.531 297.7L148.389 302.489C148.116 302.626 147.637 302.763 147.089 302.763ZM147.5 296.126V301.942C147.637 301.942 147.91 301.805 148.047 301.668L156.189 296.879C156.326 296.742 156.463 296.605 156.463 296.468C156.463 296.468 156.463 293.663 156.463 292.637L148.321 293.321L147.5 296.126Z" fill="#150035"/>
<path d="M138.811 293.595C138.811 293.595 138.947 293.321 139.084 292.911L137.647 292.5H137.51C137.51 292.911 137.51 296.605 137.51 296.605C137.51 296.879 137.647 297.153 137.921 297.289L138.742 297.7V295.442V293.595H138.811Z" fill="#150035"/>
<path d="M139.084 298.521L137.647 297.7C137.374 297.563 137.1 297.153 137.1 296.742C137.1 296.742 137.1 296.742 137.1 293.595V292.432C137.1 292.295 137.1 292.158 137.237 292.021C137.374 291.884 137.51 291.884 137.647 291.884L139.495 292.432L139.358 292.842C139.221 293.116 139.221 293.389 139.084 293.526V298.521ZM137.921 292.842V293.526C137.921 294.689 137.921 296.332 137.921 296.468C137.921 296.605 137.921 296.742 138.195 296.742L138.468 296.879V293.253C138.468 293.253 138.468 293.116 138.605 292.979L137.921 292.842Z" fill="#150035"/>
<path d="M146.132 297.837L137.989 293.047C137.442 292.774 137.442 291.884 137.989 291.474L146.268 286.684C146.953 286.274 147.842 286.274 148.389 286.684L156.532 291.474C157.079 291.747 157.079 292.637 156.532 293.047L148.253 297.837C147.5 298.247 146.679 298.247 146.132 297.837Z" fill="white"/>
<path d="M147.089 298.521C146.679 298.521 146.268 298.384 145.789 298.247L137.647 293.458C137.237 293.184 137.1 292.774 137.1 292.295C137.1 291.884 137.374 291.474 137.647 291.132L145.926 286.342C146.747 285.932 147.774 285.932 148.458 286.342L156.6 291.132C157.01 291.405 157.147 291.816 157.147 292.295C157.147 292.705 156.874 293.116 156.6 293.458L148.321 298.247C148.116 298.384 147.637 298.521 147.089 298.521ZM147.226 286.889C146.952 286.889 146.679 287.026 146.405 287.163L138.126 291.953C137.989 292.089 137.852 292.226 137.852 292.363C137.852 292.5 137.852 292.637 138.126 292.774L146.268 297.563C146.816 297.837 147.568 297.837 147.979 297.563L156.258 292.774C156.395 292.637 156.531 292.5 156.531 292.363C156.531 292.226 156.531 292.089 156.258 291.953L148.116 287.163C147.979 287.026 147.5 286.889 147.226 286.889Z" fill="#150035"/>
<path d="M145.105 289.626L150.442 292.774L155.642 289.832L150.442 286.684L145.105 289.626Z" fill="white"/>
<path d="M150.51 293.116L144.421 289.558L150.647 286L156.737 289.558L150.51 293.116ZM145.995 289.626L150.51 292.158L155.026 289.626L150.51 286.958L145.995 289.626Z" fill="#150035"/>
<path d="M213.321 354.626C213.321 354.626 213.321 352.779 213.321 352.368C213.321 352.368 213.321 352.368 213.321 352.232L198.268 356.2L202.51 347.716C202.51 347.716 202.51 347.716 202.373 347.716L188.142 355.926L186.431 355.516C186.431 355.516 186.294 355.516 186.294 355.653C186.294 356.063 186.294 357.774 186.294 357.774C186.294 358.047 186.431 358.321 186.705 358.458L195.873 363.863C196.694 364.274 197.584 364.274 198.405 363.863L212.773 355.516C213.184 355.174 213.321 354.9 213.321 354.626Z" fill="#39A1FF"/>
<path d="M197.105 364.479C196.558 364.479 196.147 364.342 195.668 364.068L186.5 358.663C186.089 358.389 185.953 358.116 185.816 357.705C185.816 357.705 185.816 357.568 185.816 355.721V355.584C185.816 355.447 185.816 355.31 185.953 355.174C186.089 355.037 186.226 355.037 186.363 355.037L187.937 355.447L202.031 347.237C202.168 347.1 202.305 347.1 202.442 347.237L202.716 347.374L198.61 355.447L212.842 351.753H212.979C213.116 351.753 213.389 352.026 213.389 352.163V352.71C213.389 353.395 213.389 354.421 213.389 354.421C213.389 354.832 213.116 355.242 212.705 355.584L198.337 363.931C198.063 364.342 197.653 364.479 197.105 364.479ZM186.705 355.995C186.705 356.542 186.705 357.568 186.705 357.705C186.705 357.842 186.705 357.979 186.979 358.116L196.147 363.521C196.831 363.932 197.584 363.932 198.268 363.521L212.637 355.174C212.774 355.037 212.91 354.9 212.91 354.763H213.321H212.91C212.91 354.763 212.91 353.805 212.91 353.053V352.916L198.268 356.747L197.995 356.61L197.721 356.474L201.689 348.81L188.416 356.474C188.279 356.474 188.142 356.61 188.005 356.474L186.705 355.995Z" fill="#150035"/>
<path d="M213.184 352.3L198.131 356.268L197.037 359.689V364.205C197.447 364.205 197.995 364.068 198.337 363.931L212.705 355.584C212.979 355.447 213.116 355.174 213.116 354.763C213.321 354.626 213.321 352.779 213.184 352.3C213.321 352.3 213.321 352.3 213.184 352.3Z" fill="#150035"/>
<path d="M197.105 364.479H196.695V359.347L197.995 355.516L198.268 355.653L213.184 351.821H213.321C213.458 351.821 213.731 352.095 213.731 352.232V352.779C213.731 353.463 213.731 354.489 213.731 354.489C213.731 355.037 213.458 355.447 213.047 355.653L198.679 364C198.063 364.342 197.652 364.479 197.105 364.479ZM197.379 359.553V363.658C197.652 363.658 197.926 363.521 198.063 363.384L212.431 355.037C212.568 354.9 212.705 354.763 212.705 354.626C212.705 354.626 212.705 353.668 212.705 352.916V352.779L198.337 356.474L197.379 359.553Z" fill="#150035"/>
<path d="M187.663 356.747C187.663 356.747 187.8 356.337 187.937 355.926L186.363 355.516C186.363 355.516 186.226 355.516 186.226 355.653C186.226 356.063 186.226 357.774 186.226 357.774C186.226 358.047 186.363 358.321 186.637 358.458L187.595 359.005V356.747H187.663Z" fill="#150035"/>
<path d="M188.074 359.689L186.5 358.868C186.089 358.595 185.953 358.321 185.816 357.911C185.816 357.911 185.816 357.774 185.816 355.926V355.789C185.816 355.653 185.816 355.516 185.953 355.379C186.089 355.242 186.226 355.242 186.363 355.242L188.347 355.789L188.21 356.2C188.074 356.611 187.937 356.884 187.937 356.884V359.689H188.074V359.689ZM186.705 355.858C186.705 356.405 186.705 357.432 186.705 357.568C186.705 357.705 186.705 357.842 186.979 357.979L187.253 358.116V356.405C187.253 356.405 187.253 356.268 187.389 355.995L186.705 355.858Z" fill="#150035"/>
<path d="M195.805 361.537L186.637 356.132C185.952 355.721 185.952 354.832 186.637 354.421L201.142 346.074C201.826 345.663 202.852 345.663 203.537 346.074L212.705 351.479C213.389 351.889 213.389 352.779 212.705 353.189L198.337 361.537C197.516 361.947 196.695 361.947 195.805 361.537Z" fill="white"/>
<path d="M197.105 362.221C196.695 362.221 196.147 362.084 195.668 361.811L186.5 356.405C186.089 356.132 185.816 355.721 185.816 355.242C185.816 354.695 186.089 354.284 186.5 354.079L201.005 345.732C201.826 345.184 202.989 345.184 203.81 345.732L212.979 351.137C213.389 351.41 213.663 351.821 213.663 352.3C213.663 352.847 213.389 353.258 212.979 353.463L198.474 361.811C198.063 362.084 197.516 362.221 197.105 362.221ZM202.442 346.211C202.168 346.211 201.758 346.347 201.484 346.484L186.979 354.832C186.842 354.968 186.705 355.105 186.705 355.379C186.705 355.516 186.842 355.789 186.979 355.926L196.147 361.332C196.695 361.742 197.584 361.742 198.131 361.332L212.637 352.984C212.774 352.847 212.91 352.711 212.91 352.437C212.91 352.3 212.774 352.026 212.637 351.889L203.468 346.484C203.126 346.211 202.716 346.211 202.442 346.211Z" fill="#150035"/>
<path d="M203.126 341.01L200.184 339.163C200.047 339.026 199.91 339.026 199.774 339.163L196.831 341.01C196.695 341.01 196.695 341.147 196.831 341.147L199.637 346.074C199.637 346.074 199.637 346.074 199.637 346.21V346.758C199.637 347.305 199.91 347.921 200.321 348.058L197.652 346.621L200.458 351.547C200.458 351.684 200.595 351.684 200.595 351.547L203.537 349.7C203.673 349.563 203.81 349.426 203.81 349.153V342.105C203.879 341.695 203.605 341.147 203.126 341.01Z" fill="white"/>
<path d="M200.458 352.026H200.321C200.184 352.026 200.047 351.89 200.047 351.753L197.242 346.826C197.242 346.826 197.242 346.826 197.379 346.963L197.789 346.279L199.226 346.963C199.226 346.826 199.226 346.826 199.226 346.689V346.279L196.421 341.353C196.284 341.079 196.421 340.805 196.558 340.668L199.5 338.821C199.773 338.684 200.047 338.684 200.321 338.821L203.263 340.668C203.81 340.942 204.084 341.626 204.084 342.379V349.358C204.084 349.768 203.947 350.042 203.673 350.179L200.731 352.026C200.731 352.026 200.594 352.026 200.458 352.026ZM198.679 347.647L200.663 351.205L203.468 349.495C203.468 349.495 203.468 349.495 203.468 349.358V342.311C203.468 341.9 203.194 341.489 203.057 341.353L200.115 339.505L197.31 341.216L199.979 346.005C199.979 346.142 200.115 346.142 200.115 346.279V346.826C200.115 347.237 200.389 347.647 200.526 347.784L200.115 348.468L198.679 347.647Z" fill="#150035"/>
<path d="M197.379 345.526C197.379 345.526 198.474 339.163 199.5 344.568L197.379 346.553C197.379 346.553 197.379 346.553 197.516 346.689L200.321 351.616C200.321 351.753 200.458 351.753 200.595 351.753L203.537 350.042C203.674 349.905 203.81 349.768 203.81 349.495V342.584L200.732 344.432L197.379 345.526Z" fill="#150035"/>
<path d="M200.595 352.026H200.458C200.321 352.026 200.184 351.889 200.047 351.753L197.242 346.963L196.968 346.689L197.242 346.279L197.652 345.868L196.968 346.142L197.105 345.458C197.516 343.2 198.063 341.9 198.679 341.9C199.226 341.9 199.5 342.447 199.979 344.021L200.526 343.747L203.742 341.763L204.016 341.9C204.152 342.037 204.289 342.174 204.289 342.311V349.221C204.289 349.632 204.152 349.905 203.879 350.042L200.937 351.889C200.731 352.026 200.595 352.026 200.595 352.026ZM198.063 346.689L200.595 351.205L203.4 349.495C203.4 349.495 203.4 349.495 203.4 349.358V342.995L200.868 344.568L199.774 344.979L198.063 346.689ZM198.679 342.858C198.542 343.132 198.268 344.021 197.995 344.842L199.089 344.295C198.952 343.405 198.816 342.995 198.679 342.858Z" fill="#150035"/>
<path d="M200.047 351.753L197.105 349.905C196.695 349.632 196.421 349.084 196.421 348.605V341.558C196.421 341.011 196.695 340.874 197.105 341.011L200.047 342.858C200.458 343.132 200.731 343.679 200.731 344.158V351.205C200.595 351.753 200.321 351.89 200.047 351.753Z" fill="#39A1FF"/>
<path d="M200.184 352.163C200.047 352.163 199.91 352.163 199.774 352.026L196.832 350.179C196.421 349.905 196.01 349.221 196.01 348.468V341.421C196.01 341.01 196.147 340.737 196.421 340.6C196.695 340.463 196.968 340.463 197.242 340.6L200.184 342.447C200.595 342.721 201.005 343.405 201.005 344.158V351.205C201.005 351.616 200.868 351.889 200.595 352.026C200.458 352.163 200.321 352.163 200.184 352.163ZM200.184 351.342C200.184 351.342 200.321 351.342 200.321 351.205V344.158C200.321 343.747 200.047 343.337 199.91 343.2L196.968 341.353C196.968 341.353 196.968 341.353 196.968 341.489V348.537C196.968 348.947 197.242 349.358 197.379 349.495L200.184 351.342Z" fill="#150035"/>
<path d="M201.963 340.053L198.952 341.9L199.431 342.653L202.442 340.805L201.963 340.053Z" fill="#150035"/>
<path d="M203.468 345.868L200.8 347.442L201.073 347.921L203.742 346.347L203.468 345.868Z" fill="#39A1FF"/>
<path d="M174.732 329.516C174.732 329.516 174.732 326.71 174.732 326.574L168.505 327.121L167.958 323.563L162.21 326.847L161.116 326.574C161.116 326.847 161.116 329.516 161.116 329.516C161.116 329.653 161.253 329.926 161.389 329.926L167.137 333.347C167.684 333.621 168.232 333.621 168.71 333.347L174.595 329.926C174.595 329.926 174.732 329.789 174.732 329.516Z" fill="#39A1FF"/>
<path d="M167.684 334.032C167.41 334.032 167 333.895 166.726 333.758L160.979 330.337C160.705 330.2 160.568 329.926 160.431 329.653C160.431 329.653 160.431 329.653 160.431 327.395V326.437L160.568 326.3C160.705 326.163 160.842 326.163 160.979 326.163L161.937 326.437L167.684 323.016L168.095 323.153L168.642 326.437L174.526 325.889C174.663 325.889 174.8 326.163 174.8 326.3C174.8 326.3 174.8 329.242 174.8 329.447C174.8 329.721 174.663 329.995 174.252 330.268L168.368 333.689C168.368 334.032 168.095 334.032 167.684 334.032ZM161.184 327.121V327.532C161.184 328.353 161.184 329.653 161.184 329.653C161.184 329.653 161.184 329.789 161.321 329.789L167.068 333.211C167.479 333.484 167.889 333.484 168.368 333.211L174.252 329.789C174.389 329.789 174.389 329.653 174.389 329.653C174.389 329.516 174.389 327.805 174.389 326.984L168.505 327.532H168.368L168.231 327.395L167.684 324.247L162.21 327.395H162.073L161.184 327.121Z" fill="#150035"/>
<path d="M174.731 326.437L168.505 326.984L167.821 329.105V333.621C168.094 333.621 168.368 333.621 168.642 333.484L174.526 330.063C174.663 329.926 174.8 329.789 174.8 329.516C174.731 329.516 174.731 326.71 174.731 326.437C174.731 326.437 174.731 326.574 174.731 326.437Z" fill="#150035"/>
<path d="M167.684 334.032H167.274V328.9L168.095 326.368L168.368 326.505L174.595 325.958C174.732 325.958 174.868 326.232 174.868 326.368C174.868 326.368 174.868 329.311 174.868 329.516C174.868 329.926 174.732 330.2 174.321 330.337L168.437 333.758C168.368 334.032 168.095 334.032 167.684 334.032ZM168.095 329.242V333.211C168.232 333.211 168.232 333.211 168.368 333.074L174.253 329.653C174.389 329.653 174.389 329.516 174.389 329.516C174.389 329.516 174.389 327.668 174.389 326.847L168.779 327.395L168.095 329.242Z" fill="#150035"/>
<path d="M161.731 327.395C161.731 327.395 161.868 327.121 161.868 326.847L160.91 326.574C160.91 326.847 160.91 329.516 160.91 329.516C160.91 329.653 161.047 329.926 161.184 329.926L161.731 330.2V328.626V327.395Z" fill="#150035"/>
<path d="M162.005 331.089L160.91 330.405C160.637 330.268 160.5 329.995 160.363 329.721C160.363 329.721 160.363 329.721 160.363 327.463V326.505L160.5 326.368C160.637 326.232 160.774 326.232 160.91 326.232L162.347 326.642L162.21 327.053C162.074 327.189 162.074 327.463 162.074 327.463V331.089H162.005ZM161.184 327.121V327.532C161.184 328.353 161.184 329.653 161.184 329.653C161.184 329.653 161.184 329.789 161.321 329.789V327.395C161.321 327.395 161.321 327.395 161.321 327.258L161.184 327.121Z" fill="#150035"/>
<path d="M166.931 330.542L161.184 327.121C160.773 326.847 160.773 326.3 161.184 325.958L167.068 322.537C167.479 322.263 168.163 322.263 168.642 322.537L174.389 325.958C174.8 326.232 174.8 326.779 174.389 327.121L168.505 330.542C167.958 330.816 167.41 330.816 166.931 330.542Z" fill="white"/>
<path d="M167.684 331.09C167.41 331.09 167 330.953 166.726 330.816L160.979 327.395C160.705 327.258 160.431 326.847 160.431 326.574C160.431 326.163 160.568 325.89 160.979 325.753L166.863 322.332C167.41 322.058 168.3 322.058 168.847 322.332L174.595 325.753C174.868 325.89 175.142 326.3 175.142 326.574C175.142 326.984 175.005 327.258 174.595 327.395L168.71 330.816C168.368 330.953 168.095 331.09 167.684 331.09ZM167.821 322.742C167.684 322.742 167.41 322.742 167.273 322.879L161.389 326.3C161.252 326.3 161.252 326.437 161.252 326.437C161.252 326.437 161.252 326.574 161.389 326.574L167.137 329.995C167.547 330.132 167.958 330.132 168.231 329.995L174.116 326.574C174.252 326.574 174.252 326.437 174.252 326.437C174.252 326.437 174.252 326.3 174.116 326.3L168.368 322.879C168.231 322.879 167.958 322.742 167.821 322.742Z" fill="#150035"/>
<path d="M161.1 45.1921C161.1 45.0552 161.1 45.0552 161.1 45.1921V37.8026L152.958 37.9394L105.2 10.6394C101.984 8.79206 97.8786 8.79206 94.6628 10.6394L79.6102 19.671L65.926 22.2026V29.5921C65.7892 31.1657 66.4734 32.7394 68.0471 33.5605L121.826 64.4184C125.042 66.2657 129.147 66.2657 132.363 64.4184L158.979 48.5447C160.415 47.9289 161.1 46.6289 161.1 45.1921Z" fill="#39A1FF"/>
<path d="M127.163 66.4711C125.179 66.4711 123.332 65.9237 121.689 64.8974L67.9789 34.0395C66.4052 33.2184 65.5842 31.371 65.721 29.6605V21.8605L79.6789 19.1921L94.5947 10.1605C97.9473 8.17631 102.326 8.17631 105.747 10.1605L153.368 37.4605L161.784 37.3237V45.6711C161.647 47.1079 160.826 48.3395 159.526 49.229L132.911 65.1026C130.926 66.0605 129.011 66.4711 127.163 66.4711ZM66.6105 22.6816V29.5921C66.4737 31.0289 67.1579 32.3974 68.4579 33.15L122.1 64.0079C125.179 65.8553 129.147 65.8553 132.226 64.0079L158.842 48.1342C159.937 47.45 160.689 46.2868 160.689 44.9868V44.9184V38.2816L152.958 38.4184L105.2 10.9132C102.121 9.06579 98.1526 9.06579 95.0737 10.9132L80.021 20.15L66.6105 22.6816Z" fill="#150035"/>
<path d="M67.9789 26.2394L121.758 57.0973C124.974 58.9447 129.079 58.9447 132.295 57.0973L158.91 41.2237C161.716 39.65 161.716 35.5447 158.91 33.971L105.2 3.18155C101.984 1.33418 97.8789 1.33418 94.6631 3.18155L67.9789 18.9868C65.3104 20.5605 65.3104 24.6658 67.9789 26.2394Z" fill="white"/>
<path d="M127.163 59.0816C125.179 59.0816 123.331 58.5342 121.689 57.5079L67.9104 26.65C66.4735 25.829 65.5156 24.2553 65.5156 22.5447C65.5156 20.8342 66.3367 19.2605 67.9104 18.4395L94.5261 2.56579C97.8788 0.581584 102.258 0.581584 105.679 2.56579L159.458 33.4237C160.895 34.2447 161.852 35.8184 161.852 37.5289C161.852 39.2395 161.031 40.8132 159.458 41.6342L132.842 57.5079C130.926 58.5342 129.01 59.0816 127.163 59.0816ZM68.2525 25.829L122.031 56.6868C125.11 58.5342 129.079 58.5342 132.158 56.6868L158.774 40.8132C159.868 40.129 160.621 38.9658 160.621 37.6658C160.621 36.3658 159.937 35.1342 158.774 34.5184L104.995 3.66053C101.916 1.81316 98.084 1.81316 94.8683 3.66053L68.2525 19.6026C67.1577 20.2868 66.4051 21.45 66.4051 22.75C66.4735 23.9816 67.1577 25.0763 68.2525 25.829Z" fill="#150035"/>
<path d="M70.5104 27.4026H69.5525V35.0657H70.5104V27.4026Z" fill="#150035"/>
<path d="M127.3 58.3973H126.342V66.0605H127.3V58.3973Z" fill="#150035"/>
<path d="M132.089 57.2343H131.131V64.8974H132.089V57.2343Z" fill="#150035"/>
<path d="M157.816 41.9763H156.858V49.6395H157.816V41.9763Z" fill="#150035"/>
<path d="M133.321 56.55V64.0763L155.831 50.5974V43.2079L133.321 56.55Z" fill="#150035"/>
<path d="M90.6946 18.9869C90.6946 18.9869 90.6946 15.0185 90.6946 14.7448L81.9367 15.5658L81.1157 10.7764C81.1157 10.7764 81.1156 10.7764 80.9788 10.7764L72.9051 15.4974L71.3314 15.0869H71.1946C71.1946 15.4974 71.1946 19.1922 71.1946 19.1922C71.1946 19.4658 71.3314 19.7395 71.6051 19.8764L79.7472 24.529C80.4314 24.9395 81.3209 24.9395 82.0051 24.529L90.1472 19.7395C90.5578 19.6027 90.6946 19.329 90.6946 18.9869Z" fill="#39A1FF"/>
<path d="M80.9787 25.2816C80.5682 25.2816 80.1577 25.1448 79.6787 24.8711L71.5366 20.2185C71.2629 20.0816 70.9893 19.6711 70.9893 19.2606C70.9893 19.2606 70.9893 19.2606 70.9893 15.9763V15.1553C70.9893 15.0184 70.9893 14.8816 71.1261 14.7448C71.263 14.6079 71.3998 14.6079 71.5366 14.6079L72.9735 15.0185L80.8419 10.5027C80.9787 10.3658 81.1156 10.3658 81.2524 10.5027L81.3893 10.6395L82.0735 15.2921L90.5577 14.6079C90.6945 14.6079 90.8314 14.8816 90.8314 15.0185V19.2606C90.8314 19.6711 90.5577 20.0816 90.284 20.2185L82.1419 25.0079C81.9366 25.0763 81.3893 25.2816 80.9787 25.2816ZM71.6735 15.3606V15.7711C71.6735 16.9342 71.6735 18.9184 71.6735 19.0553C71.6735 19.1921 71.6735 19.329 71.9472 19.329L80.0893 23.9816C80.6366 24.2553 81.3893 24.2553 81.9366 23.9816L90.0787 19.1921C90.2156 19.0553 90.3524 18.9185 90.3524 18.7816H90.7629H90.3524C90.3524 18.7816 90.3524 15.9763 90.3524 14.95L81.8682 15.6342H81.7314L81.6629 15.4974L80.9787 10.9816L73.1787 15.4974H72.905L71.6735 15.3606Z" fill="#150035"/>
<path d="M90.6945 14.7448L81.9366 15.5658L80.9788 18.5079V24.8711C81.3893 24.8711 81.7998 24.7342 82.0735 24.5974L90.2156 19.8079C90.4893 19.6711 90.6261 19.3974 90.6261 19.1237C90.6945 18.9869 90.6945 15.0869 90.6945 14.7448Z" fill="#150035"/>
<path d="M80.9789 25.2815H80.5684V18.5079L81.6631 15.0868L81.9368 15.2236L90.6947 14.4026C90.8315 14.4026 90.9684 14.6763 90.9684 14.8131V19.0552C90.9684 19.4657 90.6947 19.8763 90.421 20.2184L82.2789 25.0079C81.9368 25.0763 81.3894 25.2815 80.9789 25.2815ZM81.2526 18.5763V24.3921C81.3894 24.3921 81.6631 24.2552 81.7999 24.1184L89.942 19.3289C90.0789 19.1921 90.2157 19.0552 90.2157 18.9184C90.2157 18.9184 90.2157 16.1131 90.2157 15.0868L82.0736 15.771L81.2526 18.5763Z" fill="#150035"/>
<path d="M72.4946 15.9078C72.4946 15.9078 72.6314 15.6342 72.7683 15.2236L71.3314 14.8131H71.1946C71.1946 15.2236 71.1946 18.9184 71.1946 18.9184C71.1946 19.1921 71.3314 19.4657 71.6051 19.6026L72.4262 20.0131V17.7552V15.9078H72.4946Z" fill="#150035"/>
<path d="M72.9051 20.8342L71.4683 20.0131C71.1946 19.8763 70.9209 19.4657 70.9209 19.0552C70.9209 19.0552 70.9209 19.0552 70.9209 15.771V14.95C70.9209 14.8131 70.9209 14.6763 71.0577 14.5394C71.1946 14.4026 71.3314 14.4026 71.4683 14.4026L73.3156 14.95L73.1788 15.3605C73.042 15.6342 73.042 15.9079 72.9051 16.0447V20.8342V20.8342ZM71.6735 15.3605V15.771C71.6735 16.9342 71.6735 18.9184 71.6735 19.0552C71.6735 19.1921 71.6735 19.3289 71.9472 19.3289L72.2209 19.4657V15.771C72.2209 15.771 72.2209 15.6342 72.3577 15.4973L71.6735 15.3605Z" fill="#150035"/>
<path d="M79.8156 20.2868L71.6735 15.4974C71.1261 15.2237 71.1261 14.3342 71.6735 13.9237L79.9524 9.13419C80.6366 8.72366 81.5261 8.72366 82.0735 9.13419L90.2156 13.9237C90.7629 14.1973 90.7629 15.0868 90.2156 15.4974L81.9366 20.2868C81.3893 20.6974 80.4998 20.6974 79.8156 20.2868Z" fill="white"/>
<path d="M80.9787 20.9711C80.5682 20.9711 80.1577 20.8343 79.6787 20.6974L71.5366 15.9079C71.1261 15.6343 70.9893 15.2237 70.9893 14.7448C70.9893 14.3343 71.2629 13.9237 71.5366 13.5816L79.8156 8.79215C80.6366 8.38162 81.663 8.38162 82.3472 8.79215L90.4893 13.5816C90.8998 13.8553 91.0367 14.2658 91.0367 14.7448C91.0367 15.1553 90.763 15.5658 90.4893 15.9079L82.2103 20.6974C81.7998 20.8343 81.3893 20.9711 80.9787 20.9711ZM81.1156 9.40794C80.8419 9.40794 80.5682 9.54478 80.2945 9.68162L72.0156 14.4711C71.8787 14.6079 71.7419 14.7448 71.7419 14.8816C71.7419 15.0185 71.7419 15.1553 72.0156 15.2921L80.1577 20.0816C80.705 20.3553 81.4577 20.3553 81.8682 20.0816L90.1472 15.2921C90.284 15.1553 90.4208 15.0185 90.4208 14.8816C90.4208 14.7448 90.4208 14.6079 90.1472 14.4711L82.0051 9.68162C81.663 9.40794 81.3893 9.40794 81.1156 9.40794Z" fill="#150035"/>
<path d="M89.9421 10.5026C89.9421 10.5026 89.9421 6.53422 89.9421 6.26053L81.1842 7.08158L80.3631 2.29211C80.3631 2.29211 80.3631 2.29211 80.2263 2.29211L72.221 6.94474L70.6473 6.53422H70.5105C70.5105 6.94475 70.5105 10.6395 70.5105 10.6395C70.5105 10.9132 70.6473 11.1868 70.921 11.3237L79.0631 15.9763C79.7473 16.3868 80.6368 16.3868 81.321 15.9763L89.4631 11.1868C89.8052 11.1184 89.9421 10.7763 89.9421 10.5026Z" fill="#39A1FF"/>
<path d="M80.0893 16.7289C79.6788 16.7289 79.2683 16.5921 78.7893 16.3184L70.6472 11.6658C70.3735 11.5289 70.0999 11.1184 70.0999 10.7079C70.0999 10.7079 70.0999 10.7079 70.0999 7.56051V6.39735C70.0999 6.26051 70.0999 6.12367 70.2367 5.98682C70.3735 5.84998 70.5104 5.84998 70.6472 5.84998L72.0841 6.26051L79.9525 1.74472C80.0893 1.60788 80.2262 1.60788 80.363 1.74472L80.4999 1.88156L81.1841 6.53419L89.6683 5.84998C89.8051 5.84998 89.942 6.12367 89.942 6.26051V10.5026C89.942 10.9131 89.6683 11.3237 89.3946 11.4605L81.2525 16.25C81.1156 16.5921 80.6367 16.7289 80.0893 16.7289ZM70.9209 7.01314V7.69735C70.9209 8.86051 70.9209 10.5026 70.9209 10.6395C70.9209 10.7763 70.9209 10.9131 71.1946 10.9131L79.3367 15.5658C79.8841 15.8395 80.6367 15.8395 81.1841 15.5658L89.3262 10.7763C89.463 10.6395 89.5999 10.5026 89.5999 10.3658H90.0104H89.5999C89.5999 10.3658 89.5999 7.56051 89.5999 6.53419L81.1157 7.2184H80.9788L80.842 7.08156L80.1577 2.56577L72.4262 7.08156H72.1525L70.9209 7.01314Z" fill="#150035"/>
<path d="M89.8051 6.2605L81.0472 7.08155L80.0894 10.0237V16.3868C80.4999 16.3868 80.9104 16.25 81.1841 16.1131L89.3262 11.3237C89.5999 11.1868 89.7367 10.9131 89.7367 10.6394C89.942 10.5026 89.942 6.67102 89.8051 6.2605C89.942 6.2605 89.942 6.2605 89.8051 6.2605Z" fill="#150035"/>
<path d="M80.0892 16.7289H79.6787V9.95524L80.7735 6.53419L81.0471 6.67103L89.805 5.84998C89.9419 5.84998 90.0787 6.12366 90.0787 6.2605V10.5026C90.0787 10.9131 89.805 11.3237 89.5313 11.6658L81.3892 16.4552C81.1156 16.5921 80.6366 16.7289 80.0892 16.7289ZM80.4998 10.0921V15.9079C80.6366 15.9079 80.9103 15.771 81.0471 15.6342L89.1892 10.8447C89.3261 10.7079 89.4629 10.571 89.4629 10.4342C89.4629 10.4342 89.4629 7.62892 89.4629 6.60261L81.3208 7.28682L80.4998 10.0921Z" fill="#150035"/>
<path d="M71.8105 7.56056C71.8105 7.56056 71.9473 7.28687 72.0842 6.87635L70.6473 6.46582H70.5105C70.5105 6.87635 70.5105 10.5711 70.5105 10.5711C70.5105 10.8448 70.6473 11.1185 70.921 11.2553L71.7421 11.6658V9.40792V7.56056H71.8105Z" fill="#150035"/>
<path d="M72.0841 12.4868L70.6472 11.6658C70.3735 11.5289 70.0999 11.1184 70.0999 10.7079C70.0999 10.7079 70.0999 10.7079 70.0999 7.5605V6.39734C70.0999 6.2605 70.0999 6.12366 70.2367 5.98682C70.3735 5.84997 70.5104 5.84998 70.6472 5.84998L72.4946 6.39734L72.3577 6.80787C72.2209 7.08156 72.2209 7.35524 72.0841 7.49208V12.4868V12.4868ZM70.9209 6.80787V7.49208C70.9209 8.65524 70.9209 10.2973 70.9209 10.4342C70.9209 10.571 70.9209 10.7079 71.1946 10.7079L71.4683 10.8447V7.28682C71.4683 7.28682 71.4683 7.14997 71.6051 7.01313L70.9209 6.80787Z" fill="#150035"/>
<path d="M79.1315 11.8027L70.9894 7.01321C70.442 6.73953 70.442 5.85006 70.9894 5.43953L79.2683 0.650058C79.9525 0.239532 80.842 0.239532 81.3894 0.650058L89.5315 5.43953C90.0789 5.71321 90.0789 6.60269 89.5315 7.01321L81.2525 11.8027C80.4999 12.2132 79.6789 12.2132 79.1315 11.8027Z" fill="white"/>
<path d="M80.0893 12.4868C79.6788 12.4868 79.2683 12.35 78.7893 12.2132L70.6472 7.42368C70.2367 7.15 70.0999 6.73947 70.0999 6.26053C70.0999 5.85 70.3735 5.43947 70.6472 5.09737L78.9262 0.307895C79.7472 -0.102632 80.7735 -0.102632 81.4578 0.307895L89.5999 5.09737C90.0104 5.37105 90.1472 5.78158 90.1472 6.26053C90.1472 6.67105 89.8735 7.08158 89.5999 7.42368L81.3209 12.2132C81.1156 12.35 80.6367 12.4868 80.0893 12.4868ZM80.2262 0.923685C79.9525 0.923685 79.6788 1.06053 79.4051 1.19737L71.1262 5.98684C70.9893 6.12368 70.8525 6.26053 70.8525 6.39737C70.8525 6.53421 70.8525 6.67106 71.1262 6.8079L79.2683 11.5974C79.8156 11.8711 80.5683 11.8711 80.9788 11.5974L89.2578 6.8079C89.3946 6.67106 89.5314 6.53421 89.5314 6.39737C89.5314 6.26053 89.5314 6.12368 89.2578 5.98684L81.1156 1.19737C80.9788 1.06053 80.4998 0.923685 80.2262 0.923685Z" fill="#150035"/>
<path d="M78.1052 3.59213L83.4421 6.73949L88.6421 3.79739L83.4421 0.650024L78.1052 3.59213Z" fill="white"/>
<path d="M83.5104 7.14997L77.4209 3.59207L83.6472 0.0341797L89.7367 3.59207L83.5104 7.14997ZM78.9946 3.59207L83.5104 6.12365L88.0262 3.59207L83.5104 0.923653L78.9946 3.59207Z" fill="#150035"/>
<path d="M146.321 68.5922C146.321 68.5922 146.321 66.7448 146.321 66.3343C146.321 66.3343 146.321 66.3343 146.321 66.1974L131.268 70.1658L135.51 61.6816C135.51 61.6816 135.51 61.6816 135.373 61.6816L121.142 69.8922L119.431 69.4816C119.431 69.4816 119.294 69.4816 119.294 69.6185C119.294 70.029 119.294 71.7395 119.294 71.7395C119.294 72.0132 119.431 72.2869 119.705 72.4237L128.873 77.829C129.694 78.2395 130.584 78.2395 131.405 77.829L145.773 69.4816C146.184 69.1395 146.321 68.8659 146.321 68.5922Z" fill="#39A1FF"/>
<path d="M130.105 78.5131C129.558 78.5131 129.147 78.3763 128.668 78.1026L119.5 72.6973C119.089 72.4237 118.953 72.15 118.816 71.7394C118.816 71.7394 118.816 71.6026 118.816 69.7552V69.55C118.816 69.4131 118.816 69.2763 118.953 69.1394C119.089 69.0026 119.226 69.0026 119.363 69.0026L120.937 69.4131L135.031 61.2026C135.168 61.0658 135.305 61.0658 135.442 61.2026L135.716 61.3394L131.61 69.4131L145.842 65.7184H145.979C146.116 65.7184 146.389 65.9921 146.389 66.1289V66.6763C146.389 67.3605 146.389 68.3868 146.389 68.3868C146.389 68.7973 146.116 69.2079 145.705 69.55L131.337 77.8973C131.063 78.3763 130.653 78.5131 130.105 78.5131ZM119.705 70.0289C119.705 70.5763 119.705 71.6026 119.705 71.7394C119.705 71.8763 119.705 72.0131 119.979 72.15L129.147 77.5552C129.831 77.9658 130.584 77.9658 131.268 77.5552L145.637 69.2079C145.774 69.071 145.91 68.9342 145.91 68.7973H146.321H145.91C145.91 68.7973 145.91 67.8394 145.91 67.0868V66.95L131.268 70.7816L130.995 70.6447L130.721 70.5079L134.689 62.8447L121.347 70.4394C121.21 70.4394 121.074 70.5763 120.937 70.4394L119.705 70.0289Z" fill="#150035"/>
<path d="M146.184 66.3342L131.132 70.3026L130.037 73.7237V78.2395C130.447 78.2395 130.995 78.1026 131.337 77.9658L145.705 69.6184C145.979 69.4816 146.116 69.2079 146.116 68.7974C146.321 68.5921 146.321 66.7448 146.184 66.3342C146.321 66.3342 146.321 66.3342 146.184 66.3342Z" fill="#150035"/>
<path d="M130.105 78.5131H129.695V73.3815L130.995 69.55L131.268 69.6868L146.184 65.8552H146.321C146.458 65.8552 146.731 66.1289 146.731 66.2657V66.8131C146.731 67.4973 146.731 68.5236 146.731 68.5236C146.731 69.071 146.458 69.4815 146.047 69.6868L131.679 78.0342C131.063 78.3763 130.652 78.5131 130.105 78.5131ZM130.379 73.5184V77.6236C130.652 77.6236 130.926 77.4868 131.063 77.3499L145.431 69.0026C145.568 68.8657 145.705 68.7289 145.705 68.5921C145.705 68.5921 145.705 67.6342 145.705 66.8815V66.7447L131.337 70.4394L130.379 73.5184Z" fill="#150035"/>
<path d="M120.663 70.7131C120.663 70.7131 120.8 70.3026 120.937 69.8921L119.363 69.4816C119.363 69.4816 119.226 69.4816 119.226 69.6184C119.226 70.0289 119.226 71.7395 119.226 71.7395C119.226 72.0131 119.363 72.2868 119.637 72.4237L120.594 72.971V70.7131H120.663Z" fill="#150035"/>
<path d="M121.074 73.6553L119.5 72.8342C119.089 72.5605 118.953 72.2868 118.816 71.8763C118.816 71.8763 118.816 71.7395 118.816 69.8921V69.7553C118.816 69.6184 118.816 69.4816 118.953 69.3447C119.089 69.2079 119.226 69.2079 119.363 69.2079L121.347 69.7553L121.21 70.1658C121.074 70.5763 120.937 70.85 120.937 70.85V73.6553H121.074V73.6553ZM119.705 69.8237C119.705 70.371 119.705 71.3974 119.705 71.5342C119.705 71.671 119.705 71.8079 119.979 71.9447L120.253 72.0816V70.371C120.253 70.371 120.253 70.2342 120.389 69.9605L119.705 69.8237Z" fill="#150035"/>
<path d="M128.805 75.5026L119.637 70.0974C118.952 69.6868 118.952 68.7974 119.637 68.3868L134.142 60.0395C134.826 59.6289 135.853 59.6289 136.537 60.0395L145.705 65.4447C146.389 65.8552 146.389 66.7447 145.705 67.1552L131.337 75.5026C130.516 75.9131 129.695 75.9131 128.805 75.5026Z" fill="white"/>
<path d="M130.105 76.2552C129.695 76.2552 129.147 76.1184 128.668 75.8447L119.5 70.4394C119.089 70.1658 118.816 69.7552 118.816 69.2763C118.816 68.7289 119.089 68.3184 119.5 68.1131L134.005 59.7658C134.826 59.2184 135.989 59.2184 136.81 59.7658L145.979 65.171C146.389 65.4447 146.663 65.8552 146.663 66.3342C146.663 66.8815 146.389 67.2921 145.979 67.4973L131.474 75.8447C131.063 76.1184 130.516 76.2552 130.105 76.2552ZM135.442 60.2447C135.168 60.2447 134.758 60.3815 134.484 60.5184L119.979 68.8658C119.842 69.0026 119.705 69.1394 119.705 69.4131C119.705 69.55 119.842 69.8237 119.979 69.9605L129.147 75.3658C129.695 75.7763 130.584 75.7763 131.131 75.3658L145.637 67.0184C145.774 66.8815 145.91 66.7447 145.91 66.471C145.91 66.3342 145.774 66.0605 145.637 65.9236L136.468 60.5184C136.126 60.2447 135.716 60.2447 135.442 60.2447Z" fill="#150035"/>
<path d="M136.126 54.9764L133.184 53.129C133.047 52.9922 132.91 52.9922 132.774 53.129L129.831 54.9764C129.695 54.9764 129.695 55.1132 129.831 55.1132L132.637 60.0395C132.637 60.0395 132.637 60.0395 132.637 60.1764V60.7237C132.637 61.2711 132.91 61.8869 133.321 62.0237L130.652 60.5869L133.458 65.5132C133.458 65.6501 133.595 65.6501 133.595 65.5132L136.537 63.6658C136.674 63.529 136.81 63.3922 136.81 63.1185V56.0711C136.879 55.729 136.605 55.1132 136.126 54.9764Z" fill="white"/>
<path d="M133.458 66.0606H133.321C133.184 66.0606 133.047 65.9237 133.047 65.7869L130.242 60.8606C130.242 60.8606 130.242 60.8606 130.379 60.9974L130.789 60.3132L132.226 60.9974C132.226 60.8606 132.226 60.8606 132.226 60.7237V60.3132L129.421 55.3869C129.284 55.1132 129.421 54.8395 129.558 54.7027L132.5 52.8553C132.774 52.7185 133.047 52.7185 133.321 52.8553L136.263 54.7027C136.81 54.9764 137.084 55.6606 137.084 56.4132V63.4606C137.084 63.8711 136.947 64.1448 136.674 64.2816L133.731 66.129C133.731 66.0606 133.595 66.0606 133.458 66.0606ZM131.679 61.6132L133.663 65.1711L136.468 63.4606C136.468 63.4606 136.468 63.4606 136.468 63.3237V56.2764C136.468 55.8658 136.195 55.4553 136.058 55.3185L133.116 53.4711L130.31 55.1816L132.979 59.9711C132.979 60.1079 133.116 60.1079 133.116 60.2448V60.7922C133.116 61.2027 133.389 61.6132 133.526 61.7501L133.116 62.4343L131.679 61.6132Z" fill="#150035"/>
<path d="M130.379 59.4921C130.379 59.4921 131.474 53.1289 132.5 58.5342L130.379 60.5184C130.379 60.5184 130.379 60.5184 130.516 60.6552L133.321 65.5816C133.321 65.7184 133.458 65.7184 133.595 65.7184L136.537 64.0079C136.674 63.871 136.81 63.7342 136.81 63.4605V56.55L133.732 58.3973L130.379 59.4921Z" fill="#150035"/>
<path d="M133.595 66.0605H133.458C133.321 66.0605 133.184 65.9237 133.047 65.7869L130.242 60.9974L129.968 60.7237L130.242 60.3132L130.652 59.9026L129.968 60.1763L130.105 59.4921C130.516 57.2342 131.063 55.9342 131.679 55.9342C132.226 55.9342 132.5 56.4816 132.979 58.0553L133.526 57.7816L136.742 55.7974L137.016 55.9342C137.152 56.0711 137.289 56.2079 137.289 56.3447V63.2553C137.289 63.6658 137.152 63.9395 136.879 64.0763L133.937 65.9237C133.8 66.0605 133.595 66.0605 133.595 66.0605ZM131.063 60.6553L133.595 65.1711L136.4 63.4605C136.4 63.4605 136.4 63.4605 136.4 63.3237V56.9605L133.868 58.5342L132.774 58.9447L131.063 60.6553ZM131.679 56.8237C131.542 57.0974 131.268 57.9868 130.995 58.8079L132.089 58.2605C131.952 57.3711 131.816 56.9605 131.679 56.8237Z" fill="#150035"/>
<path d="M133.047 65.7185L130.105 63.8711C129.695 63.5974 129.421 63.0501 129.421 62.5711V55.5237C129.421 54.9764 129.695 54.8395 130.105 54.9764L133.047 56.8237C133.458 57.0974 133.731 57.6448 133.731 58.1237V65.1711C133.595 65.7185 133.321 65.9237 133.047 65.7185Z" fill="#39A1FF"/>
<path d="M133.184 66.1974C133.047 66.1974 132.911 66.1974 132.774 66.0606L129.832 64.2132C129.421 63.9395 129.01 63.2553 129.01 62.5027V55.4553C129.01 55.0448 129.147 54.7711 129.421 54.6342C129.695 54.4974 129.968 54.4974 130.242 54.6342L133.184 56.4816C133.595 56.7553 134.005 57.4395 134.005 58.1921V65.2395C134.005 65.65 133.868 65.9237 133.595 66.0606C133.458 66.1974 133.321 66.1974 133.184 66.1974ZM133.184 65.3079C133.184 65.3079 133.321 65.3079 133.321 65.1711V58.1237C133.321 57.7132 133.047 57.3027 132.911 57.1658L129.968 55.3185C129.968 55.3185 129.968 55.3185 129.968 55.4553V62.5027C129.968 62.9132 130.242 63.3237 130.379 63.4606L133.184 65.3079Z" fill="#150035"/>
<path d="M134.963 54.0184L131.952 55.8658L132.431 56.6185L135.442 54.7711L134.963 54.0184Z" fill="#150035"/>
<path d="M136.468 59.9026L133.8 61.4763L134.073 61.9552L136.742 60.3815L136.468 59.9026Z" fill="#39A1FF"/>
<path d="M107.732 43.55C107.732 43.55 107.732 40.7448 107.732 40.6079L101.505 41.1553L100.958 37.5974L95.2104 40.8816L94.1157 40.6079C94.1157 40.8816 94.1157 43.55 94.1157 43.55C94.1157 43.6869 94.2526 43.9606 94.3894 43.9606L100.137 47.3816C100.684 47.6553 101.231 47.6553 101.71 47.3816L107.595 43.9606C107.595 43.9606 107.732 43.8237 107.732 43.55Z" fill="#39A1FF"/>
<path d="M100.684 48.0658C100.41 48.0658 99.9998 47.929 99.7261 47.7922L93.9788 44.3711C93.7051 44.2343 93.5682 43.9606 93.4314 43.6869C93.4314 43.6869 93.4314 43.6869 93.4314 41.429V40.4711L93.5682 40.3343C93.7051 40.1974 93.8419 40.1974 93.9788 40.1974L94.9366 40.4711L100.684 37.05L101.095 37.1869L101.642 40.4711L107.526 39.9237C107.663 39.9237 107.8 40.1974 107.8 40.3343C107.8 40.3343 107.8 43.2764 107.8 43.4816C107.8 43.7553 107.663 44.029 107.252 44.3027L101.368 47.7237C101.368 48.0658 101.095 48.0658 100.684 48.0658ZM94.184 41.0869V41.4974C94.184 42.3185 94.184 43.6185 94.184 43.6185C94.184 43.6185 94.184 43.7553 94.3209 43.7553L100.068 47.1764C100.479 47.4501 100.889 47.4501 101.368 47.1764L107.252 43.7553C107.389 43.7553 107.389 43.6185 107.389 43.6185C107.389 43.4816 107.389 41.7711 107.389 40.95L101.505 41.4974H101.368L101.231 41.3606L100.684 38.2132L95.2103 41.3606H95.0735L94.184 41.0869Z" fill="#150035"/>
<path d="M107.731 40.4026L101.505 40.95L100.821 43.071V47.5868C101.094 47.5868 101.368 47.5868 101.642 47.45L107.526 44.0289C107.663 43.8921 107.8 43.7552 107.8 43.4815C107.731 43.55 107.731 40.6763 107.731 40.4026C107.731 40.4026 107.731 40.5394 107.731 40.4026Z" fill="#150035"/>
<path d="M100.684 48.0657H100.274V42.9342L101.095 40.4026L101.368 40.5394L107.595 39.9921C107.732 39.9921 107.868 40.2657 107.868 40.4026C107.868 40.4026 107.868 43.3447 107.868 43.55C107.868 43.9605 107.732 44.2342 107.321 44.371L101.437 47.7921C101.368 48.0657 101.095 48.0657 100.684 48.0657ZM101.095 43.2079V47.1763C101.232 47.1763 101.232 47.1763 101.368 47.0394L107.253 43.6184C107.389 43.6184 107.389 43.4815 107.389 43.4815C107.389 43.4815 107.389 41.6342 107.389 40.8131L101.779 41.3605L101.095 43.2079Z" fill="#150035"/>
<path d="M94.7315 41.3605C94.7315 41.3605 94.8683 41.0868 94.8683 40.8131L93.9104 40.5394C93.9104 40.8131 93.9104 43.4815 93.9104 43.4815C93.9104 43.6184 94.0472 43.8921 94.1841 43.8921L94.7315 44.1657V42.5921V41.3605Z" fill="#150035"/>
<path d="M95.0051 45.0553L93.9104 44.3711C93.6367 44.2342 93.4999 43.9605 93.363 43.6869C93.363 43.6869 93.363 43.6869 93.363 41.429V40.4711L93.4999 40.3342C93.6367 40.1974 93.7736 40.1974 93.9104 40.1974L95.3472 40.6079L95.2104 41.0184C95.0735 41.1553 95.0736 41.429 95.0736 41.429V45.0553H95.0051ZM94.1841 41.0869V41.4974C94.1841 42.3184 94.1841 43.6184 94.1841 43.6184C94.1841 43.6184 94.1841 43.7553 94.3209 43.7553V41.3605C94.3209 41.3605 94.3209 41.3605 94.3209 41.2237L94.1841 41.0869Z" fill="#150035"/>
<path d="M99.9313 44.5079L94.1839 41.0868C93.7733 40.8132 93.7733 40.2658 94.1839 39.9237L100.068 36.5026C100.479 36.2289 101.163 36.2289 101.642 36.5026L107.389 39.9237C107.8 40.1974 107.8 40.7447 107.389 41.0868L101.505 44.5079C100.958 44.7816 100.41 44.7816 99.9313 44.5079Z" fill="white"/>
<path d="M100.684 45.0553C100.41 45.0553 99.9998 44.9185 99.7261 44.7816L93.9788 41.3606C93.7051 41.2237 93.4314 40.8132 93.4314 40.5395C93.4314 40.129 93.5682 39.8553 93.9788 39.7185L99.863 36.2974C100.41 36.0237 101.3 36.0237 101.847 36.2974L107.595 39.7185C107.868 39.8553 108.142 40.2658 108.142 40.5395C108.142 40.9501 108.005 41.2237 107.595 41.3606L101.71 44.7816C101.368 44.9185 101.095 45.0553 100.684 45.0553ZM100.821 36.708C100.684 36.708 100.41 36.7079 100.273 36.8448L94.3893 40.2658C94.2524 40.2658 94.2524 40.4027 94.2524 40.4027C94.2524 40.4027 94.2524 40.5395 94.3893 40.5395L100.137 43.9606C100.547 44.0974 100.958 44.0974 101.231 43.9606L107.116 40.5395C107.252 40.5395 107.252 40.4027 107.252 40.4027C107.252 40.4027 107.252 40.2658 107.116 40.2658L101.368 36.8448C101.231 36.8448 100.958 36.708 100.821 36.708Z" fill="#150035"/>
<path d="M97.7052 236.358L91.6157 239.437L92.4368 240.668L98.5263 237.589L97.7052 236.358Z" fill="#150035"/>
<path d="M126.031 262.084L119.942 265.163L120.763 266.395L126.852 263.316L126.031 262.084Z" fill="#150035"/>
<path d="M85.9367 232.8L79.8472 235.879L80.6682 237.111L86.7577 234.032L85.9367 232.8Z" fill="#150035"/>
<path d="M118.026 233.347C113.647 229.789 108.926 227.053 103.794 224.863L104.41 223.632C109.679 225.821 114.673 228.695 119.052 232.389L118.026 233.347Z" fill="#150035"/>
<path d="M100.989 223.837C96.4735 222.195 93.3945 221.853 93.3945 221.853L93.6682 220.416C93.8051 220.416 96.9524 220.826 101.674 222.537L100.989 223.837Z" fill="#150035"/>
<path d="M223.463 287.468C218.947 285.826 215.868 285.484 215.868 285.484L216.142 284.047C216.279 284.047 219.426 284.458 224.147 286.168L223.463 287.468Z" fill="#150035"/>
<path d="M178.5 153.5L58.5 95.5L60 158L178.5 219V153.5Z" stroke="#39A1FF" stroke-width="3" stroke-linecap="round" stroke-linejoin="round" stroke-dasharray="2 5"/>
<path d="M74.5 143.5V88L134 116.5V172.5L74.5 143.5Z" fill="#034EA2" stroke="white" stroke-width="3"/>
<path d="M74.5 136.5L88 128L95 140L118 129.5L133.5 154.5" stroke="white" stroke-width="3"/>
<path d="M94.1002 115.861C93.0478 117.369 90.3353 117.761 87.8752 116.044C85.4152 114.328 84.8473 111.647 85.8997 110.139C86.9521 108.631 89.6646 108.239 92.1246 109.955C94.5847 111.672 95.1526 114.353 94.1002 115.861Z" stroke="white" stroke-width="2"/>
<path d="M138.73 147.758C136.58 144.93 141.037 141.037 145.129 145.221C145.129 145.221 154.472 153.943 154.588 160.772C154.645 164.167 153.962 166.113 152.456 169.149C151.279 171.524 150.59 172.43 148.463 174.706C146.337 176.981 142.529 179.559 137.722 180.423C130.924 181.645 121 178 121 178L116.5 171L118.685 161.966L115.706 157.453C115.706 157.453 115.113 154.542 117.5 153.271C119.887 152 121.413 153.271 121.413 153.271C121.413 153.271 122.225 149.83 124.5 149C126.775 148.17 129.543 149.706 129.543 149.706C129.543 149.706 130 147.5 133.087 145.913C135.903 144.466 138.326 147.255 138.73 147.758Z" fill="#034EA2"/>
<path d="M125.5 172L118.685 161.966M118.685 161.966L115.706 157.453C115.706 157.453 115.113 154.542 117.5 153.271C119.887 152 121.413 153.271 121.413 153.271C121.413 153.271 122.225 149.83 124.5 149C126.775 148.17 129.543 149.706 129.543 149.706C129.543 149.706 130 147.5 133.087 145.913C136.174 144.326 138.79 147.833 138.79 147.833C136.5 145 141 141 145.129 145.221C145.129 145.221 154.472 153.943 154.588 160.772C154.645 164.167 153.962 166.113 152.456 169.149C151.279 171.524 150.59 172.43 148.463 174.706C146.337 176.981 142.529 179.559 137.722 180.423C130.924 181.645 121 178 121 178L116.5 171L118.685 161.966Z" stroke="white" stroke-width="3" stroke-linecap="round"/>
<path d="M121.413 153.271L129 164.5M129.543 149.706L135.5 158.5M138.79 147.833L142.5 153.271" stroke="white" stroke-width="3" stroke-linecap="round"/>
</svg>
