<svg width="85" height="69" viewBox="0 0 85 69" fill="none" xmlns="http://www.w3.org/2000/svg">
<g clip-path="url(#clip0)">
<path d="M85 63.476H0V63.6737H85V63.476Z" fill="#3F3D56"/>
<path d="M53.3307 29.6249C53.3307 29.6249 49.5181 32.6205 51.4244 33.3013C53.3307 33.9821 54.5561 30.8504 54.5561 30.8504L53.3307 29.6249Z" fill="#FFB8B8"/>
<path d="M53.4668 28.5356L52.6498 29.8972C52.6498 29.8972 54.0115 29.8972 54.2838 31.9397L55.3731 30.5781L53.4668 28.5356Z" fill="#CFCCE0"/>
<path d="M71.5766 59.581L71.7128 63.6659L70.0788 64.619L69.398 64.2106L69.5341 59.581H71.5766Z" fill="#FFB8B8"/>
<path d="M61.909 58.4917L62.1813 62.8489L58.3687 64.4829L58.6411 62.1681C58.6411 62.1681 59.7304 60.398 59.4581 58.4917H61.909Z" fill="#FFB8B8"/>
<path d="M67.764 25.6762C67.764 25.6762 69.9426 31.395 70.3511 34.9353C70.7596 38.4756 71.4404 47.8709 71.4404 47.8709L72.8021 59.9895L68.9895 60.5341L67.3555 48.2794L63.6791 36.1608L62.8621 48.2794L62.1813 59.3087L58.641 59.4448L58.3687 48.007L56.8709 33.4375L57.6879 26.4931L67.764 25.6762Z" fill="#2F2E41"/>
<path d="M69.8065 63.9382C69.8065 63.9382 70.0298 61.6513 71.6883 62.931L71.9851 62.7128L73.3468 65.7084C73.3468 65.7084 74.9807 68.0232 72.1213 68.2955C69.2618 68.5678 69.5342 65.7084 69.5342 65.7084L69.2618 64.4829L69.398 63.6804L69.8065 63.9382Z" fill="#2F2E41"/>
<path d="M61.909 61.2149C62.2441 61.4066 62.5219 61.6844 62.7134 62.0196C62.905 62.3548 63.0033 62.7352 62.9983 63.1212C62.9983 64.4829 62.8621 64.619 62.8621 64.619L60.8197 65.1637C60.8197 65.1637 59.458 65.0275 58.641 65.8445C57.8241 66.6615 53.7391 67.2061 53.7391 66.1168C53.7391 65.0275 57.1432 63.2574 57.1432 63.2574C57.1432 63.2574 58.1541 61.5502 58.8742 61.723C59.5942 61.8958 59.8665 62.1681 59.8665 62.3042C59.8665 62.4404 59.458 63.3936 59.458 63.3936C59.458 63.3936 61.7728 62.8489 61.909 61.2149Z" fill="#2F2E41"/>
<path d="M61.6366 8.92798C63.5167 8.92798 65.0407 7.40391 65.0407 5.52388C65.0407 3.64385 63.5167 2.11978 61.6366 2.11978C59.7566 2.11978 58.2325 3.64385 58.2325 5.52388C58.2325 7.40391 59.7566 8.92798 61.6366 8.92798Z" fill="#FFB8B8"/>
<path d="M64.1557 6.40895L65.6535 9.81305L61.5686 15.6681C61.5686 15.6681 61.2963 9.26839 60.4793 8.17908C59.6623 7.08977 64.1557 6.40895 64.1557 6.40895Z" fill="#FFB8B8"/>
<path d="M62.2494 13.4895L62.9303 11.7194L63.4748 11.8555L64.1557 11.3108L65.1088 8.31528L66.4705 9.2684L68.2406 27.1059L57.2114 27.3782L58.7092 14.9873L60.0708 11.4471L61.0537 10.1477L61.7047 12.1278L62.2494 13.4895Z" fill="#CFCCE0"/>
<path d="M65.3812 21.1147L65.7978 8.79755C65.7978 8.79755 66.6066 8.85991 66.879 9.2684C67.1513 9.6769 71.6447 10.4939 71.6447 10.4939L70.8277 23.1571C70.8277 23.1571 74.2318 33.2333 73.0064 33.7779C71.7809 34.3226 69.6023 34.1864 69.6023 34.1864L65.3812 21.1147Z" fill="#575A89"/>
<path d="M58.7772 19.5488L60.2217 11.2475L57.0071 13.4214L57.8241 19.4126L57.1432 23.4975C57.1432 23.4975 54.5561 34.7991 55.3731 35.2076C56.1901 35.6161 57.1432 35.2076 57.1432 35.2076L58.7772 23.7699V19.5488Z" fill="#575A89"/>
<path d="M57.9602 13.1491L57.0071 13.4214L56.5986 18.868L55.9177 23.6337L52.6498 29.4888C52.6498 29.4888 54.2838 28.3994 54.9646 31.5312L58.5636 25.2653L57.9602 13.1491Z" fill="#575A89"/>
<path d="M68.581 28.5356C68.581 28.5356 64.7684 31.5312 66.6747 32.212C68.581 32.8928 69.8065 29.7611 69.8065 29.7611L68.581 28.5356Z" fill="#FFB8B8"/>
<path d="M70.8958 30.0334L69.6703 31.5312L68.0363 28.6718L68.7171 27.4463L70.8958 30.0334Z" fill="#CFCCE0"/>
<path d="M70.6235 10.9705L71.7128 10.4258C71.7128 10.4258 72.5298 11.5151 72.6659 12.4683C72.8021 13.4214 73.4829 14.6469 73.4829 15.3277C73.4829 16.0085 75.3892 22.4082 75.3892 22.4082L71.032 31.2589C71.032 31.2589 70.0788 27.9909 68.0363 27.7186L71.4404 22.9529L69.5341 19.5488L70.6235 10.9705Z" fill="#575A89"/>
<path d="M64.4864 2.28051L65.1283 2.02352C65.1283 2.02352 63.7861 0.545841 61.9187 0.674341L62.4439 0.0961111C62.4439 0.0961111 61.1601 -0.417861 59.993 0.931322C59.3794 1.64056 58.6695 2.47423 58.227 3.41335H57.5396L57.8265 4.04511L56.8223 4.67687L57.853 4.56339C57.7916 4.90935 57.7821 5.26254 57.825 5.61128C57.8692 5.96013 58.0473 6.27815 58.3215 6.49824V6.49824C58.3215 6.49824 59.1176 4.85039 59.1176 4.5934V5.23587C59.1176 5.23587 59.7595 4.65765 59.7595 4.27217L60.1097 4.7219L60.2847 4.01517L62.4439 4.7219L62.0938 4.14367L63.436 4.33642L62.9108 3.62969C62.9108 3.62969 64.428 4.4649 64.4864 5.17162C64.5447 5.87834 64.9889 6.54799 64.9889 6.54799C64.9889 6.54799 66.1787 3.24421 64.4864 2.28051Z" fill="#2F2E41"/>
<path d="M64.428 5.4558C64.6386 5.4558 64.8093 5.24243 64.8093 4.97923C64.8093 4.71602 64.6386 4.50266 64.428 4.50266C64.2174 4.50266 64.0468 4.71602 64.0468 4.97923C64.0468 5.24243 64.2174 5.4558 64.428 5.4558Z" fill="#FFB8B8"/>
<path d="M15.756 28.0641H4.00171V24.7704H10.1373L15.756 28.0641Z" fill="#0B519D"/>
<path d="M3.96942 27.612V37.2351H42.1388V27.612H3.96942ZM18.8561 35.6205H6.45592V34.2642H18.8561V35.6205ZM39.6523 33.1017H6.45592V31.7454H39.6523V33.1017ZM39.6523 30.5829H6.45592V29.2266H39.6523V30.5829Z" fill="#3F3D56"/>
<path d="M15.756 12.4993H4.00171V9.20549H10.1373L15.756 12.4993Z" fill="#0B519D"/>
<path d="M3.96942 12.241V21.864H42.1388V12.241H3.96942ZM18.8561 20.2494H6.45592V18.8931H18.8561V20.2494ZM26.025 17.7306H6.45592V16.3744H26.025L26.025 17.7306ZM39.6523 15.2118H6.45592V13.8556H39.6523V15.2118Z" fill="#3F3D56"/>
<path d="M15.756 43.306H4.00171V40.0122H10.1373L15.756 43.306Z" fill="#0B519D"/>
<path d="M3.96942 42.6602V52.2832H42.1388V42.6602H3.96942ZM26.025 50.6686H6.45592V49.3123H26.025V50.6686ZM26.025 48.1498H6.45592V46.7936H26.025V48.1498ZM39.6523 45.631H6.45592V44.2748H39.6523V45.631Z" fill="#3F3D56"/>
<path d="M52.9566 19.7328H47.5315V14.3076H51.2129V14.4368H47.6607V19.6036H52.8275V17.0202H52.9566V19.7328Z" fill="#3F3D56"/>
<path d="M50.2161 18.3177C50.0908 17.9475 48.5186 16.6892 49.482 16.4777L50.272 17.5311L53.9042 13.899L54.2695 14.2643L50.2161 18.3177Z" fill="#0B519D"/>
<path d="M52.9566 35.1038H47.5315V29.6787H51.2129V29.8079H47.6607V34.9747H52.8275V32.3912H52.9566V35.1038Z" fill="#3F3D56"/>
<path d="M50.2161 33.6888C50.0908 33.3186 48.5186 32.0602 49.482 31.8487L50.272 32.9021L53.9042 29.27L54.2695 29.6353L50.2161 33.6888Z" fill="#0B519D"/>
<path d="M52.9566 50.4103H47.5315V44.9852H51.2129V45.1144H47.6607V50.2811H52.8275V47.6977H52.9566V50.4103Z" fill="#3F3D56"/>
<path d="M50.2161 48.9952C50.0908 48.6251 48.5186 47.3667 49.482 47.1552L50.272 48.2086L53.9042 44.5765L54.2695 44.9418L50.2161 48.9952Z" fill="#0B519D"/>
</g>
<defs>
<clipPath id="clip0">
<rect width="85" height="68.3138" fill="white"/>
</clipPath>
</defs>
</svg>
