<svg width="107" height="26" viewBox="0 0 107 26" fill="none" xmlns="http://www.w3.org/2000/svg">
<path d="M22.4548 9.66723C21.4563 6.28597 18.7671 3.61954 15.3632 2.65508C15.2611 1.18004 14.0243 0 12.5152 0C10.9948 0 9.758 1.18004 9.66723 2.67778C6.30866 3.65358 3.65358 6.30866 2.65508 9.65588C1.18004 9.758 0 10.9948 0 12.5039C0 13.9903 1.146 15.227 2.6097 15.3518C3.56281 18.7785 6.26328 21.4903 9.67858 22.4888C9.83743 23.9071 11.0515 25.0191 12.5152 25.0191C13.9676 25.0191 15.1703 23.9298 15.3518 22.5115C18.8125 21.5357 21.5357 18.8012 22.5001 15.3518C23.9185 15.193 25.0304 13.9789 25.0304 12.5152C25.0304 11.0288 23.8958 9.80339 22.4548 9.66723ZM12.5152 1.27081C13.3889 1.27081 14.1037 1.98564 14.1037 2.85932C14.1037 3.733 13.3889 4.44783 12.5152 4.44783C11.6415 4.44783 10.9267 3.733 10.9267 2.85932C10.9267 1.98564 11.6415 1.27081 12.5152 1.27081ZM1.27081 12.5039C1.27081 11.6302 1.98564 10.9153 2.85932 10.9153C3.733 10.9153 4.44783 11.6302 4.44783 12.5039C4.44783 13.3775 3.733 14.0924 2.85932 14.0924C1.98564 14.0924 1.27081 13.3775 1.27081 12.5039ZM12.5152 23.7369C11.6415 23.7369 10.9267 23.0221 10.9267 22.1484C10.9267 21.2747 11.6415 20.5599 12.5152 20.5599C13.3889 20.5599 14.1037 21.2747 14.1037 22.1484C14.1037 23.0221 13.3889 23.7369 12.5152 23.7369ZM15.2157 21.218C14.8299 20.0947 13.7633 19.2891 12.5152 19.2891C11.2784 19.2891 10.2119 20.0833 9.82608 21.1953C6.98945 20.2989 4.74284 18.0296 3.89186 15.1703C4.95843 14.7618 5.71864 13.7179 5.71864 12.5039C5.71864 11.3011 4.96977 10.2799 3.92589 9.84877C4.82227 7.03484 7.04619 4.81092 9.87147 3.93724C10.3026 4.98112 11.3238 5.7073 12.5152 5.7073C13.7179 5.7073 14.7505 4.95843 15.1703 3.91455C18.0183 4.77688 20.2762 7.0008 21.1839 9.82608C20.0947 10.2346 19.3231 11.2784 19.3231 12.5039C19.3231 13.7406 20.1174 14.8072 21.2293 15.193C20.3443 18.0637 18.0863 20.333 15.2157 21.218ZM22.1711 14.0924C21.2974 14.0924 20.5826 13.3775 20.5826 12.5039C20.5826 11.6302 21.2974 10.9153 22.1711 10.9153C23.0448 10.9153 23.7596 11.6302 23.7596 12.5039C23.7596 13.3775 23.0448 14.0924 22.1711 14.0924Z" fill="#08519C"/>
<path d="M17.0652 11.7096C16.7134 11.7096 16.4184 11.9479 16.339 12.2656H14.7959C14.7505 11.7891 14.5576 11.3466 14.2626 10.9948L15.3632 9.8942C15.6469 10.0644 16.0213 10.019 16.2709 9.78074C16.5659 9.48573 16.5659 9.00917 16.2709 8.70282C15.9759 8.40781 15.4994 8.40781 15.193 8.70282C14.9434 8.95244 14.9093 9.31553 15.0795 9.61054L13.9789 10.7112C13.6272 10.4161 13.1847 10.2233 12.7081 10.1779V8.63474C13.0258 8.55531 13.2641 8.24896 13.2641 7.90856C13.2641 7.50009 12.9237 7.14835 12.5039 7.14835C12.0954 7.14835 11.7437 7.48874 11.7437 7.90856C11.7437 8.24896 11.9819 8.55531 12.2997 8.63474V10.1892C11.8231 10.2346 11.3806 10.4275 11.0288 10.7225L9.92823 9.62189C10.0984 9.33822 10.053 8.95244 9.81476 8.71416C9.51975 8.41916 9.0432 8.41916 8.73685 8.71416C8.44184 9.00917 8.44184 9.48573 8.73685 9.79208C8.98647 10.0417 9.34956 10.0757 9.64457 9.90555L10.7452 11.0062C10.4502 11.3579 10.2573 11.8004 10.2119 12.277H8.66877C8.58934 11.9593 8.28298 11.721 7.94259 11.721C7.53411 11.721 7.18237 12.0614 7.18237 12.4812C7.18237 12.8897 7.52277 13.2414 7.94259 13.2414C8.29433 13.2414 8.58934 13.0031 8.66877 12.6854H10.2232C10.2686 13.162 10.4615 13.6045 10.7565 13.9563L9.65591 15.0569C9.37225 14.8867 8.98647 14.9321 8.74819 15.1703C8.45318 15.4653 8.45318 15.9419 8.74819 16.2483C9.0432 16.5433 9.51975 16.5433 9.82611 16.2483C10.0757 15.9986 10.1098 15.6355 9.93958 15.3405L11.0402 14.2399C11.3919 14.5349 11.8344 14.7278 12.311 14.7732V16.3277C11.9933 16.4071 11.755 16.7135 11.755 17.0539C11.755 17.4623 12.0954 17.8141 12.5152 17.8141C12.9237 17.8141 13.2755 17.4737 13.2755 17.0539C13.2755 16.7135 13.0372 16.4071 12.7195 16.3277V14.7619C13.196 14.7165 13.6385 14.5236 13.9903 14.2286L15.0909 15.3292C14.9207 15.6128 14.9661 15.9986 15.2044 16.2369C15.4994 16.5319 15.9759 16.5319 16.2823 16.2369C16.5773 15.9419 16.5773 15.4653 16.2823 15.159C16.0327 14.9094 15.6696 14.8753 15.3746 15.0455L14.2739 13.9449C14.569 13.5932 14.7618 13.1507 14.8072 12.6741H16.3617C16.4411 12.9918 16.7475 13.2301 17.0879 13.2301C17.4964 13.2301 17.8481 12.8897 17.8481 12.4699C17.8481 12.05 17.4964 11.7096 17.0652 11.7096Z" fill="#FF8406"/>
<path d="M31 19V6.78366C31 6.38702 31.1322 6.05649 31.3966 5.79207C31.6875 5.5012 32.0312 5.35577 32.4279 5.35577H33.8161V19H31Z" fill="#08519C"/>
<path d="M36.4471 18.0481C35.8918 17.5721 35.4951 16.9375 35.2572 16.1442C35.0192 15.3245 34.9002 14.4784 34.9002 13.6058C34.9002 12.8918 34.9927 12.1779 35.1778 11.4639C35.3894 10.75 35.7067 10.1551 36.1298 9.67909C36.8173 8.88582 37.7031 8.42308 38.7872 8.29087C39.8713 8.13221 40.8497 8.21154 41.7223 8.52885C42.7271 8.92548 43.4675 9.61298 43.9435 10.5913C44.393 11.4639 44.6177 12.482 44.6177 13.6454C44.6177 14.4916 44.5252 15.2188 44.3401 15.8269C44.155 16.4351 43.917 16.9507 43.6262 17.3738C42.9915 18.2464 42.185 18.7885 41.2067 19C40.3341 19.238 39.4483 19.2512 38.5492 19.0397C37.6766 18.8546 36.9759 18.524 36.4471 18.0481ZM38.3509 11.0673C37.7956 11.6755 37.5444 12.5877 37.5973 13.8041C37.6502 14.994 37.875 15.8269 38.2716 16.3029C38.4302 16.5144 38.7079 16.6995 39.1045 16.8582C39.5012 16.9904 39.8978 17.0036 40.2944 16.8978C40.7175 16.7656 41.0877 16.4615 41.405 15.9856C41.7223 15.5096 41.8942 14.7428 41.9206 13.6851C41.9206 12.7332 41.762 12.0192 41.4447 11.5433C41.1538 11.0673 40.81 10.7632 40.4134 10.631C40.0168 10.4988 39.6201 10.4988 39.2235 10.631C38.8269 10.7368 38.536 10.8822 38.3509 11.0673Z" fill="#08519C"/>
<path d="M48.3028 19V7.77524H44.2571V6.78366C44.2571 6.38702 44.3893 6.05649 44.6538 5.79207C44.9446 5.5012 45.2884 5.35577 45.685 5.35577H55.1249V7.77524H51.1189V19H48.3028Z" fill="#08519C"/>
<path d="M55.8436 14.756H58.62C58.7258 15.5493 59.0299 16.1046 59.5323 16.4219C60.0612 16.7921 60.7883 16.9772 61.7138 16.9772C62.5335 16.9772 63.1549 16.8317 63.578 16.5409C64.0011 16.25 64.2126 15.8269 64.2126 15.2716C64.2126 14.4255 63.0227 13.738 60.6429 13.2091L60.5636 13.1695C60.5636 13.1695 60.4578 13.143 60.2463 13.0901C58.8977 12.7993 57.9987 12.4952 57.5491 12.1779C57.0203 11.887 56.6501 11.4639 56.4386 10.9087C56.1741 10.4327 56.0419 9.82452 56.0419 9.08414C56.0419 7.78846 56.4914 6.77044 57.3905 6.03005C58.2895 5.31611 59.5984 4.95914 61.3172 4.95914C62.9301 4.95914 64.1729 5.32933 65.0455 6.06971C65.9446 6.88943 66.4205 7.96034 66.4734 9.28245H64.8869C64.2787 9.28245 63.8424 9.00481 63.578 8.44952C63.4458 8.1851 63.2607 7.96034 63.0227 7.77524C62.5467 7.43149 61.8989 7.25962 61.0792 7.25962C60.2859 7.25962 59.7174 7.40505 59.3737 7.69592C58.977 7.98678 58.7787 8.39664 58.7787 8.92548C58.7787 9.63943 59.5455 10.1683 61.0792 10.512C61.5287 10.6442 61.8592 10.7236 62.0708 10.75C62.5467 10.9087 62.9566 11.0409 63.3003 11.1466C63.6705 11.226 63.9614 11.2921 64.1729 11.345C64.5431 11.5036 64.9133 11.6623 65.2835 11.8209C65.8124 12.1382 66.2222 12.5481 66.5131 13.0505C66.8039 13.6058 66.9494 14.2139 66.9494 14.875C66.9494 16.3029 66.4734 17.4135 65.5215 18.2067C64.5696 18.9471 63.221 19.3173 61.4758 19.3173C59.6777 19.3173 58.3292 18.9339 57.4301 18.1671C56.4518 17.4002 55.9229 16.2632 55.8436 14.756Z" fill="#08519C"/>
<path d="M75.0455 15.7476H77.0287C76.7378 16.8582 76.1825 17.7043 75.3628 18.2861C74.5431 18.8942 73.5118 19.1983 72.269 19.1983C70.7618 19.1983 69.5851 18.7091 68.739 17.7308C67.8928 16.7788 67.4698 15.4171 67.4698 13.6454C67.4698 11.9531 67.8796 10.631 68.6993 9.67909C69.5455 8.70072 70.7222 8.21154 72.2294 8.21154C73.8159 8.21154 75.0455 8.6875 75.9181 9.63943C76.7642 10.6178 77.1873 11.9796 77.1873 13.7248C77.1873 13.8305 77.1873 13.9231 77.1873 14.0024C77.1873 14.0817 77.1873 14.1346 77.1873 14.1611C77.1873 14.2933 77.1741 14.3858 77.1476 14.4387H70.2859C70.3123 15.2584 70.5106 15.8666 70.8808 16.2632C71.2246 16.6863 71.7402 16.8978 72.4277 16.8978C72.8772 16.8978 73.2606 16.8053 73.5779 16.6202C73.6573 16.5938 73.7234 16.5541 73.7762 16.5012C73.8556 16.4219 73.9349 16.3426 74.0142 16.2632C74.0407 16.1839 74.1332 16.0781 74.2919 15.9459C74.477 15.8137 74.7282 15.7476 75.0455 15.7476ZM70.2859 12.6538H74.3315C74.2787 11.9399 74.0936 11.4111 73.7762 11.0673C73.4325 10.6971 72.9433 10.512 72.3087 10.512C71.727 10.512 71.251 10.6971 70.8808 11.0673C70.5106 11.4375 70.3123 11.9663 70.2859 12.6538Z" fill="#08519C"/>
<path d="M87.0286 19H85.6404C85.2438 19 84.9132 18.881 84.6488 18.643C84.4108 18.3786 84.2918 18.0481 84.2918 17.6514V12.2572C84.2918 11.6226 84.0935 11.1599 83.6969 10.869C83.3267 10.5781 82.9036 10.4327 82.4277 10.4327C81.9517 10.4327 81.5286 10.5781 81.1584 10.869C80.7882 11.1599 80.6031 11.6226 80.6031 12.2572V19H77.8267V12.8125C77.8267 11.0144 78.2894 9.8113 79.2149 9.20313C80.1668 8.59495 81.2113 8.26443 82.3483 8.21154C83.5118 8.21154 84.5827 8.51563 85.5611 9.1238C86.5394 9.73197 87.0286 10.9615 87.0286 12.8125V19Z" fill="#08519C"/>
<path d="M87.43 15.5096H90.1271C90.1536 16.0385 90.3519 16.4351 90.7221 16.6995C91.1187 16.9639 91.6476 17.0962 92.3086 17.0962C92.7846 17.0962 93.1944 17.0036 93.5382 16.8185C93.8555 16.6334 94.0141 16.3822 94.0141 16.0649C94.0141 15.5889 93.4589 15.232 92.3483 14.994C91.8723 14.9147 91.5153 14.8353 91.2774 14.756C89.8759 14.4123 88.9372 14.0024 88.4613 13.5264C87.9324 13.0505 87.668 12.4159 87.668 11.6226C87.668 10.6178 88.0514 9.78486 88.8182 9.1238C89.6115 8.51563 90.6427 8.21154 91.912 8.21154C93.287 8.21154 94.3843 8.51563 95.204 9.1238C95.9709 9.78486 96.3807 10.6442 96.4336 11.7019H94.7281C94.2257 11.7019 93.8423 11.4772 93.5778 11.0276C93.4721 10.9219 93.3663 10.8161 93.2605 10.7103C92.9432 10.4724 92.5069 10.3534 91.9516 10.3534C91.4228 10.3534 91.0262 10.4327 90.7617 10.5913C90.5238 10.75 90.4048 10.988 90.4048 11.3053C90.4048 11.7284 91.0923 12.0853 92.4673 12.3762C92.6259 12.4291 92.7581 12.4688 92.8639 12.4952C92.9961 12.5216 93.1151 12.5349 93.2209 12.5349C94.5694 12.8786 95.5081 13.2752 96.037 13.7248C96.5394 14.2007 96.7906 14.8353 96.7906 15.6286C96.7906 16.7921 96.3675 17.6911 95.5213 18.3257C94.7281 18.9075 93.5382 19.1983 91.9516 19.1983C90.4444 19.1983 89.3206 18.8942 88.5802 18.2861C87.8134 17.6779 87.43 16.7921 87.43 15.6286V15.5096Z" fill="#08519C"/>
<path d="M104.768 15.7476H106.751C106.46 16.8582 105.905 17.7043 105.085 18.2861C104.265 18.8942 103.234 19.1983 101.991 19.1983C100.484 19.1983 99.3074 18.7091 98.4612 17.7308C97.6151 16.7788 97.192 15.4171 97.192 13.6454C97.192 11.9531 97.6018 10.631 98.4215 9.67909C99.2677 8.70072 100.444 8.21154 101.952 8.21154C103.538 8.21154 104.768 8.6875 105.64 9.63943C106.486 10.6178 106.91 11.9796 106.91 13.7248C106.91 13.8305 106.91 13.9231 106.91 14.0024C106.91 14.0817 106.91 14.1346 106.91 14.1611C106.91 14.2933 106.896 14.3858 106.87 14.4387H100.008C100.035 15.2584 100.233 15.8666 100.603 16.2632C100.947 16.6863 101.462 16.8978 102.15 16.8978C102.599 16.8978 102.983 16.8053 103.3 16.6202C103.379 16.5938 103.446 16.5541 103.498 16.5012C103.578 16.4219 103.657 16.3426 103.736 16.2632C103.763 16.1839 103.855 16.0781 104.014 15.9459C104.199 15.8137 104.45 15.7476 104.768 15.7476ZM100.008 12.6538H104.054C104.001 11.9399 103.816 11.4111 103.498 11.0673C103.155 10.6971 102.666 10.512 102.031 10.512C101.449 10.512 100.973 10.6971 100.603 11.0673C100.233 11.4375 100.035 11.9663 100.008 12.6538Z" fill="#08519C"/>
</svg>
