<svg width="91" height="91" viewBox="0 0 91 91" fill="none" xmlns="http://www.w3.org/2000/svg">
<g clip-path="url(#clip0)">
<path d="M9.22738 73.4257C10.9115 75.103 13.1934 76.0416 15.5703 76.0348H15.6148L42.82 75.881C46.0148 86.2548 56.4633 92.6008 67.1424 90.6521C77.8208 88.7026 85.3541 79.0751 84.6779 68.2406C84.0009 57.407 75.3278 48.7911 64.4896 48.1858L64.3419 21.2331L64.3404 20.9014C64.3388 20.5939 64.2152 20.2991 63.9966 20.0828L44.0541 0.373159C43.8641 0.185449 43.6153 0.068601 43.35 0.0437236L42.9353 0.00527701C42.8961 0.00150771 42.8577 0 42.8192 0L15.2484 0.132679C10.2707 0.156802 6.25568 4.21105 6.27829 9.18876L6.55647 67.0646C6.56174 69.4566 7.52367 71.7468 9.22738 73.4257V73.4257ZM82.4035 69.5735C82.4035 80.1252 73.8495 88.6792 63.2978 88.6792C52.746 88.6792 44.192 80.1252 44.192 69.5735C44.192 59.0217 52.746 50.4677 63.2978 50.4677C73.8442 50.4798 82.3915 59.027 82.4035 69.5735ZM60.4188 19.8031L51.1441 19.8483C47.4449 19.8656 44.4317 16.8811 44.4144 13.1819L44.3699 3.94116L60.4188 19.8031ZM10.5338 4.43193C11.7807 3.16545 13.4829 2.45079 15.2605 2.44702L42.0458 2.31886L42.0986 13.1933C42.1219 18.1544 46.1498 22.1634 51.1109 22.1642H51.1554L62.0305 22.1121L62.1738 48.1813C55.9989 48.5084 50.2658 51.4869 46.4483 56.3516C42.63 61.2162 41.0997 67.4921 42.2501 73.5682L15.6027 73.7189H15.5696C11.8832 73.7182 8.89116 70.7397 8.87307 67.0533L8.59414 9.17746C8.58133 7.39986 9.2794 5.69162 10.5338 4.43193V4.43193Z" fill="#C3C4C7"/>
<path d="M38.1918 42.7505H34.265C33.6257 42.7505 33.1071 43.2684 33.1071 43.9084C33.1071 44.5477 33.6257 45.0663 34.265 45.0663H38.1918C38.8311 45.0663 39.3497 44.5477 39.3497 43.9084C39.3497 43.2684 38.8311 42.7505 38.1918 42.7505Z" fill="#C3C4C7"/>
<path d="M19.1261 35.2458H51.7296C52.3697 35.2458 52.8876 34.7279 52.8876 34.0879C52.8876 33.4486 52.3697 32.9299 51.7296 32.9299H19.1261C18.4868 32.9299 17.9681 33.4486 17.9681 34.0879C17.9681 34.7279 18.4868 35.2458 19.1261 35.2458Z" fill="#C3C4C7"/>
<path d="M19.1261 45.0663H29.2888C29.9281 45.0663 30.4467 44.5477 30.4467 43.9084C30.4467 43.2684 29.9281 42.7505 29.2888 42.7505H19.1261C18.4868 42.7505 17.9681 43.2684 17.9681 43.9084C17.9681 44.5477 18.4868 45.0663 19.1261 45.0663Z" fill="#C3C4C7"/>
<path d="M70.798 67.7896H64.4462V61.3688C64.4462 60.6612 63.8792 60.0872 63.1784 60.0872C62.4784 60.0872 61.9105 60.6612 61.9105 61.3688V67.7896H55.5588C54.8588 67.7896 54.2909 68.3628 54.2909 69.0712C54.2909 69.7788 54.8588 70.3529 55.5588 70.3529H61.9105V76.7737C61.9105 77.4812 62.4784 78.0553 63.1784 78.0553C63.8792 78.0553 64.4462 77.4812 64.4462 76.7737V70.3529H70.798C71.4979 70.3529 72.0658 69.7788 72.0658 69.0712C72.0658 68.3628 71.4979 67.7896 70.798 67.7896V67.7896Z" fill="#C3C4C7"/>
</g>
<defs>
<clipPath id="clip0">
<rect width="91" height="91" fill="white"/>
</clipPath>
</defs>
</svg>
