<svg width="91" height="91" viewBox="0 0 91 91" fill="none" xmlns="http://www.w3.org/2000/svg">
<g opacity="0.2">
<g clip-path="url(#clip0)">
<path d="M9.22738 73.4257C10.9115 75.103 13.1934 76.0416 15.5703 76.0348H15.6148L42.82 75.881C46.0149 86.2548 56.4633 92.6008 67.1425 90.6521C77.8208 88.7026 85.3541 79.0751 84.6779 68.2406C84.001 57.407 75.3278 48.7911 64.4896 48.1858L64.3419 21.2331L64.3404 20.9014C64.3389 20.5939 64.2152 20.2991 63.9966 20.0828L44.0541 0.373159C43.8641 0.185449 43.6153 0.068601 43.35 0.0437236L42.9353 0.00527701C42.8961 0.00150771 42.8577 0 42.8193 0L15.2484 0.132679C10.2707 0.156802 6.25568 4.21105 6.27829 9.18876L6.55647 67.0646C6.56174 69.4566 7.52367 71.7468 9.22738 73.4257V73.4257ZM82.4035 69.5735C82.4035 80.1252 73.8495 88.6792 63.2978 88.6792C52.746 88.6792 44.192 80.1252 44.192 69.5735C44.192 59.0217 52.746 50.4677 63.2978 50.4677C73.8442 50.4798 82.3915 59.027 82.4035 69.5735ZM60.4188 19.8031L51.1441 19.8483C47.4449 19.8656 44.4318 16.8811 44.4144 13.1819L44.3699 3.94116L60.4188 19.8031ZM10.5338 4.43193C11.7807 3.16545 13.4829 2.45079 15.2605 2.44702L42.0458 2.31886L42.0986 13.1933C42.1219 18.1544 46.1498 22.1634 51.1109 22.1642H51.1554L62.0306 22.1121L62.1738 48.1813C55.9989 48.5084 50.2659 51.4869 46.4483 56.3516C42.63 61.2162 41.0997 67.4921 42.2501 73.5682L15.6028 73.7189H15.5696C11.8832 73.7182 8.89116 70.7397 8.87307 67.0533L8.59414 9.17746C8.58133 7.39986 9.2794 5.69162 10.5338 4.43193V4.43193Z" fill="#3B4052"/>
<path d="M38.183 42.7505H34.2562C33.6169 42.7505 33.0983 43.2684 33.0983 43.9084C33.0983 44.5477 33.6169 45.0663 34.2562 45.0663H38.183C38.8223 45.0663 39.341 44.5477 39.341 43.9084C39.341 43.2684 38.8223 42.7505 38.183 42.7505Z" fill="#3B4052"/>
<path d="M19.1173 35.2458H51.7208C52.3609 35.2458 52.8788 34.7279 52.8788 34.0879C52.8788 33.4486 52.3609 32.9299 51.7208 32.9299H19.1173C18.478 32.9299 17.9594 33.4486 17.9594 34.0879C17.9594 34.7279 18.478 35.2458 19.1173 35.2458Z" fill="#3B4052"/>
<path d="M19.1173 45.0663H29.28C29.9193 45.0663 30.4379 44.5477 30.4379 43.9084C30.4379 43.2684 29.9193 42.7505 29.28 42.7505H19.1173C18.478 42.7505 17.9594 43.2684 17.9594 43.9084C17.9594 44.5477 18.478 45.0663 19.1173 45.0663Z" fill="#3B4052"/>
<path d="M63.7651 78.5875L70.5197 72.3011C70.9878 71.8654 71.0142 71.1327 70.5785 70.6645C70.1428 70.1964 69.41 70.1707 68.9419 70.6065L64.1338 75.0806L64.1338 61.4071C64.1338 60.7671 63.6159 60.2492 62.9758 60.2492C62.3366 60.2492 61.8179 60.7671 61.8179 61.4071L61.8179 75.0806L57.0106 70.6065C56.5424 70.1707 55.8097 70.1964 55.374 70.6645C54.9382 71.1327 54.9646 71.8654 55.4328 72.3011L62.1873 78.5875C62.6321 79.0014 63.3204 79.0014 63.7651 78.5875V78.5875Z" fill="#3B4052"/>
</g>
</g>
<defs>
<clipPath id="clip0">
<rect width="91" height="91" fill="white"/>
</clipPath>
</defs>
</svg>
