<svg width="92" height="69" viewBox="0 0 92 69" fill="none" xmlns="http://www.w3.org/2000/svg">
<g clip-path="url(#clip0)">
<path d="M83.6548 67.0744C79.331 67.0744 75.8258 66.8071 75.8258 66.4773C75.8258 66.1475 79.331 65.8802 83.6548 65.8802C87.9787 65.8802 91.4839 66.1475 91.4839 66.4773C91.4839 66.8071 87.9787 67.0744 83.6548 67.0744Z" fill="#E6E6E6"/>
<path d="M66.7664 68.1929C62.4425 68.1929 58.9373 67.9255 58.9373 67.5957C58.9373 67.2659 62.4425 66.9986 66.7664 66.9986C71.0903 66.9986 74.5955 67.2659 74.5955 67.5957C74.5955 67.9255 71.0903 68.1929 66.7664 68.1929Z" fill="#E6E6E6"/>
<path d="M7.23503 0H46.7411C46.9714 0.000280585 47.1923 0.0919154 47.3552 0.254805C47.5181 0.417695 47.6097 0.638541 47.61 0.868902V67.0213C47.6099 67.2517 47.5183 67.4726 47.3554 67.6356C47.1925 67.7985 46.9715 67.8901 46.7411 67.8902H7.23503C7.02812 67.8903 6.82798 67.8165 6.67076 67.682C6.51353 67.5475 6.40959 67.3612 6.37771 67.1568C6.36973 67.1121 6.36585 67.0667 6.36612 67.0213V0.868902C6.3664 0.638541 6.45804 0.417695 6.62093 0.254805C6.78382 0.0919153 7.00466 0.000280289 7.23503 0V0ZM6.71368 67.0213C6.71369 67.1595 6.76863 67.2921 6.86639 67.3899C6.96416 67.4877 7.09676 67.5426 7.23503 67.5426H46.7411C46.8794 67.5426 47.0119 67.4877 47.1097 67.3899C47.2075 67.2921 47.2624 67.1595 47.2624 67.0213V0.868902C47.2622 0.730698 47.2072 0.598213 47.1095 0.500487C47.0118 0.402762 46.8793 0.347768 46.7411 0.347561H7.23503C7.09682 0.347768 6.96434 0.402762 6.86661 0.500487C6.76889 0.598213 6.71389 0.730698 6.71368 0.868902V67.0213Z" fill="#E6E6E6"/>
<path d="M43.613 4.87975C43.7052 4.87985 43.7935 4.9165 43.8587 4.98166C43.9238 5.04682 43.9605 5.13516 43.9606 5.22731V19.5932C43.9605 19.6853 43.9238 19.7736 43.8587 19.8388C43.7935 19.904 43.7052 19.9406 43.613 19.9407H10.3631C10.2709 19.9406 10.1826 19.904 10.1174 19.8388C10.0523 19.7736 10.0156 19.6853 10.0155 19.5932V5.22731C10.0156 5.13516 10.0523 5.04681 10.1174 4.98166C10.1826 4.9165 10.2709 4.87985 10.3631 4.87975L43.613 4.87975Z" fill="#E6E6E6"/>
<path d="M57.5013 16.12C57.5902 16.1201 57.6755 16.1555 57.7384 16.2184C57.8013 16.2813 57.8367 16.3666 57.8368 16.4555V30.3241C57.8367 30.4131 57.8013 30.4984 57.7384 30.5613C57.6755 30.6242 57.5902 30.6596 57.5013 30.6597H25.4021C25.3132 30.6596 25.2279 30.6242 25.165 30.5613C25.1021 30.4984 25.0667 30.4131 25.0666 30.3241V16.4555C25.0667 16.3666 25.1021 16.2813 25.165 16.2184C25.2279 16.1555 25.3132 16.1201 25.4021 16.12H57.5013Z" fill="#0B519D"/>
<path d="M73.8397 48.3332C73.7975 49.3719 74.4609 50.2926 75.0822 51.1201C75.3655 51.5077 77.9983 54.1344 78.7935 55.2825C78.9861 55.5608 83.7138 61.0178 83.9561 61.5235C84.0131 61.6433 84.0601 61.7675 84.0965 61.895C84.2382 62.3796 84.2444 62.9015 84.232 63.4184V63.7799C84.2071 64.5689 84.1711 65.3616 83.9835 66.1258C83.9561 66.2376 83.9251 66.3507 83.9089 66.4637C83.9591 66.4308 84.0065 66.3938 84.0505 66.3531L86.62 64.4459L86.7803 64.3266C86.9443 63.852 87.0996 63.3724 87.2748 62.904C87.3792 62.6256 87.2674 62.3076 87.0835 62.0752C86.8843 61.8553 86.6646 61.6547 86.4274 61.4763C86.2454 61.2879 86.083 61.0814 85.9429 60.86C84.1698 58.2794 79.1762 49.019 78.8122 47.1553C78.3322 47.0659 77.8405 47.0595 77.3585 47.1366L74.7952 47.4771C74.5181 47.5144 74.2149 47.5653 74.0348 47.7778C73.9117 47.9371 73.8433 48.1319 73.8397 48.3332V48.3332Z" fill="#EFB7B9"/>
<path d="M62.8981 50.4504C62.9528 50.8377 63.0896 51.2088 63.2995 51.5388C63.5629 51.9402 66.5884 59.7219 67.529 62.935C67.7017 63.5252 67.611 64.0955 67.6296 64.2931C67.6445 64.4571 67.6582 64.6211 67.6706 64.7839C67.688 64.9864 67.7017 65.1889 67.7166 65.3902C67.7551 65.9232 67.7886 66.4836 67.5637 66.9682C67.4755 67.1595 67.3426 67.3248 67.2842 67.5161C67.3718 67.471 67.4529 67.4142 67.5252 67.3471L70.0947 65.4399C70.3042 64.8462 70.4659 64.2367 70.578 63.6171C70.6427 63.2655 70.6737 62.8617 70.4538 62.5921C70.4412 62.5755 70.4275 62.5597 70.4128 62.5449C70.3411 62.4776 70.2609 62.4199 70.1742 62.3734C70.0948 62.3298 70.0184 62.2808 69.9456 62.2268C69.891 62.184 69.8418 62.1348 69.799 62.0802C69.5878 61.8192 69.512 61.4527 69.4486 61.1085C69.2001 59.6995 67.0953 51.0542 67.1351 50.8405C67.1786 50.6306 68.3738 48.6165 69.1939 48.1692C68.343 47.4565 67.3725 46.9003 66.3274 46.5266C66.1433 46.4408 65.9395 46.406 65.7373 46.4259C65.6291 46.4497 65.5257 46.4918 65.4316 46.5502C64.8688 46.8658 64.4376 47.3628 64.0251 47.8598C63.4101 48.6078 62.795 49.4874 62.8981 50.4504Z" fill="#EFB7B9"/>
<path d="M64.0194 47.4569C64.099 48.2083 66.2102 48.8733 68.8799 49.287C69.5694 49.3939 71.2634 45.221 72.002 45.2915C72.8901 45.3763 72.8281 49.6957 73.7065 49.7189C76.6967 49.7979 78.629 49.4914 79.2537 48.605C79.5917 48.523 79.9992 48.3291 79.9831 47.9837C79.9719 47.7862 79.8153 47.611 79.8166 47.4171C79.8166 47.0792 78.8362 43.379 78.2585 41.6234C78.1143 41.1872 78.01 40.7399 77.8472 40.3088C77.1439 38.3655 76.842 36.8745 75.5573 35.2568C75.3607 35.0298 75.1991 34.7748 75.0777 34.5001C74.9674 34.1704 74.9099 33.8252 74.9074 33.4775L74.8366 32.2611C72.9319 32.1717 71.0818 32.2077 69.218 32.6103C69.1169 32.6073 69.0188 32.6446 68.9451 32.714C68.8715 32.7834 68.8285 32.8792 68.8255 32.9803L68.8254 32.983C68.7533 33.4278 68.7028 33.8747 68.6738 34.3237C68.673 34.4229 68.6587 34.5215 68.6316 34.6169C68.5827 34.7375 68.5147 34.8496 68.4303 34.9487C67.3518 36.3626 66.6908 38.0549 66.169 39.7497C65.6471 41.4444 65.2321 43.1864 64.5761 44.8439C64.3499 45.4155 64.0542 46.0578 63.9946 46.6704C63.7585 46.8456 63.8107 47.2419 64.0194 47.4569Z" fill="#2F2E41"/>
<path d="M62.2091 27.0824C61.8811 26.8053 61.5531 26.527 61.2524 26.2213C60.8281 25.7716 60.4362 25.2925 60.0795 24.7875C59.6993 24.2694 59.3216 23.7388 59.0855 23.1399C58.8183 22.4541 58.7363 21.6738 58.2717 21.1047C58.2191 21.0308 58.1461 20.9738 58.0617 20.9407C57.797 20.8574 57.5995 21.1892 57.5485 21.4638C57.3 22.8082 57.8927 24.1501 58.4692 25.3901C58.6593 25.7989 58.8581 26.2188 59.1874 26.5282C59.368 26.6826 59.5567 26.8274 59.7527 26.9618C60.0438 27.1985 60.3117 27.4622 60.5529 27.7496C60.967 28.2201 61.3609 28.7075 61.7345 29.212C62.198 29.8333 62.6328 30.4843 63.182 31.0323C63.7312 31.5802 64.4183 32.0263 65.1874 32.1344C64.9675 32.1045 65.0395 30.8136 65.0631 30.6508C65.0967 30.4147 65.2582 30.1364 65.2632 29.9053C65.2694 29.622 65.1538 29.581 64.9203 29.3822L62.2091 27.0824Z" fill="#EFB7B9"/>
<path d="M71.4309 18.9515C71.4309 18.9515 72.1764 22.679 73.0462 23.3002C73.9159 23.9215 68.3247 24.667 68.3247 24.667C68.3247 24.667 68.2004 21.685 66.7094 20.3182C65.2184 18.9515 71.4309 18.9515 71.4309 18.9515Z" fill="#EFB7B9"/>
<path d="M66.4212 33.7534C66.2369 33.8111 66.0439 33.8363 65.8509 33.8279C65.1986 33.8208 64.5557 33.6711 63.9673 33.3893C63.9122 33.368 63.8634 33.3329 63.8256 33.2874C63.8037 33.2398 63.7918 33.1882 63.7907 33.1359C63.7897 33.0835 63.7994 33.0314 63.8194 32.983C64.1698 31.5665 63.4939 29.96 64.1648 28.6653C64.8942 28.9026 65.6944 29.1623 66.4237 29.3934C66.5356 29.4388 66.656 29.4592 66.7766 29.4531C66.921 29.423 67.0534 29.3508 67.1568 29.2456C67.947 28.5622 68.4452 27.6104 68.8963 26.6699C69.3473 25.7293 69.7896 24.7589 70.5003 23.9935C71.211 23.2281 71.8758 22.8231 72.9145 22.9337C73.2832 22.9841 73.6217 23.1648 73.8688 23.4431C74.4552 24.0743 74.572 25.0347 74.3658 25.8722C74.1595 26.7096 73.6861 27.4514 73.1941 28.1584C72.553 29.0803 71.8634 29.9886 70.9725 30.6732C70.4906 31.0222 69.9904 31.3453 69.474 31.6411" fill="#E6E6E6"/>
<path d="M68.511 21.7471C66.4524 21.7471 64.7835 20.0782 64.7835 18.0196C64.7835 15.961 66.4524 14.2921 68.511 14.2921C70.5697 14.2921 72.2385 15.961 72.2385 18.0196C72.2385 20.0782 70.5697 21.7471 68.511 21.7471Z" fill="#EFB7B9"/>
<path d="M67.0201 28.7473C68.1406 30.0687 68.3775 31.7568 68.6068 33.4229C69.7325 33.0414 70.9799 33.6813 72.1454 33.4477C72.7307 33.2528 73.35 33.181 73.9644 33.2366C74.3956 33.1955 74.823 32.9246 75.2342 33.0625C75.9179 33.4956 75.2521 30.813 75.2928 30.0333C75.6511 16.8812 64.9835 23.2794 67.0201 28.7473Z" fill="#E6E6E6"/>
<path d="M60.7182 27.5794C60.3901 27.3023 60.0621 27.024 59.7614 26.7183C59.3372 26.2686 58.9452 25.7895 58.5885 25.2845C58.2083 24.7664 57.8306 24.2358 57.5945 23.6369C57.3274 22.9511 57.2454 22.1708 56.7807 21.6017C56.7281 21.5278 56.6552 21.4708 56.5707 21.4377C56.306 21.3545 56.1085 21.6862 56.0575 21.9608C55.809 23.3052 56.4017 24.6471 56.9782 25.8871C57.1683 26.2959 57.3671 26.7158 57.6964 27.0252C57.8771 27.1796 58.0658 27.3244 58.2617 27.4588C58.5528 27.6955 58.8208 27.9592 59.0619 28.2466C59.4761 28.7171 59.8699 29.2046 60.2435 29.709C60.707 30.3303 61.1419 30.9813 61.691 31.5293C62.2402 32.0772 62.9273 32.5233 63.6964 32.6314C63.4765 32.6016 63.5486 31.3106 63.5722 31.1478C63.6057 30.9118 63.7673 30.6334 63.7722 30.4023C63.7784 30.119 63.6629 30.078 63.4293 29.8792L60.7182 27.5794Z" fill="#EFB7B9"/>
<path opacity="0.1" d="M67.3928 28.8716L67.4015 28.8877C67.6165 29.2866 67.9383 29.622 68.1594 30.0197C68.4079 30.4694 68.5235 30.9826 68.6229 31.4883C68.6916 31.8279 68.755 32.1679 68.813 32.5084C69.2592 32.2525 69.6906 31.9716 70.1052 31.6672C70.9961 30.9826 71.6857 30.0743 72.3268 29.1511C72.8238 28.4442 73.2959 27.7024 73.4985 26.8662C73.701 26.03 73.5829 25.0683 73.0015 24.4371C72.7545 24.1585 72.416 23.9774 72.0472 23.9264C71.0085 23.8158 70.3525 24.2172 69.6417 24.9813C68.931 25.7455 68.4912 26.7208 68.0377 27.6577C67.8364 28.064 67.6301 28.4802 67.3928 28.8716Z" fill="black"/>
<path d="M71.4234 23.4307C71.7921 23.4811 72.1306 23.6618 72.3777 23.9401C72.9641 24.5713 73.0809 25.5317 72.8747 26.3692C72.6684 27.2066 72.195 27.9484 71.703 28.6554C71.0619 29.5773 70.3723 30.4856 69.4814 31.1702C68.9995 31.5192 68.4993 31.8423 67.983 32.1381C67.125 32.6666 66.3005 32.502 65.5141 33.1321C65.3417 33.2882 65.1443 33.4142 64.9301 33.5048C64.7458 33.5626 64.5528 33.5878 64.3598 33.5794C63.7075 33.5723 63.0646 33.1741 62.4762 32.8923C62.4211 32.871 62.3723 32.8359 62.3346 32.7904C62.3126 32.7428 62.3007 32.6912 62.2996 32.6388C62.2986 32.5865 62.3083 32.5344 62.3283 32.486C62.6787 31.0695 62.0028 30.457 62.6738 29.1623C63.4031 29.3996 64.2033 29.6593 64.9326 29.8904C65.0445 29.9358 65.1649 29.9562 65.2855 29.95C65.43 29.92 65.5623 29.8478 65.6657 29.7425C66.4559 29.0592 66.9542 28.1074 67.4052 27.1668C67.8562 26.2263 68.2985 25.2559 69.0093 24.4905C69.72 23.7251 70.3847 23.3201 71.4234 23.4307Z" fill="#E6E6E6"/>
<path d="M66.2331 67.5608C66.3992 67.7297 66.6152 67.8407 66.8492 67.8774C67.0833 67.9141 67.3229 67.8745 67.5327 67.7646C67.6204 67.7195 67.7015 67.6627 67.7738 67.5956L70.3433 65.6884L71.3621 64.9317C71.4693 64.8321 71.555 64.7116 71.6142 64.5778C71.6733 64.4439 71.7046 64.2994 71.7061 64.153C71.7076 64.0067 71.6793 63.8616 71.623 63.7265C71.5666 63.5914 71.4833 63.4693 71.3783 63.3674L70.7023 62.8406L70.4228 62.6219L70.0475 62.3287L69.7195 62.0727L67.6147 63.2531L67.5787 63.3227L65.9858 66.3941C65.9114 66.5919 65.8951 66.8069 65.9389 67.0136C65.9828 67.2203 66.0848 67.4102 66.2331 67.5608V67.5608Z" fill="#2F2E41"/>
<path d="M82.7583 66.5668C82.9245 66.7357 83.1405 66.8467 83.3745 66.8834C83.6085 66.9201 83.8482 66.8805 84.058 66.7706C84.0915 66.7532 84.1251 66.7333 84.1574 66.7122C84.2076 66.6793 84.2549 66.6423 84.299 66.6016L86.8685 64.6944L87.0288 64.5751L87.8874 63.9377C87.9945 63.838 88.0803 63.7176 88.1395 63.5837C88.1986 63.4499 88.2299 63.3054 88.2314 63.159C88.2329 63.0127 88.2046 62.8676 88.1482 62.7325C88.0919 62.5974 88.0086 62.4752 87.9035 62.3734L87.2276 61.8466L86.948 61.6279L86.5728 61.3347L86.2448 61.0787L86.1914 61.1085L84.345 62.1435L84.14 62.2591L84.104 62.3287L82.5111 65.4001C82.4367 65.5979 82.4204 65.8129 82.4642 66.0196C82.508 66.2264 82.6101 66.4162 82.7583 66.5668V66.5668Z" fill="#2F2E41"/>
<path d="M65.0015 14.8421C66.4448 13.2068 68.0722 12.4247 70.0235 13.1428C73.1542 12.092 77.2695 19.3136 74.7355 21.9326L70.4439 22.2904L69.1299 19.9242L69.5948 22.3751L66.1621 22.7178C67.9133 19.995 67.3516 17.3778 65.0015 14.8421Z" fill="#2F2E41"/>
<path d="M48.8341 26.6469C47.0353 26.6469 45.577 25.1886 45.577 23.3898C45.577 21.5911 47.0353 20.1328 48.8341 20.1328C50.6329 20.1328 52.0911 21.5911 52.0911 23.3898C52.0911 25.1886 50.6329 26.6469 48.8341 26.6469Z" fill="white"/>
<path d="M41.483 22.9565C41.583 22.9581 41.6782 22.999 41.7483 23.0702C41.8184 23.1415 41.8577 23.2374 41.8577 23.3373C41.8577 23.4372 41.8184 23.5332 41.7483 23.6044C41.6782 23.6757 41.583 23.7165 41.483 23.7181H31.1995C31.0985 23.7198 31.001 23.6813 30.9284 23.611C30.8558 23.5408 30.8141 23.4446 30.8124 23.3436C30.8108 23.2426 30.8493 23.1451 30.9195 23.0725C30.9898 22.9999 31.086 22.9582 31.187 22.9565C31.1911 22.9564 31.1953 22.9564 31.1995 22.9565H41.483Z" fill="white"/>
<path d="M41.4831 20.7501C41.583 20.7518 41.6782 20.7926 41.7483 20.8639C41.8184 20.9351 41.8577 21.031 41.8577 21.1309C41.8577 21.2309 41.8184 21.3268 41.7483 21.398C41.6782 21.4693 41.583 21.5101 41.4831 21.5118H36.3477C36.2468 21.5133 36.1494 21.4748 36.0768 21.4045C36.0043 21.3343 35.9626 21.2381 35.961 21.1372C35.9593 21.0363 35.9978 20.9388 36.068 20.8662C36.1382 20.7936 36.2343 20.7519 36.3352 20.7501C36.3394 20.7501 36.3436 20.7501 36.3477 20.7501H41.4831Z" fill="white"/>
<path d="M41.4831 25.2679C41.583 25.2696 41.6782 25.3104 41.7483 25.3816C41.8184 25.4529 41.8577 25.5488 41.8577 25.6487C41.8577 25.7487 41.8184 25.8446 41.7483 25.9158C41.6782 25.9871 41.583 26.0279 41.4831 26.0295H31.1996C31.1495 26.0304 31.0998 26.0214 31.0533 26.003C31.0067 25.9847 30.9642 25.9573 30.9283 25.9225C30.8923 25.8877 30.8635 25.8462 30.8436 25.8003C30.8237 25.7544 30.813 25.705 30.8122 25.655C30.8114 25.605 30.8204 25.5552 30.8388 25.5087C30.8572 25.4622 30.8846 25.4197 30.9194 25.3838C30.9542 25.3478 30.9958 25.3191 31.0417 25.2992C31.0876 25.2793 31.137 25.2687 31.187 25.2679C31.1912 25.2679 31.1954 25.2679 31.1996 25.2679H41.4831Z" fill="white"/>
<path d="M38.3655 36.0443C37.9177 36.0443 37.5546 35.6813 37.5546 35.2334C37.5546 34.7855 37.9177 34.4224 38.3655 34.4224C38.8134 34.4224 39.1765 34.7855 39.1765 35.2334C39.1765 35.6813 38.8134 36.0443 38.3655 36.0443Z" fill="#E6E6E6"/>
<path d="M35.0234 34.8135C35.1336 34.8153 35.2386 34.8604 35.3158 34.9389C35.393 35.0175 35.4363 35.1232 35.4363 35.2334C35.4363 35.3435 35.393 35.4493 35.3158 35.5278C35.2386 35.6064 35.1336 35.6514 35.0234 35.6533H15.2266C15.1155 35.6546 15.0085 35.6119 14.9288 35.5345C14.8491 35.4571 14.8034 35.3513 14.8016 35.2402C14.7997 35.1292 14.842 35.0219 14.9191 34.9419C14.9961 34.862 15.1018 34.8158 15.2128 34.8135C15.2174 34.8134 15.222 34.8134 15.2266 34.8135H35.0234Z" fill="#E6E6E6"/>
<path d="M38.3655 39.9834C37.9177 39.9834 37.5546 39.6203 37.5546 39.1724C37.5546 38.7245 37.9177 38.3614 38.3655 38.3614C38.8134 38.3614 39.1765 38.7245 39.1765 39.1724C39.1765 39.6203 38.8134 39.9834 38.3655 39.9834Z" fill="#E6E6E6"/>
<path d="M35.0234 38.7525C35.1335 38.7544 35.2385 38.7994 35.3158 38.878C35.393 38.9565 35.4363 39.0622 35.4363 39.1724C35.4363 39.2826 35.393 39.3883 35.3158 39.4668C35.2385 39.5454 35.1335 39.5904 35.0234 39.5923H15.2266C15.1155 39.5937 15.0084 39.551 14.9287 39.4736C14.849 39.3962 14.8032 39.2903 14.8014 39.1793C14.7996 39.0682 14.8418 38.9609 14.9189 38.8809C14.996 38.8009 15.1017 38.7548 15.2128 38.7525C15.2174 38.7524 15.222 38.7524 15.2266 38.7525H35.0234Z" fill="#E6E6E6"/>
<path d="M38.3655 43.9224C37.9177 43.9224 37.5546 43.5593 37.5546 43.1114C37.5546 42.6635 37.9177 42.3004 38.3655 42.3004C38.8134 42.3004 39.1765 42.6635 39.1765 43.1114C39.1765 43.5593 38.8134 43.9224 38.3655 43.9224Z" fill="#E6E6E6"/>
<path d="M35.0234 42.6915C35.1335 42.6934 35.2385 42.7384 35.3158 42.817C35.393 42.8955 35.4363 43.0013 35.4363 43.1114C35.4363 43.2216 35.393 43.3273 35.3158 43.4059C35.2385 43.4844 35.1335 43.5295 35.0234 43.5313H15.2266C15.1155 43.5327 15.0084 43.49 14.9287 43.4126C14.849 43.3352 14.8032 43.2294 14.8014 43.1183C14.7996 43.0072 14.8418 42.8999 14.9189 42.8199C14.996 42.74 15.1017 42.6938 15.2128 42.6915C15.2174 42.6914 15.222 42.6914 15.2266 42.6915H35.0234Z" fill="#E6E6E6"/>
<path d="M38.3655 47.8614C37.9177 47.8614 37.5546 47.4983 37.5546 47.0504C37.5546 46.6026 37.9177 46.2395 38.3655 46.2395C38.8134 46.2395 39.1765 46.6026 39.1765 47.0504C39.1765 47.4983 38.8134 47.8614 38.3655 47.8614Z" fill="#E6E6E6"/>
<path d="M35.0234 46.6305C35.1336 46.6324 35.2386 46.6774 35.3158 46.756C35.393 46.8345 35.4363 46.9403 35.4363 47.0504C35.4363 47.1606 35.393 47.2663 35.3158 47.3449C35.2386 47.4234 35.1336 47.4685 35.0234 47.4703H15.2266C15.1713 47.4715 15.1163 47.4617 15.0648 47.4415C15.0133 47.4214 14.9663 47.3913 14.9265 47.3529C14.8867 47.3145 14.8548 47.2687 14.8328 47.2179C14.8107 47.1672 14.7989 47.1126 14.798 47.0574C14.7971 47.0021 14.8071 46.9471 14.8275 46.8957C14.8479 46.8443 14.8782 46.7974 14.9167 46.7578C14.9553 46.7181 15.0013 46.6865 15.0521 46.6646C15.1029 46.6428 15.1575 46.6312 15.2128 46.6305C15.2174 46.6304 15.222 46.6304 15.2266 46.6305H35.0234Z" fill="#E6E6E6"/>
<path d="M38.3655 51.8004C37.9177 51.8004 37.5546 51.4373 37.5546 50.9894C37.5546 50.5416 37.9177 50.1785 38.3655 50.1785C38.8134 50.1785 39.1765 50.5416 39.1765 50.9894C39.1765 51.4373 38.8134 51.8004 38.3655 51.8004Z" fill="#E6E6E6"/>
<path d="M35.0234 50.5696C35.1336 50.5714 35.2386 50.6165 35.3158 50.695C35.393 50.7736 35.4363 50.8793 35.4363 50.9895C35.4363 51.0996 35.393 51.2054 35.3158 51.2839C35.2386 51.3625 35.1336 51.4075 35.0234 51.4094H15.2266C15.1155 51.4107 15.0085 51.368 14.9288 51.2906C14.8491 51.2132 14.8034 51.1074 14.8016 50.9963C14.7997 50.8853 14.842 50.778 14.9191 50.698C14.9961 50.6181 15.1018 50.5719 15.2128 50.5696C15.2174 50.5695 15.222 50.5695 15.2266 50.5696H35.0234Z" fill="#E6E6E6"/>
<path d="M38.3655 55.7395C37.9177 55.7395 37.5546 55.3764 37.5546 54.9285C37.5546 54.4806 37.9177 54.1175 38.3655 54.1175C38.8134 54.1175 39.1765 54.4806 39.1765 54.9285C39.1765 55.3764 38.8134 55.7395 38.3655 55.7395Z" fill="#E6E6E6"/>
<path d="M35.0234 54.5086C35.1336 54.5104 35.2386 54.5555 35.3158 54.634C35.393 54.7126 35.4363 54.8183 35.4363 54.9285C35.4363 55.0386 35.393 55.1444 35.3158 55.2229C35.2386 55.3014 35.1336 55.3465 35.0234 55.3484H15.2266C15.1155 55.3497 15.0085 55.307 14.9288 55.2296C14.8491 55.1522 14.8034 55.0464 14.8016 54.9353C14.7997 54.8243 14.842 54.717 14.9191 54.637C14.9961 54.557 15.1018 54.5109 15.2128 54.5086C15.2174 54.5085 15.222 54.5085 15.2266 54.5086H35.0234Z" fill="#E6E6E6"/>
<path d="M38.3655 59.6785C37.9177 59.6785 37.5546 59.3154 37.5546 58.8675C37.5546 58.4196 37.9177 58.0565 38.3655 58.0565C38.8134 58.0565 39.1765 58.4196 39.1765 58.8675C39.1765 59.3154 38.8134 59.6785 38.3655 59.6785Z" fill="#E6E6E6"/>
<path d="M35.0234 58.4476C35.1335 58.4495 35.2385 58.4945 35.3158 58.5731C35.393 58.6516 35.4363 58.7574 35.4363 58.8675C35.4363 58.9777 35.393 59.0834 35.3158 59.162C35.2385 59.2405 35.1335 59.2856 35.0234 59.2874H15.2266C15.1155 59.2888 15.0084 59.2461 14.9287 59.1687C14.849 59.0913 14.8032 58.9855 14.8014 58.8744C14.7996 58.7633 14.8418 58.656 14.9189 58.576C14.996 58.496 15.1017 58.4499 15.2128 58.4476C15.2174 58.4475 15.222 58.4475 15.2266 58.4476H35.0234Z" fill="#E6E6E6"/>
<path d="M-1.54584e-05 53.0829C0.017365 53.5104 0.449494 62.335 6.37772 67.1568C6.62565 67.3584 6.88323 67.5526 7.15047 67.7396L7.35205 67.5426H7.23504C7.09677 67.5426 6.96418 67.4877 6.86641 67.3899C6.76864 67.2921 6.71371 67.1595 6.71369 67.0213V49.627C6.58973 48.9597 6.47272 48.304 6.36614 47.6656C5.78803 44.1958 5.52041 41.2647 5.9537 40.0471C5.76602 40.5175 1.99846 50.1379 4.04443 59.9403C2.01815 57.1656 0.0949856 54.2531 -1.54584e-05 53.0829Z" fill="#E6E6E6"/>
</g>
<defs>
<clipPath id="clip0">
<rect width="91.4839" height="68.1929" fill="white" transform="matrix(-1 0 0 1 91.4839 0)"/>
</clipPath>
</defs>
</svg>
