<svg width="181" height="147" viewBox="0 0 181 147" fill="none" xmlns="http://www.w3.org/2000/svg">
<path d="M180.07 81.2534C180.07 81.2534 174.162 79.161 174.162 68.9429C174.162 58.7249 173.178 47.3437 160.382 38.3152C147.586 29.2867 137.254 35.231 117.567 38.0681C97.8788 40.9051 96.8949 24.6143 55.5555 26.3211C14.216 28.028 5.34428 48.5958 3.3882 62.6065C1.43213 76.6172 19.628 82.4627 11.2641 93.1914C2.90018 103.92 -5.95969 106.102 -2.51573 119.783C0.928232 133.464 12.2481 141.362 37.3477 141.86C62.4473 142.357 76.7191 122.699 91.4829 121.796C106.247 120.893 114.123 142.077 148.078 138.37C182.034 134.663 201.229 106.935 180.07 81.2534Z" fill="#FAFAFA"/>
<path d="M135.826 101.047H176.205C176.429 101.047 176.65 101.083 176.856 101.154C177.063 101.226 177.251 101.33 177.409 101.461C177.567 101.592 177.692 101.748 177.778 101.92C177.863 102.091 177.907 102.275 177.907 102.46V124.168H134.12V102.477C134.117 102.29 134.159 102.104 134.244 101.93C134.329 101.757 134.454 101.599 134.613 101.466C134.771 101.332 134.96 101.227 135.169 101.155C135.377 101.083 135.6 101.046 135.826 101.047Z" fill="#F79B3C" stroke="#263238" stroke-linecap="round" stroke-linejoin="round"/>
<path d="M138.076 102.806H173.971C174.195 102.806 174.416 102.843 174.623 102.914C174.829 102.985 175.017 103.089 175.175 103.22C175.333 103.352 175.458 103.508 175.544 103.679C175.629 103.851 175.673 104.034 175.673 104.22V124.485H136.393V104.22C136.394 103.848 136.571 103.492 136.886 103.227C137.201 102.963 137.628 102.812 138.076 102.806Z" fill="#07509D"/>
<path d="M177.542 126.04H132.549C131.554 126.04 130.6 125.712 129.897 125.128C129.194 124.544 128.799 123.752 128.799 122.926H181.284C181.284 123.751 180.89 124.542 180.188 125.126C179.487 125.71 178.535 126.038 177.542 126.04Z" fill="#F79B3C" stroke="#263238" stroke-linecap="round" stroke-linejoin="round"/>
<path d="M75.4692 101.047H115.848C116.3 101.047 116.733 101.196 117.052 101.461C117.371 101.726 117.551 102.086 117.551 102.46V124.168H73.7671V102.477C73.7645 102.29 73.8066 102.104 73.8909 101.931C73.9753 101.758 74.1002 101.6 74.2586 101.467C74.4169 101.334 74.6054 101.228 74.8132 101.156C75.021 101.084 75.244 101.047 75.4692 101.047Z" fill="#F79B3C" stroke="#263238" stroke-linecap="round" stroke-linejoin="round"/>
<path d="M77.7189 102.806H113.599C113.822 102.806 114.044 102.843 114.25 102.914C114.457 102.985 114.644 103.089 114.802 103.22C114.96 103.352 115.086 103.508 115.171 103.679C115.257 103.851 115.301 104.034 115.301 104.22V124.485H76.0208V104.22C76.0208 103.846 76.1995 103.487 76.5179 103.222C76.8362 102.957 77.2682 102.807 77.7189 102.806Z" fill="#07509D"/>
<path d="M117.178 126.04H72.192C71.1976 126.04 70.2439 125.712 69.5407 125.128C68.8375 124.544 68.4425 123.752 68.4425 122.926H120.927C120.927 123.752 120.532 124.544 119.829 125.128C119.126 125.712 118.172 126.04 117.178 126.04Z" fill="#F79B3C" stroke="#263238" stroke-linecap="round" stroke-linejoin="round"/>
<path d="M13.6129 101.047H53.9921C54.4436 101.047 54.8765 101.196 55.1957 101.461C55.5149 101.726 55.6943 102.086 55.6943 102.46V124.168H11.9108V102.477C11.9081 102.29 11.9502 102.104 12.0346 101.931C12.119 101.758 12.2439 101.6 12.4022 101.467C12.5606 101.334 12.7491 101.228 12.9569 101.156C13.1647 101.084 13.3877 101.047 13.6129 101.047Z" fill="#F79B3C" stroke="#263238" stroke-linecap="round" stroke-linejoin="round"/>
<path d="M15.8626 102.806H51.7425C51.966 102.806 52.1873 102.843 52.3938 102.914C52.6004 102.985 52.788 103.089 52.9461 103.22C53.1041 103.352 53.2295 103.508 53.315 103.679C53.4006 103.851 53.4446 104.034 53.4446 104.22V124.485H14.1644V104.22C14.1655 103.846 14.3446 103.487 14.6627 103.223C14.9809 102.958 15.4122 102.808 15.8626 102.806Z" fill="#07509D"/>
<path d="M55.3373 126.04H10.3357C9.34198 126.039 8.38931 125.711 7.687 125.127C6.9847 124.543 6.59021 123.752 6.59021 122.926H59.0709C59.0709 123.75 58.6781 124.54 57.9783 125.123C57.2786 125.707 56.329 126.037 55.3373 126.04Z" fill="#F79B3C" stroke="#263238" stroke-linecap="round" stroke-linejoin="round"/>
<path d="M39.7204 120.478H25.9406V105.146H35.6178L39.7204 108.27V120.478Z" fill="white" stroke="#263238" stroke-linecap="round" stroke-linejoin="round"/>
<path d="M35.6178 105.146V108.27H39.7204L35.6178 105.146Z" fill="white" stroke="#263238" stroke-linecap="round" stroke-linejoin="round"/>
<path d="M162.314 84.2617C162.007 80.2843 160.472 76.4394 157.858 73.097C155.244 69.7545 151.638 67.027 147.388 65.1766C150.16 60.133 150.667 54.4321 148.818 49.1048C146.97 43.7775 142.887 39.1753 137.308 36.1303C131.729 33.0854 125.022 31.7986 118.401 32.5027C111.779 33.2068 105.679 35.8553 101.204 39.9693C98.4984 34.5553 93.4279 30.1911 87.0096 27.7524C80.5912 25.3136 73.2998 24.9807 66.5983 26.8205C59.8967 28.6602 54.2807 32.5365 50.8771 37.6716C47.4734 42.8067 46.5339 48.8207 48.2469 54.5072C47.3859 54.4413 46.517 54.405 45.6362 54.405C41.2814 54.4061 36.9871 55.2516 33.0951 56.8741C29.2032 58.4966 25.8212 60.8513 23.2184 63.7508C20.6156 66.6503 18.8639 70.0144 18.1028 73.5753C17.3417 77.1362 17.5922 80.7954 18.8344 84.2617H162.314Z" fill="#DEE9F1"/>
<path d="M79.5401 47.8578L80.8296 47.3701L80.5558 46.0818L79.1314 45.9895C78.9514 45.5941 78.7129 45.2189 78.4212 44.8725L79.1553 43.8411L78.0403 42.9185L76.7945 43.5347C76.0776 43.1297 75.2667 42.8536 74.4139 42.7241L74.0528 41.5411H72.4657L72.1047 42.734C71.6161 42.81 71.1405 42.935 70.6882 43.1063L69.5653 42.299L68.2758 43.047L68.8075 44.2036C68.4612 44.497 68.1575 44.8233 67.9029 45.1756L66.4229 45.0504L65.8873 46.2762L67.1093 46.9681C67.0519 47.2545 67.0227 47.5444 67.022 47.8347C67.022 47.9567 67.022 48.0819 67.0419 48.2005L65.7484 48.8002L66.1452 50.0622L67.6053 50.0457C67.8173 50.4237 68.0838 50.7788 68.3988 51.1034L67.768 52.1941L68.9583 53.0311L70.1248 52.3391C70.5686 52.5496 71.0416 52.7145 71.5333 52.8301L71.7674 53.9998L73.3346 54.1152L73.8068 53.008C74.3212 52.9697 74.8278 52.8779 75.3145 52.7345L76.3025 53.5715L77.6634 52.9124L77.2904 51.7888C77.685 51.5092 78.0367 51.1905 78.3379 50.8398L79.7226 51.054L80.3852 49.8678L79.3021 49.1264C79.4419 48.7129 79.5218 48.287 79.5401 47.8578ZM77.2111 47.8347C77.2111 48.4801 76.9806 49.1109 76.5488 49.6474C76.117 50.1839 75.5033 50.6021 74.7853 50.8489C74.0674 51.0957 73.2774 51.1601 72.5153 51.0339C71.7532 50.9078 71.0533 50.5968 70.5041 50.1402C69.9549 49.6837 69.5812 49.1021 69.43 48.4691C69.2789 47.8361 69.3573 47.1801 69.6552 46.5841C69.9531 45.9881 70.4572 45.4788 71.1037 45.1208C71.7501 44.7627 72.51 44.572 73.287 44.5726C73.804 44.5709 74.3163 44.654 74.7945 44.8172C75.2727 44.9804 75.7073 45.2205 76.0734 45.5236C76.4395 45.8267 76.7299 46.1869 76.9279 46.5836C77.1258 46.9802 77.2275 47.4054 77.227 47.8347H77.2111Z" fill="#EBEBEB"/>
<path d="M124.141 67.2196L125.431 66.7319L125.157 65.4436L123.732 65.3546C123.553 64.9579 123.315 64.5815 123.022 64.2343L123.756 63.2029L122.641 62.2803L121.391 62.8965C120.676 62.4903 119.864 62.2151 119.011 62.0892L118.65 60.903H117.063L116.702 62.0958C116.214 62.1734 115.738 62.2984 115.285 62.4681L114.162 61.6608L112.869 62.3923L113.4 63.5489C113.054 63.8424 112.75 64.1686 112.496 64.5209L111.016 64.3957L110.488 65.6215L111.714 66.3135C111.657 66.5999 111.628 66.8897 111.627 67.1801C111.627 67.3053 111.627 67.4272 111.627 67.5458L110.337 68.1455L110.734 69.4075H112.194C112.406 69.7867 112.672 70.143 112.988 70.4686L112.357 71.5559L113.547 72.3929L114.714 71.7009C115.157 71.912 115.63 72.0769 116.122 72.1919L116.356 73.3616L117.924 73.477L118.396 72.3698C118.91 72.3316 119.417 72.2397 119.904 72.0963L120.891 72.9333L122.252 72.2743L121.879 71.1506C122.274 70.8721 122.625 70.5545 122.927 70.2049L124.312 70.4158L124.974 69.2329L123.887 68.4882C124.034 68.0756 124.119 67.6495 124.141 67.2196ZM121.812 67.1965C121.812 67.8417 121.582 68.4724 121.15 69.0089C120.718 69.5453 120.105 69.9635 119.387 70.2104C118.669 70.4573 117.88 70.5219 117.118 70.396C116.356 70.2701 115.656 69.9594 115.106 69.5032C114.557 69.047 114.183 68.4657 114.031 67.833C113.88 67.2002 113.958 66.5443 114.255 65.9482C114.552 65.3521 115.056 64.8426 115.702 64.4842C116.348 64.1257 117.107 63.9344 117.884 63.9344C118.922 63.9344 119.918 64.2758 120.654 64.884C121.391 65.4923 121.807 66.3178 121.812 67.1801V67.1965Z" fill="#EBEBEB"/>
<path d="M32.6698 77.4344V64.1553C32.6709 63.1255 33.1642 62.1382 34.0413 61.4104C34.9185 60.6825 36.1077 60.2737 37.3477 60.2737H70.8113" stroke="#263238" stroke-miterlimit="10"/>
<path d="M120.685 57.0708H128.065C129.328 57.0708 130.539 57.4874 131.432 58.2289C132.325 58.9705 132.826 59.9762 132.826 61.0249V75.0586" fill="#EBEBEB"/>
<path d="M79.6513 22.6207V38.1834C79.6524 38.5193 79.8138 38.8411 80.1001 39.0783C80.3865 39.3155 80.7745 39.4487 81.1789 39.4487H87.1622C87.5663 39.4487 87.9538 39.582 88.2395 39.8193C88.5253 40.0566 88.6858 40.3784 88.6858 40.714V44.3682H72.2595C71.3159 44.3682 70.4106 44.6784 69.7415 45.231C69.0724 45.7836 68.6938 46.5337 68.6886 47.3173V68.3301C68.6938 69.1137 69.0724 69.8638 69.7415 70.4164C70.4106 70.969 71.3159 71.2792 72.2595 71.2792H118.864C119.804 71.2748 120.704 70.9627 121.369 70.4106C122.034 69.8585 122.41 69.1109 122.415 68.3301V47.3173C122.41 46.5365 122.034 45.7889 121.369 45.2368C120.704 44.6847 119.804 44.3726 118.864 44.3682H102.434V40.714C102.434 40.5476 102.473 40.3828 102.55 40.229C102.627 40.0753 102.74 39.9357 102.881 39.8181C103.023 39.7006 103.192 39.6075 103.377 39.5441C103.562 39.4807 103.761 39.4483 103.961 39.4487H109.945C110.349 39.4487 110.736 39.3154 111.022 39.0781C111.308 38.8408 111.468 38.519 111.468 38.1834V23.003" fill="white"/>
<path d="M79.6513 22.6207V38.1834C79.6524 38.5193 79.8138 38.8411 80.1001 39.0783C80.3865 39.3155 80.7745 39.4487 81.1789 39.4487H87.1622C87.5663 39.4487 87.9538 39.582 88.2395 39.8193C88.5253 40.0566 88.6858 40.3784 88.6858 40.714V44.3682H72.2595C71.3159 44.3682 70.4106 44.6784 69.7415 45.231C69.0724 45.7836 68.6938 46.5337 68.6886 47.3173V68.3301C68.6938 69.1137 69.0724 69.8638 69.7415 70.4164C70.4106 70.969 71.3159 71.2792 72.2595 71.2792H118.864C119.804 71.2748 120.704 70.9627 121.369 70.4106C122.034 69.8585 122.41 69.1109 122.415 68.3301V47.3173C122.41 46.5365 122.034 45.7889 121.369 45.2368C120.704 44.6847 119.804 44.3726 118.864 44.3682H102.434V40.714C102.434 40.5476 102.473 40.3828 102.55 40.229C102.627 40.0753 102.74 39.9357 102.881 39.8181C103.023 39.7006 103.192 39.6075 103.377 39.5441C103.562 39.4807 103.761 39.4483 103.961 39.4487H109.945C110.349 39.4487 110.736 39.3154 111.022 39.0781C111.308 38.8408 111.468 38.519 111.468 38.1834V23.003" stroke="#263238" stroke-linecap="round" stroke-linejoin="round"/>
<path d="M77.2111 16.7456C77.2111 16.7456 88.4555 17.889 89.2252 28.6408" stroke="#949CAF" stroke-miterlimit="10"/>
<path d="M88.2135 28.4333L89.2689 29.8239L90.1934 28.3707L88.2135 28.4333Z" fill="#949CAF"/>
<path d="M106.493 16.7456C106.493 16.7456 94.9626 18.5414 94.4547 35.5869" stroke="#949CAF" stroke-miterlimit="10"/>
<path d="M93.5065 35.3232L94.4349 36.7731L95.4824 35.3793L93.5065 35.3232Z" fill="#949CAF"/>
<path d="M79.1791 10.0006C79.1791 10.0006 90.4235 11.144 91.1932 21.8991" stroke="#949CAF" stroke-miterlimit="10"/>
<path d="M90.1815 21.6915L91.2369 23.082L92.1614 21.6289L90.1815 21.6915Z" fill="#949CAF"/>
<path d="M114.853 16.7456C114.853 16.7456 103.608 17.889 102.834 28.6408" stroke="#949CAF" stroke-miterlimit="10"/>
<path d="M101.878 28.3707L102.803 29.8239L103.854 28.4333L101.878 28.3707Z" fill="#949CAF"/>
<path d="M116.539 47.8017H100.343V43.7191H90.499V47.8017H74.5806C73.8082 47.8017 73.0675 48.0565 72.5213 48.5101C71.9752 48.9637 71.6683 49.5789 71.6683 50.2203V65.7072C71.6683 66.3486 71.9752 66.9638 72.5213 67.4174C73.0675 67.8709 73.8082 68.1258 74.5806 68.1258H116.539C117.311 68.1258 118.052 67.8709 118.598 67.4174C119.144 66.9638 119.451 66.3486 119.451 65.7072V50.2203C119.451 49.5789 119.144 48.9637 118.598 48.5101C118.052 48.0565 117.311 47.8017 116.539 47.8017Z" fill="#6F7079"/>
<path d="M75.3066 51.0441H81.6311" stroke="white" stroke-linecap="round" stroke-linejoin="round"/>
<path d="M75.3066 53.5286H91.2885" stroke="white" stroke-linecap="round" stroke-linejoin="round"/>
<path d="M92.4867 53.5286H97.0178" stroke="white" stroke-linecap="round" stroke-linejoin="round"/>
<path d="M98.2994 53.5286H105.905" stroke="white" stroke-linecap="round" stroke-linejoin="round"/>
<path d="M87.3566 51.0441H93.685" stroke="white" stroke-linecap="round" stroke-linejoin="round"/>
<path d="M106.675 51.0441H115.567" stroke="white" stroke-linecap="round" stroke-linejoin="round"/>
<path d="M106.675 53.5286H115.567" stroke="white" stroke-linecap="round" stroke-linejoin="round"/>
<path d="M83.2539 51.0441H86.1622" stroke="white" stroke-linecap="round" stroke-linejoin="round"/>
<path d="M94.9427 51.0441H97.8511" stroke="white" stroke-linecap="round" stroke-linejoin="round"/>
<path d="M99.1327 51.0441H101.291" stroke="white" stroke-linecap="round" stroke-linejoin="round"/>
<path d="M102.553 51.0441H105.457" stroke="white" stroke-linecap="round" stroke-linejoin="round"/>
<path d="M115.567 55.7988H109.238" stroke="white" stroke-linecap="round" stroke-linejoin="round"/>
<path d="M115.567 58.2833H99.5809" stroke="white" stroke-linecap="round" stroke-linejoin="round"/>
<path d="M98.3827 58.2833H93.8556" stroke="white" stroke-linecap="round" stroke-linejoin="round"/>
<path d="M92.5701 58.2833H84.964" stroke="white" stroke-linecap="round" stroke-linejoin="round"/>
<path d="M103.513 55.7988H97.1885" stroke="white" stroke-linecap="round" stroke-linejoin="round"/>
<path d="M84.1943 55.7988H75.3066" stroke="white" stroke-linecap="round" stroke-linejoin="round"/>
<path d="M84.1943 58.2833H75.3066" stroke="white" stroke-linecap="round" stroke-linejoin="round"/>
<path d="M107.616 55.7988H104.711" stroke="white" stroke-linecap="round" stroke-linejoin="round"/>
<path d="M95.9268 55.7988H93.0184" stroke="white" stroke-linecap="round" stroke-linejoin="round"/>
<path d="M91.7368 55.7988H89.5784" stroke="white" stroke-linecap="round" stroke-linejoin="round"/>
<path d="M88.3206 55.7988H85.4124" stroke="white" stroke-linecap="round" stroke-linejoin="round"/>
<path d="M115.567 60.4845H109.238" stroke="white" stroke-linecap="round" stroke-linejoin="round"/>
<path d="M75.3066 62.969H91.2885" stroke="white" stroke-linecap="round" stroke-linejoin="round"/>
<path d="M92.4867 62.969H97.0178" stroke="white" stroke-linecap="round" stroke-linejoin="round"/>
<path d="M98.2994 62.969H105.905" stroke="white" stroke-linecap="round" stroke-linejoin="round"/>
<path d="M103.513 60.4845H97.1885" stroke="white" stroke-linecap="round" stroke-linejoin="round"/>
<path d="M84.1943 60.4845H75.3066" stroke="white" stroke-linecap="round" stroke-linejoin="round"/>
<path d="M106.675 62.969H115.567" stroke="white" stroke-linecap="round" stroke-linejoin="round"/>
<path d="M107.616 60.4845H104.711" stroke="white" stroke-linecap="round" stroke-linejoin="round"/>
<path d="M95.9268 60.4845H93.0184" stroke="white" stroke-linecap="round" stroke-linejoin="round"/>
<path d="M91.7368 60.4845H89.5784" stroke="white" stroke-linecap="round" stroke-linejoin="round"/>
<path d="M88.3206 60.4845H85.4124" stroke="white" stroke-linecap="round" stroke-linejoin="round"/>
<path d="M115.567 65.17H109.238" stroke="white" stroke-linecap="round" stroke-linejoin="round"/>
<path d="M103.513 65.17H97.1885" stroke="white" stroke-linecap="round" stroke-linejoin="round"/>
<path d="M84.1943 65.17H75.3066" stroke="white" stroke-linecap="round" stroke-linejoin="round"/>
<path d="M107.616 65.17H104.711" stroke="white" stroke-linecap="round" stroke-linejoin="round"/>
<path d="M95.9268 65.17H93.0184" stroke="white" stroke-linecap="round" stroke-linejoin="round"/>
<path d="M91.7368 65.17H89.5784" stroke="white" stroke-linecap="round" stroke-linejoin="round"/>
<path d="M88.3206 65.17H85.4124" stroke="white" stroke-linecap="round" stroke-linejoin="round"/>
<path d="M61.2649 72.0601L63.1019 71.3649L62.7052 69.5328L60.6777 69.401C60.4195 68.8373 60.0798 68.3018 59.6659 67.8062L60.7094 66.3432L59.1223 65.0251L57.3567 65.9016C56.3336 65.325 55.1768 64.9322 53.9604 64.7484L53.4446 63.0646H51.2068L50.691 64.7615C49.997 64.8698 49.3214 65.0479 48.6794 65.292L47.0923 64.1421L45.2592 65.2064L46.0131 66.8539C45.5216 67.2724 45.0902 67.7368 44.7276 68.2378L42.6207 68.0566L41.847 69.8096L43.5928 70.7981C43.5082 71.2062 43.4657 71.6196 43.4658 72.0338C43.4658 72.2084 43.4658 72.383 43.4896 72.5544L41.6526 73.4078L42.2319 75.2036L44.3109 75.1806C44.6184 75.7195 45.002 76.2261 45.4536 76.6897L44.5569 78.2384L46.271 79.4312L47.9334 78.4427C48.5633 78.7455 49.2365 78.9813 49.9371 79.1445L50.2704 80.8119L52.5003 80.9733L53.1748 79.395C53.9072 79.3433 54.6286 79.2137 55.3213 79.0094L56.7259 80.199L58.6661 79.2665L58.1146 77.6585C58.6768 77.263 59.1767 76.8102 59.6024 76.3108L61.5863 76.6139L62.5346 74.9268L60.9872 73.8691C61.1685 73.2778 61.2618 72.6703 61.2649 72.0601ZM57.9519 72.0272C57.9519 72.9454 57.624 73.8431 57.0097 74.6066C56.3954 75.3701 55.5223 75.9651 54.5008 76.3165C53.4793 76.6679 52.3552 76.7599 51.2707 76.5807C50.1863 76.4016 49.1902 75.9594 48.4083 75.3101C47.6265 74.6608 47.094 73.8335 46.8783 72.9329C46.6626 72.0323 46.7733 71.0988 47.1965 70.2505C47.6196 69.4021 48.3361 68.677 49.2555 68.1669C50.1748 67.6567 51.2557 67.3844 52.3614 67.3844C53.8441 67.3844 55.266 67.8736 56.3145 68.7443C57.3629 69.6149 57.9519 70.7958 57.9519 72.0272Z" fill="#4D5A64"/>
<path d="M24.159 84.2618H27.4998C27.7238 83.184 28.3989 82.2066 29.4062 81.502C30.4135 80.7975 31.6881 80.4111 33.005 80.4111C34.322 80.4111 35.5966 80.7975 36.6038 81.502C37.6111 82.2066 38.2863 83.184 38.5102 84.2618H43.7158L43.3548 82.5549L41.3273 82.4231C41.0715 81.8585 40.7316 81.3227 40.3155 80.8283L41.359 79.362L39.7719 78.044L37.9944 78.9204C36.9706 78.3456 35.814 77.954 34.5981 77.7705L34.0862 76.0834H31.8484L31.3326 77.7803C30.6389 77.8912 29.9636 78.0704 29.321 78.3141L27.7339 77.1609L25.9009 78.2285L26.6587 79.876C26.1657 80.2955 25.733 80.761 25.3692 81.2632L23.2623 81.082L22.4966 82.8284L24.2424 83.8169C24.1948 83.9619 24.1789 84.1102 24.159 84.2618Z" fill="#4D5A64"/>
<path d="M145.947 76.9631H136.104V80.2318H145.947V76.9631Z" fill="white" stroke="#263238" stroke-linecap="round" stroke-linejoin="round"/>
<path d="M153.819 72.2743H143.321V84.2618H153.819V72.2743Z" fill="white" stroke="#263238" stroke-linecap="round" stroke-linejoin="round"/>
<path d="M126.918 77.1806H116.091V73.9349H95.6609V76.9631" stroke="#949CAF" stroke-miterlimit="10"/>
<path d="M109.199 77.9385H101.981V84.2617H109.199V77.9385Z" fill="white" stroke="#263238" stroke-linecap="round" stroke-linejoin="round"/>
<path d="M105.592 75.8724H86.2336V93.31H105.592V75.8724Z" fill="white" stroke="#263238" stroke-linecap="round" stroke-linejoin="round"/>
<path d="M103.949 75.8724H87.8723V93.31H103.949V75.8724Z" fill="white" stroke="#263238" stroke-linecap="round" stroke-linejoin="round"/>
<path d="M116.091 78.1066C116.838 78.1066 117.443 77.6036 117.443 76.983C117.443 76.3624 116.838 75.8594 116.091 75.8594C115.343 75.8594 114.738 76.3624 114.738 76.983C114.738 77.6036 115.343 78.1066 116.091 78.1066Z" fill="#949CAF"/>
<path d="M95.7085 75.0586C96.4557 75.0586 97.0614 74.5556 97.0614 73.935C97.0614 73.3145 96.4557 72.8114 95.7085 72.8114C94.9612 72.8114 94.3555 73.3145 94.3555 73.935C94.3555 74.5556 94.9612 75.0586 95.7085 75.0586Z" fill="#949CAF"/>
<path d="M139.714 72.2743H125.605V84.2618H139.714V72.2743Z" fill="white" stroke="#263238" stroke-linecap="round" stroke-linejoin="round"/>
<path d="M105.592 75.8724H86.2336V78.6898H105.592V75.8724Z" fill="#263238" stroke="#263238" stroke-linecap="round" stroke-linejoin="round"/>
<path d="M138.242 76.861H133.017V75.2366L126.22 78.4954L133.017 81.7575V80.1331H138.242V76.861Z" fill="#263238"/>
<path d="M93.3517 80.8613V85.2009H91.3956L95.3197 90.8454L99.2477 85.2009H97.2877V80.8613H93.3517Z" fill="#263238"/>
<path d="M137.671 58.6327V65.381" stroke="#263238" stroke-miterlimit="10"/>
<path d="M136.683 65.1405L137.671 66.564L138.659 65.1405H136.683Z" fill="#263238"/>
<path d="M133.973 49.937C135.07 50.3215 136.006 50.9661 136.663 51.7902C137.321 52.6143 137.672 53.5812 137.671 54.5699V56.2372" stroke="#263238" stroke-miterlimit="10"/>
<path d="M136.683 55.9966L137.671 57.4201L138.659 55.9966H136.683Z" fill="#263238"/>
<path d="M124.859 49.5415H130.192" stroke="#263238" stroke-miterlimit="10"/>
<path d="M129.902 50.362L131.616 49.5415L129.902 48.7178V50.362Z" fill="#263238"/>
<path d="M17.8264 133.062C19.3053 131.802 19.2739 129.785 17.7564 128.557C16.2388 127.328 13.8097 127.354 12.3308 128.615C10.8519 129.875 10.8833 131.892 12.4009 133.121C13.9185 134.349 16.3476 134.323 17.8264 133.062Z" fill="#263238"/>
<path d="M16.2237 130.848C16.223 130.659 16.1548 130.474 16.0279 130.318C15.901 130.161 15.721 130.039 15.5107 129.967C15.3004 129.895 15.0691 129.877 14.8462 129.914C14.6233 129.951 14.4186 130.043 14.2581 130.176C14.0976 130.31 13.9884 130.48 13.9443 130.666C13.9002 130.851 13.9232 131.043 14.0105 131.217C14.0977 131.392 14.2451 131.541 14.4343 131.646C14.6234 131.75 14.8457 131.806 15.0731 131.806C15.2245 131.806 15.3745 131.782 15.5144 131.733C15.6542 131.685 15.7812 131.614 15.8881 131.525C15.995 131.436 16.0797 131.331 16.1373 131.214C16.1949 131.098 16.2243 130.973 16.2237 130.848Z" fill="white"/>
<path d="M40.0395 133.1C41.5378 131.855 41.5378 129.838 40.0395 128.594C38.5412 127.349 36.112 127.349 34.6137 128.594C33.1154 129.838 33.1154 131.855 34.6137 133.1C36.112 134.344 38.5412 134.344 40.0395 133.1Z" fill="#263238"/>
<path d="M38.4785 130.848C38.4785 130.658 38.4107 130.472 38.2836 130.315C38.1566 130.157 37.976 130.034 37.7648 129.961C37.5536 129.889 37.3213 129.87 37.0972 129.907C36.8731 129.945 36.6674 130.036 36.5061 130.171C36.3448 130.305 36.2351 130.476 36.191 130.663C36.1469 130.849 36.1703 131.042 36.2583 131.217C36.3463 131.392 36.4949 131.542 36.6853 131.647C36.8757 131.751 37.0994 131.807 37.3279 131.806C37.4793 131.806 37.6293 131.782 37.7691 131.733C37.909 131.685 38.036 131.615 38.1429 131.525C38.2498 131.436 38.3345 131.331 38.3921 131.214C38.4496 131.098 38.479 130.973 38.4785 130.848Z" fill="white"/>
<path d="M60.4694 133.944C62.5313 133.539 63.8067 131.821 63.3182 130.109C62.8296 128.397 60.7621 127.338 58.7002 127.743C56.6383 128.149 55.3628 129.866 55.8514 131.578C56.3399 133.291 58.4075 134.35 60.4694 133.944Z" fill="#263238"/>
<path d="M60.7292 130.848C60.7285 130.659 60.6603 130.474 60.5334 130.318C60.4065 130.161 60.2265 130.039 60.0162 129.967C59.8059 129.895 59.5747 129.877 59.3517 129.914C59.1288 129.951 58.9241 130.043 58.7636 130.176C58.6031 130.31 58.4939 130.48 58.4498 130.666C58.4057 130.851 58.4287 131.043 58.5159 131.217C58.6031 131.392 58.7506 131.541 58.9398 131.646C59.1289 131.75 59.3512 131.806 59.5786 131.806C59.7301 131.806 59.88 131.782 60.0199 131.733C60.1597 131.685 60.2867 131.614 60.3936 131.525C60.5005 131.436 60.5852 131.331 60.6428 131.214C60.7004 131.098 60.7298 130.973 60.7292 130.848Z" fill="white"/>
<path d="M82.7238 133.944C84.7857 133.538 86.0611 131.821 85.5726 130.108C85.084 128.396 83.0165 127.337 80.9546 127.743C78.8927 128.148 77.6172 129.865 78.1058 131.578C78.5943 133.29 80.6619 134.349 82.7238 133.944Z" fill="#263238"/>
<path d="M82.9841 130.848C82.9833 130.659 82.9152 130.474 82.7883 130.318C82.6613 130.161 82.4814 130.039 82.2711 129.967C82.0607 129.895 81.8295 129.877 81.6066 129.914C81.3836 129.951 81.179 130.043 81.0185 130.176C80.8579 130.31 80.7488 130.48 80.7047 130.666C80.6606 130.851 80.6836 131.043 80.7708 131.217C80.858 131.392 81.0055 131.541 81.1946 131.646C81.3838 131.75 81.6061 131.806 81.8335 131.806C81.9849 131.806 82.1349 131.782 82.2747 131.733C82.4146 131.685 82.5416 131.614 82.6485 131.525C82.7554 131.436 82.8401 131.331 82.8977 131.214C82.9552 131.098 82.9846 130.973 82.9841 130.848Z" fill="white"/>
<path d="M104.698 133.992C106.79 133.71 108.209 132.073 107.869 130.336C107.529 128.599 105.558 127.42 103.466 127.702C101.375 127.985 99.9549 129.622 100.295 131.359C100.635 133.096 102.607 134.275 104.698 133.992Z" fill="#263238"/>
<path d="M105.239 130.848C105.239 130.658 105.171 130.473 105.044 130.315C104.917 130.157 104.737 130.034 104.526 129.962C104.315 129.889 104.083 129.87 103.859 129.907C103.635 129.944 103.429 130.036 103.268 130.17C103.106 130.304 102.996 130.475 102.952 130.661C102.907 130.847 102.93 131.039 103.018 131.215C103.105 131.39 103.253 131.54 103.443 131.645C103.633 131.75 103.856 131.807 104.084 131.807C104.236 131.807 104.386 131.782 104.527 131.734C104.667 131.686 104.795 131.616 104.902 131.527C105.009 131.438 105.094 131.332 105.152 131.215C105.21 131.099 105.239 130.974 105.239 130.848Z" fill="white"/>
<path d="M129.052 133.102C130.55 131.858 130.55 129.84 129.052 128.596C127.553 127.352 125.124 127.352 123.626 128.596C122.128 129.84 122.128 131.858 123.626 133.102C125.124 134.346 127.553 134.346 129.052 133.102Z" fill="#263238"/>
<path d="M127.49 130.848C127.49 130.658 127.422 130.472 127.294 130.315C127.167 130.157 126.986 130.035 126.775 129.963C126.563 129.891 126.331 129.873 126.107 129.912C125.884 129.95 125.679 130.043 125.518 130.178C125.358 130.313 125.25 130.485 125.208 130.671C125.166 130.858 125.192 131.05 125.282 131.225C125.372 131.399 125.523 131.547 125.714 131.65C125.906 131.753 126.131 131.806 126.359 131.803C126.661 131.799 126.948 131.696 127.16 131.517C127.371 131.339 127.49 131.098 127.49 130.848Z" fill="white"/>
<path d="M151.303 133.102C152.802 131.857 152.802 129.84 151.303 128.596C149.805 127.351 147.376 127.351 145.877 128.596C144.379 129.84 144.379 131.857 145.877 133.102C147.376 134.346 149.805 134.346 151.303 133.102Z" fill="#263238"/>
<path d="M149.745 130.848C149.744 130.659 149.677 130.475 149.552 130.318C149.426 130.161 149.247 130.039 149.038 129.966C148.828 129.893 148.598 129.874 148.375 129.91C148.152 129.945 147.947 130.035 147.786 130.167C147.624 130.3 147.513 130.469 147.467 130.653C147.421 130.838 147.442 131.029 147.526 131.204C147.611 131.379 147.756 131.529 147.943 131.636C148.13 131.742 148.351 131.801 148.578 131.803C148.73 131.805 148.882 131.781 149.023 131.734C149.165 131.687 149.293 131.617 149.402 131.528C149.51 131.439 149.597 131.333 149.655 131.216C149.714 131.1 149.745 130.974 149.745 130.848Z" fill="white"/>
<path d="M171.631 133.958C173.706 133.6 175.038 131.913 174.607 130.19C174.177 128.467 172.146 127.361 170.071 127.718C167.996 128.076 166.663 129.763 167.094 131.486C167.525 133.209 169.556 134.316 171.631 133.958Z" fill="#263238"/>
<path d="M171.987 130.848C171.987 130.659 171.918 130.474 171.792 130.318C171.665 130.161 171.485 130.039 171.274 129.967C171.064 129.895 170.833 129.877 170.61 129.914C170.387 129.951 170.182 130.043 170.022 130.176C169.861 130.31 169.752 130.48 169.708 130.666C169.664 130.851 169.687 131.043 169.774 131.217C169.861 131.392 170.009 131.541 170.198 131.646C170.387 131.75 170.609 131.806 170.837 131.806C170.988 131.806 171.138 131.782 171.278 131.733C171.418 131.685 171.545 131.614 171.652 131.525C171.759 131.436 171.843 131.331 171.901 131.214C171.959 131.098 171.988 130.973 171.987 130.848Z" fill="white"/>
<path d="M183.022 126.333H2.89624V128.785H183.022V126.333Z" fill="#263238" stroke="#263238" stroke-linecap="round" stroke-linejoin="round"/>
<path d="M6.83606 128.719V126.337" stroke="white" stroke-linejoin="round"/>
<path d="M13.724 128.719V126.337" stroke="white" stroke-linejoin="round"/>
<path d="M20.6158 128.719V126.337" stroke="white" stroke-linejoin="round"/>
<path d="M27.5038 128.719V126.337" stroke="white" stroke-linejoin="round"/>
<path d="M34.3958 128.719V126.337" stroke="white" stroke-linejoin="round"/>
<path d="M41.2837 128.719V126.337" stroke="white" stroke-linejoin="round"/>
<path d="M48.1755 128.719V126.337" stroke="white" stroke-linejoin="round"/>
<path d="M55.0635 128.719V126.337" stroke="white" stroke-linejoin="round"/>
<path d="M61.9553 128.719V126.337" stroke="white" stroke-linejoin="round"/>
<path d="M68.8433 128.719V126.337" stroke="white" stroke-linejoin="round"/>
<path d="M75.7352 126.337V128.719" stroke="white" stroke-linejoin="round"/>
<path d="M82.623 128.719V126.337" stroke="white" stroke-linejoin="round"/>
<path d="M89.5149 128.719V126.337" stroke="white" stroke-linejoin="round"/>
<path d="M96.4028 128.719V126.337" stroke="white" stroke-linejoin="round"/>
<path d="M103.295 128.719V126.337" stroke="white" stroke-linejoin="round"/>
<path d="M110.183 128.719V126.337" stroke="white" stroke-linejoin="round"/>
<path d="M117.075 128.719V126.337" stroke="white" stroke-linejoin="round"/>
<path d="M123.962 128.719V126.337" stroke="white" stroke-linejoin="round"/>
<path d="M130.854 128.719V126.337" stroke="white" stroke-linejoin="round"/>
<path d="M137.746 128.719V126.337" stroke="white" stroke-linejoin="round"/>
<path d="M144.634 128.719V126.337" stroke="white" stroke-linejoin="round"/>
<path d="M151.526 128.719V126.337" stroke="white" stroke-linejoin="round"/>
<path d="M158.414 128.719V126.337" stroke="white" stroke-linejoin="round"/>
<path d="M165.306 128.719V126.337" stroke="white" stroke-linejoin="round"/>
<path d="M172.194 128.719V126.337" stroke="white" stroke-linejoin="round"/>
<path d="M179.086 128.719V126.337" stroke="white" stroke-linejoin="round"/>
<path d="M183.022 133.279H2.89624V135.731H183.022V133.279Z" fill="#263238" stroke="#263238" stroke-linecap="round" stroke-linejoin="round"/>
<path d="M6.83606 135.668V133.283" stroke="white" stroke-linejoin="round"/>
<path d="M13.724 135.668V133.283" stroke="white" stroke-linejoin="round"/>
<path d="M20.6158 135.668V133.283" stroke="white" stroke-linejoin="round"/>
<path d="M27.5038 135.668V133.283" stroke="white" stroke-linejoin="round"/>
<path d="M34.3958 135.668V133.283" stroke="white" stroke-linejoin="round"/>
<path d="M41.2837 135.668V133.283" stroke="white" stroke-linejoin="round"/>
<path d="M48.1755 135.668V133.283" stroke="white" stroke-linejoin="round"/>
<path d="M55.0635 135.668V133.283" stroke="white" stroke-linejoin="round"/>
<path d="M61.9553 135.668V133.283" stroke="white" stroke-linejoin="round"/>
<path d="M68.8433 135.668V133.283" stroke="white" stroke-linejoin="round"/>
<path d="M75.7352 135.668V133.283" stroke="white" stroke-linejoin="round"/>
<path d="M82.623 135.668V133.283" stroke="white" stroke-linejoin="round"/>
<path d="M89.5149 135.668V133.283" stroke="white" stroke-linejoin="round"/>
<path d="M96.4028 135.668V133.283" stroke="white" stroke-linejoin="round"/>
<path d="M103.295 135.668V133.283" stroke="white" stroke-linejoin="round"/>
<path d="M110.183 135.668V133.283" stroke="white" stroke-linejoin="round"/>
<path d="M117.075 135.668V133.283" stroke="white" stroke-linejoin="round"/>
<path d="M123.962 135.668V133.283" stroke="white" stroke-linejoin="round"/>
<path d="M130.854 135.668V133.283" stroke="white" stroke-linejoin="round"/>
<path d="M137.746 135.668V133.283" stroke="white" stroke-linejoin="round"/>
<path d="M144.634 135.668V133.283" stroke="white" stroke-linejoin="round"/>
<path d="M151.526 135.668V133.283" stroke="white" stroke-linejoin="round"/>
<path d="M158.414 135.668V133.283" stroke="white" stroke-linejoin="round"/>
<path d="M165.306 135.668V133.283" stroke="white" stroke-linejoin="round"/>
<path d="M172.194 135.668V133.283" stroke="white" stroke-linejoin="round"/>
<path d="M179.086 135.668V133.283" stroke="white" stroke-linejoin="round"/>
<path d="M103.053 107.179H89.2729V91.8503H98.9502L103.053 94.9741V107.179Z" fill="white" stroke="#263238" stroke-linecap="round" stroke-linejoin="round"/>
<path d="M98.9502 91.8503V94.9741H103.053L98.9502 91.8503Z" fill="white" stroke="#263238" stroke-linecap="round" stroke-linejoin="round"/>
</svg>
