<svg width="241" height="150" viewBox="0 0 241 150" fill="none" xmlns="http://www.w3.org/2000/svg">
<path d="M50.7453 26.9939H12.9955V38.1457H50.7453V26.9939Z" fill="white"/>
<path d="M50.8996 38.2934H12.8445V26.8396H50.8996V38.2934ZM13.1464 37.9914H50.6077V27.1449H13.1464V37.9914Z" fill="#E0E0E0"/>
<path d="M22.2586 33.3662C22.5635 31.4879 21.2879 29.718 19.4096 29.4131C17.5313 29.1082 15.7614 30.3838 15.4565 32.2621C15.1516 34.1404 16.4272 35.9103 18.3055 36.2151C20.1838 36.52 21.9537 35.2445 22.2586 33.3662Z" fill="#EBEBEB"/>
<path d="M19.1383 32.8785C19.2797 32.816 19.3996 32.7134 19.4831 32.5834C19.5666 32.4534 19.61 32.3016 19.608 32.1471C19.6149 32.0458 19.6008 31.9441 19.5667 31.8485C19.5326 31.7528 19.4792 31.6651 19.4099 31.5909C19.3405 31.5167 19.2567 31.4576 19.1635 31.4171C19.0703 31.3767 18.9698 31.3558 18.8683 31.3558C18.7667 31.3558 18.6662 31.3767 18.5731 31.4171C18.4799 31.4576 18.396 31.5167 18.3267 31.5909C18.2573 31.6651 18.2039 31.7528 18.1698 31.8485C18.1357 31.9441 18.1217 32.0458 18.1285 32.1471C18.1272 32.3019 18.1713 32.4537 18.2554 32.5837C18.3395 32.7137 18.4598 32.8162 18.6016 32.8785C17.4642 33.0496 17.5146 34.2842 17.5146 34.2842H20.1985C20.1985 34.2842 20.269 33.0328 19.1383 32.8785Z" fill="white"/>
<path d="M46.4073 32.6738C46.4073 32.7174 41.5427 32.7509 35.5474 32.7509C29.5521 32.7509 24.6874 32.7174 24.6874 32.6738C24.6874 32.6302 29.5487 32.5933 35.5474 32.5933C41.546 32.5933 46.4073 32.6302 46.4073 32.6738Z" fill="#E0E0E0"/>
<path d="M77.6687 9.87366H39.9189V21.0255H77.6687V9.87366Z" fill="white"/>
<path d="M77.8197 21.1764H39.7679V9.72937H77.8197V21.1764ZM40.0699 20.8745H77.5177V10.0246H40.0699V20.8745Z" fill="#E0E0E0"/>
<path d="M45.7833 19.14C47.6862 19.14 49.2288 17.5973 49.2288 15.6944C49.2288 13.7915 47.6862 12.2489 45.7833 12.2489C43.8804 12.2489 42.3378 13.7915 42.3378 15.6944C42.3378 17.5973 43.8804 19.14 45.7833 19.14Z" fill="#EBEBEB"/>
<path d="M46.0618 15.7448C46.2024 15.6822 46.3217 15.58 46.4051 15.4507C46.4885 15.3214 46.5324 15.1706 46.5315 15.0168C46.5383 14.9154 46.5243 14.8138 46.4902 14.7181C46.4561 14.6224 46.4027 14.5348 46.3334 14.4606C46.264 14.3864 46.1801 14.3272 46.087 14.2868C45.9938 14.2463 45.8933 14.2255 45.7917 14.2255C45.6902 14.2255 45.5897 14.2463 45.4965 14.2868C45.4034 14.3272 45.3195 14.3864 45.2501 14.4606C45.1808 14.5348 45.1274 14.6224 45.0933 14.7181C45.0592 14.8138 45.0451 14.9154 45.052 15.0168C45.0491 15.1723 45.0926 15.3252 45.1768 15.456C45.261 15.5868 45.3822 15.6897 45.525 15.7515C44.3843 15.9226 44.438 17.1606 44.438 17.1606H47.122C47.122 17.1606 47.1891 15.9159 46.0618 15.7448Z" fill="white"/>
<path d="M73.3274 15.5536C73.3274 15.5972 68.4661 15.6341 62.4708 15.6341C56.4755 15.6341 51.6142 15.5972 51.6142 15.5536C51.6142 15.51 56.4755 15.4764 62.4741 15.4764C68.4728 15.4764 73.3274 15.51 73.3274 15.5536Z" fill="#E0E0E0"/>
<path d="M193.193 71.7588C186.372 66.2265 185.413 56.7991 186.298 48.4487C186.446 47.0564 186.396 45.5735 187.15 44.3959C187.905 43.2183 189.499 42.4903 190.72 43.168C191.727 43.7316 192.089 44.9696 192.599 46.0097C193.279 47.3937 194.338 48.5569 195.652 49.3646C196.507 49.8913 197.588 50.2537 198.5 49.8309C199.752 49.2539 200.013 47.5965 200.107 46.2076C200.275 43.6176 200.444 41.0264 200.614 38.4342C200.708 37.0453 200.805 35.6261 201.332 34.3378C201.859 33.0495 202.902 31.8954 204.251 31.617C205.599 31.3385 207.176 32.2242 207.357 33.6031C207.434 34.1768 207.277 34.7572 207.273 35.3342C207.27 35.9113 207.495 36.5722 208.032 36.7735C208.568 36.9748 209.159 36.6225 209.602 36.2434C211.138 34.9451 212.239 33.224 213.292 31.4761C214.346 29.7281 215.335 27.9769 216.741 26.5409C218.147 25.105 220.032 24.0214 222.045 24.0482C224.058 24.0751 226.071 25.4606 226.44 27.4501C226.809 29.4396 225.518 31.3519 224.159 32.8482C222.147 35.0729 219.824 36.994 217.261 38.5516C216.798 38.8334 216.302 39.1354 216.097 39.6353C215.728 40.5411 216.54 41.5241 217.439 41.8931C218.445 42.3125 219.583 42.2857 220.656 42.4937C221.73 42.7017 222.87 43.2586 223.206 44.3121C223.672 45.7748 222.377 47.1772 221.139 48.0696C218.657 49.8541 215.887 51.1989 212.95 52.0452C211.9 52.3438 210.803 52.5954 209.93 53.253C209.058 53.9105 208.468 55.125 208.894 56.1416C209.32 57.1581 210.571 57.5607 211.662 57.4399C212.752 57.3192 213.748 56.8059 214.795 56.4938C216.758 55.9101 219.214 56.2187 220.317 57.9566C221.045 59.1006 221.005 60.6137 220.505 61.8785C220.005 63.1433 219.103 64.1968 218.157 65.163C214.839 68.5179 210.712 71.1415 206.173 72.3593C201.634 73.5772 197.5 73.7013 193.213 71.7722" fill="#FAFAFA"/>
<path d="M195.726 66.6661C197.443 62.2076 199.414 57.8514 201.63 53.6187L203.355 50.2638C203.922 49.1667 204.485 48.0797 205.103 47.0531C206.291 45.082 207.586 43.178 208.984 41.3497C210.31 39.5951 211.628 37.9948 212.873 36.475C214.117 34.9552 215.308 33.5931 216.449 32.3853C218.234 30.4675 220.17 28.6949 222.236 27.0845C222.968 26.5142 223.548 26.078 223.944 25.8096L224.394 25.4976C224.442 25.4587 224.495 25.425 224.551 25.397C224.507 25.4412 224.458 25.4816 224.407 25.5178C224.3 25.605 224.152 25.7157 223.967 25.8532C223.582 26.1485 223.011 26.5846 222.29 27.1684C220.257 28.8052 218.351 30.5929 216.587 32.5162C215.459 33.7273 214.282 35.1095 213.04 36.6159C211.799 38.1223 210.494 39.7427 209.179 41.4973C207.791 43.3266 206.504 45.2306 205.324 47.2007C204.713 48.2072 204.157 49.3009 203.586 50.398L201.865 53.7529C199.652 57.9763 197.676 62.3198 195.947 66.7634" fill="#FAFAFA"/>
<path d="M205.177 47.0631C205.124 46.8657 205.093 46.6633 205.083 46.4593C205.039 46.0701 204.992 45.5065 204.942 44.8053C204.844 43.4096 204.777 41.4738 204.71 39.3401C204.643 37.2063 204.549 35.2772 204.428 33.8849C204.371 33.1905 204.321 32.6268 204.281 32.2377C204.244 32.0363 204.233 31.8312 204.247 31.6271C204.312 31.821 204.356 32.0211 204.378 32.2243C204.449 32.6101 204.529 33.1703 204.61 33.8682C204.774 35.2605 204.898 37.1929 204.965 39.33C205.032 41.4671 205.083 43.3559 205.123 44.7952C205.146 45.4662 205.166 46.0063 205.183 46.4525C205.203 46.6557 205.201 46.8605 205.177 47.0631Z" fill="#FAFAFA"/>
<path d="M223.28 45.0066C223.042 45.0384 222.802 45.0496 222.562 45.0401C222.102 45.0401 221.435 45.0569 220.609 45.0905C218.962 45.1509 216.684 45.3119 214.185 45.6004C211.685 45.8889 209.427 46.2714 207.81 46.5633C206.995 46.7109 206.341 46.8485 205.891 46.939C205.658 47.0028 205.42 47.0443 205.18 47.0632C205.395 46.9668 205.62 46.8926 205.851 46.8417C206.297 46.721 206.948 46.5532 207.756 46.3821C209.374 46.0265 211.631 45.6373 214.131 45.3421C216.272 45.0866 218.426 44.9422 220.582 44.9093C221.408 44.9093 222.079 44.9093 222.542 44.9395C222.789 44.9362 223.037 44.9587 223.28 45.0066Z" fill="#FAFAFA"/>
<path d="M195.971 66.3541C195.923 66.2856 195.886 66.2096 195.863 66.1293C195.793 65.9481 195.706 65.7267 195.605 65.4583C195.38 64.8779 195.081 64.0291 194.726 62.9756C194.008 60.8654 193.112 57.9231 192.169 54.6621C191.227 51.4011 190.354 48.4487 189.687 46.3318C189.351 45.2984 189.086 44.4496 188.885 43.8223C188.801 43.5472 188.731 43.3224 188.67 43.1513C188.64 43.0726 188.621 42.9902 188.613 42.9064C188.659 42.9758 188.696 43.0515 188.721 43.1312C188.791 43.3123 188.875 43.5337 188.979 43.8021C189.2 44.3859 189.502 45.2347 189.858 46.2882C190.572 48.3984 191.468 51.3407 192.414 54.605C193.36 57.8694 194.226 60.8117 194.897 62.9354C195.232 63.9653 195.498 64.8141 195.695 65.4415L195.91 66.1125C195.94 66.1904 195.96 66.2715 195.971 66.3541Z" fill="#FAFAFA"/>
<path d="M220.257 60.409C220.18 60.4445 220.099 60.4715 220.015 60.4896L219.311 60.6707L216.707 61.3115C214.513 61.8517 211.487 62.6367 208.146 63.5056C204.804 64.3746 201.771 65.1328 199.56 65.6293C198.457 65.8776 197.547 66.0722 196.94 66.1896L196.222 66.3238C196.14 66.3472 196.056 66.3574 195.971 66.354C196.047 66.3167 196.128 66.2896 196.212 66.2735L196.917 66.0923L199.52 65.4515C201.714 64.9114 204.74 64.1095 208.082 63.2574C211.423 62.4052 214.456 61.6302 216.667 61.1337C217.771 60.8821 218.68 60.6909 219.287 60.5701L220.005 60.4359C220.087 60.4143 220.172 60.4053 220.257 60.409Z" fill="#FAFAFA"/>
<path d="M19.4605 116.89C18.0615 116.168 16.4142 116.074 14.8608 116.333C14.0255 116.47 13.1565 116.718 12.5862 117.339C12.0159 117.96 11.9152 119.07 12.5627 119.607C12.9843 119.892 13.492 120.021 13.9986 119.973C15.2131 119.973 16.5618 119.745 17.5347 120.476C18.0883 120.892 18.4573 121.586 19.1216 121.791C19.4531 121.868 19.8005 121.834 20.1115 121.696C20.4225 121.559 20.6803 121.323 20.8461 121.026C21.1611 120.417 21.2308 119.709 21.0406 119.05C20.9611 118.593 20.7771 118.16 20.5031 117.785C20.229 117.41 19.8722 117.104 19.4605 116.89Z" fill="#EBEBEB"/>
<path d="M22.6678 110.713C21.8123 111.938 20.1482 111.532 19.3766 110.787C18.605 110.042 18.2795 108.958 17.9843 107.928C17.3133 105.58 16.6222 103.101 17.1254 100.702C17.2495 99.968 17.5747 99.2828 18.0648 98.7225C18.3082 98.4457 18.6202 98.2379 18.9695 98.1201C19.3188 98.0023 19.693 97.9786 20.0543 98.0515C20.893 98.273 21.3963 99.0949 21.7888 99.8766C22.8972 102.18 23.4793 104.701 23.4931 107.258C23.4931 108.449 23.3556 109.697 22.6846 110.68" fill="#EBEBEB"/>
<path d="M25.0162 112.454C24.0903 111.351 23.9125 109.743 24.3251 108.361C24.7944 106.988 25.6338 105.772 26.7507 104.845C28.0175 103.718 29.4921 102.848 31.092 102.285C31.7097 102.034 32.3749 101.919 33.0412 101.95C33.3746 101.969 33.6982 102.069 33.984 102.242C34.2699 102.414 34.5094 102.654 34.6818 102.94C35.1381 103.812 34.6818 104.869 34.2255 105.731C33.3908 107.251 32.4372 108.703 31.3738 110.072C30.5217 111.173 29.542 112.26 28.2403 112.756C26.9386 113.253 25.5832 113.196 24.8854 112.29" fill="#EBEBEB"/>
<path d="M22.7249 129.138C22.6804 128.956 22.6545 128.769 22.6477 128.581C22.6074 128.179 22.5605 127.672 22.5001 127.068C22.4255 126.322 22.3136 125.579 22.1646 124.844C21.9654 123.949 21.6951 123.072 21.356 122.221C21.0241 121.369 20.5722 120.569 20.0141 119.845C19.566 119.257 18.9931 118.776 18.3366 118.436C17.8876 118.214 17.4064 118.065 16.9107 117.993C16.7239 117.986 16.5383 117.959 16.3572 117.913C16.5446 117.893 16.7334 117.893 16.9208 117.913C17.4323 117.952 17.9329 118.081 18.4003 118.292C19.0965 118.621 19.7073 119.107 20.1852 119.711C20.7608 120.442 21.2254 121.253 21.564 122.12C21.91 122.989 22.1783 123.887 22.3659 124.804C22.5094 125.548 22.608 126.299 22.6611 127.055C22.7114 127.699 22.7282 128.219 22.7383 128.581C22.7544 128.767 22.7499 128.954 22.7249 129.138Z" fill="#E0E0E0"/>
<path d="M22.6208 127.971C22.6106 127.885 22.6106 127.798 22.6208 127.712V126.978C22.6208 126.337 22.6208 125.411 22.5873 124.27C22.5336 121.982 22.3356 119.523 21.9565 116.054C21.5942 112.793 21.1111 109.009 20.6146 106.533C20.5072 105.969 20.3965 105.466 20.2791 105.023C20.1616 104.58 20.0945 104.198 20.014 103.889C19.9335 103.58 19.8865 103.359 19.8429 103.171C19.8185 103.088 19.8028 103.003 19.796 102.916C19.8369 102.993 19.8674 103.076 19.8865 103.161L20.1013 103.866C20.1952 104.171 20.2925 104.537 20.4032 104.993C20.5139 105.449 20.6414 105.936 20.7622 106.496C21.3922 109.415 21.867 112.366 22.1847 115.336C22.5638 118.812 22.7349 121.976 22.7517 124.267C22.7517 125.411 22.7517 126.34 22.7114 126.978C22.6913 127.28 22.6779 127.521 22.6644 127.716C22.6607 127.802 22.646 127.888 22.6208 127.971Z" fill="#E0E0E0"/>
<path d="M22.6074 121.868C22.587 121.612 22.587 121.356 22.6074 121.1C22.6376 120.603 22.7047 119.889 22.8423 119.013C23.0081 117.988 23.2321 116.973 23.5133 115.974C23.8491 114.748 24.2776 113.551 24.7948 112.39C25.678 110.244 26.9432 108.275 28.5289 106.58C28.804 106.29 29.0964 106.018 29.4045 105.764C29.5421 105.65 29.6595 105.536 29.7803 105.449L30.1158 105.214C30.3198 105.058 30.5363 104.919 30.7633 104.798C30.0187 105.383 29.3116 106.014 28.6463 106.687C27.1124 108.396 25.8814 110.355 25.0062 112.478C24.5011 113.634 24.0741 114.824 23.728 116.037C23.3925 117.154 23.1744 118.181 23.0067 119.057C22.8389 119.932 22.755 120.634 22.7014 121.123C22.6865 121.373 22.6551 121.622 22.6074 121.868Z" fill="#E0E0E0"/>
<path d="M28.5054 132.634L27.8948 141.012H17.1288L16.5182 132.634H28.5054Z" fill="#E0E0E0"/>
<path d="M29.5454 129.333H15.2332V132.634H29.5454V129.333Z" fill="#E0E0E0"/>
<path d="M29.5454 140.693V141.609H28.8711H15.4714V140.693H29.5454Z" fill="#EBEBEB"/>
<path d="M28.2135 143.219L28.8711 141.609H15.9847L16.753 143.219H28.2135Z" fill="#E0E0E0"/>
<path d="M16.7228 135.372C16.7228 135.372 16.7228 135.402 16.7732 135.449L16.9342 135.664L17.5582 136.466L17.5884 136.502L17.6153 136.466L19.1552 134.332H19.0713C19.5276 134.983 20.0375 135.704 20.5877 136.482L20.6347 136.549L20.6884 136.486C21.2453 135.815 21.8559 135.097 22.4866 134.345H22.3826L22.4799 134.469C23.0402 135.167 23.5803 135.845 24.0903 136.482L24.144 136.549L24.1909 136.479L25.7107 134.332H25.6134L27.4821 136.462L27.5157 136.499L27.5425 136.456C27.7874 136.043 27.9854 135.714 28.1263 135.473L28.2773 135.211C28.2972 135.182 28.313 135.15 28.3242 135.117C28.3004 135.143 28.279 135.171 28.2605 135.201L28.0961 135.452C27.9451 135.687 27.7405 136.013 27.4788 136.419H27.5392L25.7007 134.261L25.6537 134.208L25.6101 134.265C25.1471 134.916 24.6304 135.634 24.0802 136.402H24.1842L22.5806 134.389L22.4799 134.265L22.4262 134.198L22.3726 134.258C21.7452 135.013 21.1379 135.738 20.581 136.402H20.6817C20.1281 135.627 19.6114 134.909 19.1485 134.265L19.1048 134.201L19.0612 134.265L17.5515 136.419H17.6052L16.9577 135.64L16.7832 135.439C16.7646 135.415 16.7445 135.393 16.7228 135.372Z" fill="#F5F5F5"/>
<path d="M16.3672 132.581C16.3672 132.617 19.0511 132.648 22.4061 132.648C25.761 132.648 28.445 132.617 28.445 132.581C28.445 132.544 25.761 132.513 22.4061 132.513C19.0511 132.513 16.3672 132.544 16.3672 132.581Z" fill="#F5F5F5"/>
<path d="M15.8237 141.699C15.8237 141.736 18.7559 141.766 22.3692 141.766C25.9825 141.766 28.9181 141.736 28.9181 141.699C28.9181 141.662 25.9858 141.632 22.3692 141.632C18.7526 141.632 15.8237 141.662 15.8237 141.699Z" fill="#F5F5F5"/>
<path d="M109.202 116.017H71.452V127.169H109.202V116.017Z" fill="white"/>
<path d="M109.356 127.317H71.301V115.863H109.356V127.317ZM71.6063 127.015H109.054V116.168H71.6063V127.015Z" fill="#E0E0E0"/>
<path d="M77.3198 125.28C79.2227 125.28 80.7653 123.738 80.7653 121.835C80.7653 119.932 79.2227 118.389 77.3198 118.389C75.4169 118.389 73.8743 119.932 73.8743 121.835C73.8743 123.738 75.4169 125.28 77.3198 125.28Z" fill="#EBEBEB"/>
<path d="M77.5982 121.888C77.7385 121.825 77.8574 121.722 77.9407 121.592C78.024 121.462 78.0682 121.311 78.0679 121.157C78.0747 121.056 78.0606 120.954 78.0266 120.858C77.9925 120.763 77.9391 120.675 77.8697 120.601C77.8004 120.527 77.7165 120.467 77.6233 120.427C77.5302 120.387 77.4297 120.366 77.3281 120.366C77.2265 120.366 77.1261 120.387 77.0329 120.427C76.9397 120.467 76.8559 120.527 76.7865 120.601C76.7171 120.675 76.6638 120.763 76.6297 120.858C76.5956 120.954 76.5815 121.056 76.5883 121.157C76.5855 121.313 76.6285 121.466 76.712 121.597C76.7955 121.728 76.9159 121.832 77.058 121.895C75.9207 122.066 75.971 123.301 75.971 123.301H78.655C78.655 123.301 78.7254 122.056 77.5982 121.888Z" fill="white"/>
<path d="M104.864 121.697C104.864 121.741 100.002 121.774 94.0039 121.774C88.0052 121.774 83.1473 121.741 83.1473 121.697C83.1473 121.653 88.0052 121.617 94.0039 121.617C100.002 121.617 104.864 121.653 104.864 121.697Z" fill="#E0E0E0"/>
<path d="M138.39 104.745H100.64V115.896H138.39V104.745Z" fill="white"/>
<path d="M138.541 116.047H100.489V104.594H138.541V116.047ZM100.791 115.745H138.239V104.899H100.791V115.745Z" fill="#E0E0E0"/>
<path d="M106.504 114.011C108.407 114.011 109.95 112.468 109.95 110.565C109.95 108.662 108.407 107.12 106.504 107.12C104.601 107.12 103.059 108.662 103.059 110.565C103.059 112.468 104.601 114.011 106.504 114.011Z" fill="#EBEBEB"/>
<path d="M106.783 110.616C106.923 110.553 107.043 110.451 107.126 110.322C107.21 110.192 107.253 110.042 107.253 109.888C107.259 109.786 107.245 109.685 107.211 109.589C107.177 109.493 107.124 109.406 107.054 109.332C106.985 109.257 106.901 109.198 106.808 109.158C106.715 109.117 106.614 109.096 106.513 109.096C106.411 109.096 106.311 109.117 106.218 109.158C106.124 109.198 106.041 109.257 105.971 109.332C105.902 109.406 105.848 109.493 105.814 109.589C105.78 109.685 105.766 109.786 105.773 109.888C105.77 110.043 105.814 110.196 105.898 110.327C105.982 110.458 106.103 110.561 106.246 110.622C105.105 110.797 105.159 112.032 105.159 112.032H107.843C107.843 112.032 107.91 110.787 106.783 110.616Z" fill="white"/>
<path d="M134.048 110.425C134.048 110.468 129.187 110.505 123.192 110.505C117.197 110.505 112.332 110.468 112.332 110.425C112.332 110.381 117.193 110.347 123.192 110.347C129.19 110.347 134.048 110.378 134.048 110.425Z" fill="#E0E0E0"/>
<path d="M150.625 124.093L150.112 133.543C150.102 133.705 150.032 133.858 149.914 133.969C149.796 134.081 149.64 134.143 149.478 134.144L132.475 134.271C132.391 134.272 132.308 134.256 132.231 134.224C132.153 134.193 132.083 134.146 132.023 134.087C131.964 134.028 131.916 133.958 131.884 133.881C131.852 133.804 131.835 133.721 131.834 133.637L131.797 126.28C131.796 126.196 131.812 126.112 131.844 126.034C131.876 125.957 131.922 125.886 131.982 125.826C132.041 125.766 132.112 125.719 132.189 125.687C132.267 125.655 132.351 125.639 132.435 125.639H142.892C142.976 125.639 143.058 125.622 143.136 125.59C143.213 125.558 143.283 125.511 143.342 125.451L145.147 123.65C145.266 123.532 145.425 123.465 145.593 123.462L150.001 123.432C150.086 123.433 150.169 123.452 150.246 123.486C150.324 123.52 150.394 123.57 150.452 123.631C150.51 123.693 150.555 123.765 150.585 123.845C150.615 123.924 150.628 124.008 150.625 124.093Z" fill="#E8505B"/>
<g opacity="0.3">
<path opacity="0.3" d="M150.625 124.093L150.112 133.543C150.102 133.705 150.032 133.858 149.914 133.969C149.796 134.081 149.64 134.143 149.478 134.144L132.475 134.271C132.391 134.272 132.308 134.256 132.231 134.224C132.153 134.193 132.083 134.146 132.023 134.087C131.964 134.028 131.916 133.958 131.884 133.881C131.852 133.804 131.835 133.721 131.834 133.637L131.797 126.28C131.796 126.196 131.812 126.112 131.844 126.034C131.876 125.957 131.922 125.886 131.982 125.826C132.041 125.766 132.112 125.719 132.189 125.687C132.267 125.655 132.351 125.639 132.435 125.639H142.892C142.976 125.639 143.058 125.622 143.136 125.59C143.213 125.558 143.283 125.511 143.342 125.451L145.147 123.65C145.266 123.532 145.425 123.465 145.593 123.462L150.001 123.432C150.086 123.433 150.169 123.452 150.246 123.486C150.324 123.52 150.394 123.57 150.452 123.631C150.51 123.693 150.555 123.765 150.585 123.845C150.615 123.924 150.628 124.008 150.625 124.093Z" fill="black"/>
</g>
<path d="M131.845 135.631L150.424 135.494L150.343 124.393L131.764 124.529L131.845 135.631Z" fill="#F5F5F5"/>
<path d="M151.83 125.378L150.488 136.962C150.475 137.062 150.428 137.154 150.353 137.221C150.278 137.288 150.182 137.326 150.082 137.328L131.965 137.459C131.862 137.46 131.762 137.422 131.686 137.352C131.61 137.282 131.563 137.186 131.556 137.083L130.549 125.515C130.544 125.459 130.551 125.402 130.569 125.349C130.586 125.295 130.615 125.246 130.653 125.204C130.691 125.162 130.737 125.128 130.788 125.105C130.84 125.082 130.895 125.07 130.952 125.069L151.39 124.918C151.451 124.914 151.511 124.923 151.568 124.944C151.625 124.966 151.676 125 151.718 125.044C151.76 125.088 151.792 125.141 151.811 125.198C151.83 125.256 151.837 125.317 151.83 125.378Z" fill="#FAFAFA"/>
<path d="M155.617 122.311L155.104 131.759C155.096 131.921 155.026 132.073 154.908 132.185C154.791 132.298 154.636 132.361 154.473 132.362L137.467 132.487C137.298 132.487 137.136 132.419 137.016 132.3C136.897 132.18 136.83 132.018 136.83 131.849L136.776 124.495C136.775 124.411 136.791 124.328 136.823 124.25C136.854 124.172 136.901 124.101 136.961 124.041C137.02 123.982 137.09 123.934 137.168 123.902C137.246 123.87 137.329 123.854 137.413 123.854H147.871C147.954 123.854 148.037 123.838 148.114 123.805C148.192 123.773 148.262 123.726 148.32 123.666L150.125 121.862C150.184 121.803 150.254 121.757 150.33 121.725C150.407 121.693 150.489 121.677 150.572 121.677L154.98 121.643C155.066 121.643 155.152 121.661 155.231 121.695C155.31 121.729 155.382 121.778 155.442 121.841C155.501 121.903 155.548 121.977 155.578 122.058C155.608 122.139 155.621 122.225 155.617 122.311Z" fill="#E0E0E0"/>
<path d="M136.85 133.845L155.429 133.709L155.348 122.608L136.769 122.744L136.85 133.845Z" fill="#F5F5F5"/>
<path d="M156.832 123.593L155.49 135.181C155.478 135.28 155.431 135.372 155.356 135.439C155.281 135.506 155.184 135.543 155.084 135.543L136.967 135.677C136.864 135.678 136.765 135.639 136.689 135.569C136.613 135.5 136.566 135.404 136.558 135.301L135.551 123.73C135.546 123.674 135.553 123.617 135.571 123.564C135.589 123.51 135.618 123.461 135.657 123.419C135.695 123.377 135.741 123.344 135.793 123.321C135.845 123.299 135.901 123.287 135.957 123.287L156.423 123.126C156.481 123.126 156.54 123.138 156.594 123.162C156.647 123.186 156.695 123.221 156.734 123.266C156.773 123.31 156.802 123.362 156.819 123.419C156.836 123.475 156.84 123.534 156.832 123.593Z" fill="#E0E0E0"/>
<path d="M161.267 124.522L160.75 133.973C160.742 134.135 160.672 134.288 160.555 134.4C160.437 134.512 160.282 134.575 160.12 134.577L143.117 134.701C142.947 134.702 142.785 134.636 142.664 134.517C142.543 134.398 142.474 134.236 142.473 134.067L142.419 126.713C142.418 126.629 142.434 126.545 142.466 126.467C142.497 126.389 142.544 126.318 142.603 126.258C142.663 126.198 142.733 126.15 142.811 126.118C142.889 126.085 142.972 126.069 143.056 126.069H153.514C153.597 126.069 153.68 126.053 153.757 126.021C153.834 125.989 153.904 125.943 153.963 125.884L155.768 124.079C155.888 123.963 156.048 123.896 156.214 123.891L160.623 123.861C160.709 123.861 160.794 123.877 160.874 123.911C160.953 123.944 161.025 123.993 161.085 124.055C161.146 124.116 161.193 124.19 161.224 124.27C161.255 124.35 161.27 124.436 161.267 124.522Z" fill="#F5F5F5"/>
<path d="M142.487 136.061L161.066 135.925L160.985 124.823L142.406 124.96L142.487 136.061Z" fill="#F5F5F5"/>
<path d="M162.471 125.81L161.13 137.398C161.117 137.498 161.069 137.589 160.995 137.656C160.92 137.722 160.824 137.76 160.724 137.761L142.607 137.891C142.504 137.893 142.404 137.856 142.327 137.787C142.25 137.718 142.203 137.622 142.194 137.519L141.188 125.948C141.183 125.891 141.19 125.835 141.208 125.781C141.227 125.728 141.256 125.678 141.294 125.637C141.332 125.595 141.378 125.561 141.43 125.538C141.481 125.515 141.537 125.502 141.594 125.502L162.029 125.354C162.089 125.349 162.15 125.357 162.208 125.378C162.265 125.399 162.316 125.433 162.359 125.477C162.401 125.52 162.433 125.573 162.453 125.631C162.472 125.688 162.479 125.75 162.471 125.81Z" fill="#F5F5F5"/>
<path d="M141.218 127.384V143.457H164.404V127.384H141.218ZM148.787 130.272C148.787 129.958 148.911 129.657 149.134 129.435C149.356 129.213 149.657 129.088 149.971 129.088H155.648C155.809 129.08 155.97 129.104 156.121 129.16C156.272 129.215 156.411 129.301 156.528 129.412C156.645 129.523 156.738 129.657 156.802 129.805C156.865 129.953 156.898 130.113 156.898 130.274C156.898 130.435 156.865 130.595 156.802 130.743C156.738 130.891 156.645 131.025 156.528 131.136C156.411 131.247 156.272 131.333 156.121 131.389C155.97 131.444 155.809 131.469 155.648 131.46H149.971C149.815 131.46 149.661 131.429 149.517 131.37C149.373 131.31 149.242 131.222 149.132 131.112C149.022 131.002 148.935 130.871 148.876 130.727C148.817 130.583 148.786 130.428 148.787 130.272Z" fill="#EBEBEB"/>
<path d="M128.717 127.384V143.457H141.218V127.384H128.717Z" fill="#E0E0E0"/>
<path d="M200.802 95.6125H55.5529L55.8481 13.2957H201.094L200.802 95.6125Z" fill="white"/>
<path d="M58.3677 16.144C58.7438 16.144 59.0488 15.8451 59.0488 15.4763C59.0488 15.1076 58.7438 14.8087 58.3677 14.8087C57.9916 14.8087 57.6866 15.1076 57.6866 15.4763C57.6866 15.8451 57.9916 16.144 58.3677 16.144Z" fill="#263238"/>
<path d="M61.159 16.144C61.5351 16.144 61.8401 15.8451 61.8401 15.4763C61.8401 15.1076 61.5351 14.8087 61.159 14.8087C60.7829 14.8087 60.478 15.1076 60.478 15.4763C60.478 15.8451 60.7829 16.144 61.159 16.144Z" fill="#263238"/>
<path d="M63.9503 16.144C64.3264 16.144 64.6313 15.8451 64.6313 15.4763C64.6313 15.1076 64.3264 14.8087 63.9503 14.8087C63.5741 14.8087 63.2692 15.1076 63.2692 15.4763C63.2692 15.8451 63.5741 16.144 63.9503 16.144Z" fill="#263238"/>
<path d="M200.802 18.8346C200.802 18.8782 168.346 18.9151 128.335 18.9151C88.324 18.9151 55.8481 18.8782 55.8481 18.8346C55.8481 18.791 88.2938 18.7574 128.335 18.7574C168.376 18.7574 200.802 18.7876 200.802 18.8346Z" fill="#263238"/>
<path d="M65.9264 25.1621H55.5529V95.7132H65.9264V25.1621Z" fill="#EBEBEB"/>
<path d="M76.3401 25.0615H65.7184V95.6125H76.3401V25.0615Z" fill="#DEE9F0"/>
<path d="M86.7136 25.0615H76.3401V95.6125H86.7136V25.0615Z" fill="#EBEBEB"/>
<path d="M97.1273 25.0615H86.5056V95.6125H97.1273V25.0615Z" fill="#DEE9F0"/>
<path d="M107.497 25.0615H97.124V95.6125H107.497V25.0615Z" fill="#EBEBEB"/>
<path d="M117.911 25.0615H107.289V95.6125H117.911V25.0615Z" fill="#DEE9F0"/>
<path d="M128.285 25.0615H117.911V95.6125H128.285V25.0615Z" fill="#EBEBEB"/>
<path d="M138.695 25.0615H128.073V95.6125H138.695V25.0615Z" fill="#DEE9F0"/>
<path d="M149.069 25.0615H138.695V95.6125H149.069V25.0615Z" fill="#EBEBEB"/>
<path d="M159.482 25.0615H148.86V95.6125H159.482V25.0615Z" fill="#DEE9F0"/>
<path d="M169.852 25.0615H159.479V95.6125H169.852V25.0615Z" fill="#EBEBEB"/>
<path d="M180.266 25.0615H169.644V95.6125H180.266V25.0615Z" fill="#DEE9F0"/>
<path d="M190.64 25.0615H180.266V95.6125H190.64V25.0615Z" fill="#EBEBEB"/>
<path d="M200.802 25.0615H190.428V95.6125H200.802V25.0615Z" fill="#DEE9F0"/>
<path d="M77.9706 95.3944C77.927 95.3944 77.8934 79.6463 77.8934 60.2245C77.8934 40.8028 77.927 25.0547 77.9706 25.0547C78.0142 25.0547 78.0511 40.7994 78.0511 60.2245C78.0511 79.6496 78.0142 95.3944 77.9706 95.3944Z" fill="#004FA1"/>
<path d="M91.387 35.2302H61.2899V44.0504H91.387V35.2302Z" fill="#F79B3C"/>
<path d="M66.0103 42.5609C67.5407 42.5609 68.7814 41.3412 68.7814 39.8366C68.7814 38.3321 67.5407 37.1124 66.0103 37.1124C64.4798 37.1124 63.2391 38.3321 63.2391 39.8366C63.2391 41.3412 64.4798 42.5609 66.0103 42.5609Z" fill="#004FA1"/>
<path d="M66.235 39.8735C66.348 39.8253 66.4442 39.7448 66.5117 39.6422C66.5791 39.5395 66.6147 39.4193 66.6141 39.2964C66.6203 39.2145 66.6095 39.1321 66.5823 39.0546C66.5552 38.977 66.5123 38.9058 66.4564 38.8456C66.4005 38.7853 66.3328 38.7372 66.2575 38.7044C66.1821 38.6715 66.1008 38.6545 66.0186 38.6545C65.9364 38.6545 65.8551 38.6715 65.7798 38.7044C65.7045 38.7372 65.6367 38.7853 65.5808 38.8456C65.5249 38.9058 65.4821 38.977 65.4549 39.0546C65.4278 39.1321 65.417 39.2145 65.4231 39.2964C65.4219 39.4198 65.4572 39.5408 65.5247 39.6441C65.5921 39.7474 65.6887 39.8284 65.8022 39.8769C64.8863 40.0144 64.9266 40.994 64.9266 40.994H67.0939C67.0939 40.994 67.1442 40.011 66.235 39.8735Z" fill="white"/>
<path d="M87.8475 39.7226C87.8475 39.7662 84.0061 39.8031 79.2723 39.8031C74.5385 39.8031 70.6937 39.7662 70.6937 39.7226C70.6937 39.6789 74.5351 39.6454 79.2723 39.6454C84.0095 39.6454 87.8475 39.6789 87.8475 39.7226Z" fill="white"/>
<path d="M152.561 71.5978H146.559C140.416 71.5978 135.421 66.6862 135.421 60.6473V49.576C135.421 43.7049 130.559 38.9274 124.584 38.9274L91.4071 39.0918V38.7899L124.587 38.6255C130.73 38.6255 135.726 43.5371 135.726 49.576V60.6473C135.726 66.5185 140.587 71.2925 146.562 71.2925H152.581L152.561 71.5978Z" fill="#004FA1"/>
<path d="M171.862 67.5786H148.686V76.3988H171.862V67.5786Z" fill="white"/>
<path d="M172.013 76.5531H148.528V67.4343H172.013V76.5531ZM148.837 76.2511H171.721V67.7329H148.837V76.2511Z" fill="#004FA1"/>
<path d="M153.406 74.9091C154.937 74.9091 156.178 73.6895 156.178 72.1849C156.178 70.6804 154.937 69.4607 153.406 69.4607C151.876 69.4607 150.635 70.6804 150.635 72.1849C150.635 73.6895 151.876 74.9091 153.406 74.9091Z" fill="#004FA1"/>
<path d="M153.631 72.2252C153.744 72.1765 153.839 72.0958 153.906 71.9932C153.973 71.8906 154.008 71.7706 154.007 71.6481C154.007 71.4907 153.944 71.3396 153.833 71.2283C153.722 71.1169 153.571 71.0543 153.413 71.0543C153.256 71.0543 153.105 71.1169 152.993 71.2283C152.882 71.3396 152.819 71.4907 152.819 71.6481C152.816 71.7723 152.851 71.8944 152.919 71.9986C152.986 72.1027 153.084 72.184 153.198 72.2319C152.283 72.3661 152.323 73.3457 152.323 73.3457H154.49C154.49 73.3457 154.537 72.3594 153.631 72.2252Z" fill="white"/>
<path d="M166.041 72.0743C165.939 72.0968 165.834 72.107 165.729 72.1045C165.528 72.1045 165.236 72.1213 164.877 72.128C164.159 72.128 163.166 72.1515 162.069 72.1515C160.972 72.1515 159.979 72.1515 159.261 72.128C158.902 72.128 158.61 72.128 158.409 72.1045C158.304 72.107 158.199 72.0968 158.097 72.0743C158.198 72.0475 158.304 72.0373 158.409 72.0441C158.61 72.0441 158.902 72.024 159.261 72.0173C159.979 72.0173 160.972 71.9938 162.069 71.9938C163.166 71.9938 164.159 71.9938 164.877 72.0173C165.236 72.0173 165.528 72.034 165.729 72.0441C165.834 72.0373 165.939 72.0475 166.041 72.0743Z" fill="#004FA1"/>
<path d="M191.672 58.609L171.996 58.5437L171.966 67.3638L191.643 67.429L191.672 58.609Z" fill="white"/>
<path d="M191.797 67.5786L171.815 67.5115L171.848 58.3894L191.827 58.4531L191.797 67.5786ZM172.12 67.2095L191.495 67.2766L191.525 58.7584L172.15 58.6914L172.12 67.2095Z" fill="#263238"/>
<path d="M179.303 63.1702C179.299 63.7058 179.135 64.2279 178.834 64.6708C178.533 65.1137 178.108 65.4575 177.611 65.6588C177.115 65.8601 176.57 65.9098 176.046 65.8017C175.521 65.6937 175.04 65.4327 174.664 65.0517C174.288 64.6706 174.032 64.1866 173.931 63.6608C173.829 63.1349 173.886 62.5908 174.093 62.097C174.301 61.6032 174.65 61.1819 175.096 60.8863C175.543 60.5907 176.067 60.434 176.602 60.4359C176.959 60.4381 177.312 60.5106 177.641 60.6492C177.97 60.7878 178.268 60.9898 178.519 61.2437C178.77 61.4976 178.968 61.7984 179.103 62.129C179.237 62.4595 179.305 62.8133 179.303 63.1702Z" fill="#004FA1"/>
<path d="M176.814 63.2005C176.925 63.1521 177.02 63.0717 177.085 62.9696C177.151 62.8675 177.185 62.7482 177.183 62.6268C177.183 62.5506 177.168 62.4751 177.139 62.4047C177.11 62.3343 177.067 62.2703 177.013 62.2164C176.959 62.1625 176.895 62.1197 176.825 62.0906C176.754 62.0614 176.679 62.0464 176.602 62.0464C176.526 62.0464 176.451 62.0614 176.38 62.0906C176.31 62.1197 176.246 62.1625 176.192 62.2164C176.138 62.2703 176.095 62.3343 176.066 62.4047C176.037 62.4751 176.022 62.5506 176.022 62.6268C176.019 62.7497 176.052 62.8708 176.118 62.9747C176.184 63.0787 176.279 63.1608 176.391 63.2106C175.495 63.3448 175.532 64.321 175.532 64.321L177.649 64.3378C177.649 64.3378 177.7 63.3414 176.814 63.2005Z" fill="white"/>
<path d="M189.475 63.0997C189.365 63.1229 189.252 63.133 189.14 63.1299L188.251 63.15C187.499 63.15 186.463 63.1668 185.315 63.15C184.168 63.1332 183.131 63.15 182.383 63.1165L181.494 63.0863C181.381 63.0897 181.269 63.0796 181.158 63.0561C181.269 63.0326 181.381 63.0224 181.494 63.0259C181.702 63.0259 182.007 63.0259 182.383 63.0057C183.135 63.0057 184.171 62.989 185.315 63.0057C186.459 63.0225 187.499 63.0259 188.251 63.0427C188.627 63.0427 188.922 63.0427 189.14 63.0695C189.253 63.065 189.365 63.0751 189.475 63.0997Z" fill="#263238"/>
<path d="M125.443 50.1597H91.4172V58.9798H125.443V50.1597Z" fill="white"/>
<path d="M125.597 59.1309H91.2662V50.0088H125.597V59.1309ZM91.5715 58.8289H125.295V50.3242H91.5715V58.8289Z" fill="#455A64"/>
<path d="M121.638 54.652C121.638 54.6956 117.472 54.7325 112.329 54.7325C107.185 54.7325 103.019 54.6956 103.019 54.652C103.019 54.6084 107.185 54.5748 112.329 54.5748C117.472 54.5748 121.638 54.6084 121.638 54.652Z" fill="#455A64"/>
<path d="M96.6409 57.3762C98.1713 57.3762 99.412 56.1565 99.412 54.6519C99.412 53.1474 98.1713 51.9277 96.6409 51.9277C95.1104 51.9277 93.8697 53.1474 93.8697 54.6519C93.8697 56.1565 95.1104 57.3762 96.6409 57.3762Z" fill="#004FA1"/>
<path d="M96.8657 54.6855C96.9772 54.6376 97.0722 54.5581 97.139 54.4567C97.2058 54.3553 97.2414 54.2366 97.2414 54.1152C97.2476 54.0332 97.2367 53.9509 97.2096 53.8733C97.1825 53.7957 97.1396 53.7246 97.0837 53.6643C97.0278 53.604 96.9601 53.556 96.8847 53.5231C96.8094 53.4902 96.7281 53.4733 96.6459 53.4733C96.5637 53.4733 96.4824 53.4902 96.4071 53.5231C96.3317 53.556 96.264 53.604 96.2081 53.6643C96.1522 53.7246 96.1093 53.7957 96.0822 53.8733C96.0551 53.9509 96.0442 54.0332 96.0504 54.1152C96.0489 54.239 96.0841 54.3606 96.1516 54.4645C96.219 54.5683 96.3157 54.6499 96.4295 54.6989C95.5136 54.8331 95.5572 55.8128 95.5572 55.8128H97.7212C97.7212 55.8128 97.7749 54.8264 96.8657 54.6855Z" fill="white"/>
<path d="M148.434 59.1677H118.337V67.9879H148.434V59.1677Z" fill="white"/>
<path d="M148.572 68.1422H118.183V59.0167H148.572V68.1422ZM118.475 67.8369H148.27V59.322H118.488L118.475 67.8369Z" fill="#263238"/>
<path d="M123.054 66.4984C124.585 66.4984 125.826 65.2787 125.826 63.7741C125.826 62.2696 124.585 61.0499 123.054 61.0499C121.524 61.0499 120.283 62.2696 120.283 63.7741C120.283 65.2787 121.524 66.4984 123.054 66.4984Z" fill="#004FA1"/>
<path d="M123.279 63.8144C123.392 63.7666 123.489 63.6862 123.556 63.5835C123.624 63.4807 123.659 63.3603 123.658 63.2374C123.664 63.1554 123.654 63.0731 123.626 62.9955C123.599 62.9179 123.556 62.8467 123.5 62.7865C123.445 62.7262 123.377 62.6782 123.302 62.6453C123.226 62.6124 123.145 62.5955 123.063 62.5955C122.98 62.5955 122.899 62.6124 122.824 62.6453C122.749 62.6782 122.681 62.7262 122.625 62.7865C122.569 62.8467 122.526 62.9179 122.499 62.9955C122.472 63.0731 122.461 63.1554 122.467 63.2374C122.466 63.3612 122.501 63.4828 122.568 63.5866C122.636 63.6905 122.733 63.7721 122.846 63.8211C121.93 63.9553 121.974 64.935 121.974 64.935H124.138C124.138 64.935 124.188 63.9486 123.279 63.8144Z" fill="white"/>
<path d="M144.898 63.6634C144.898 63.707 141.06 63.7406 136.323 63.7406C131.586 63.7406 127.745 63.707 127.745 63.6634C127.745 63.6198 131.586 63.5829 136.323 63.5829C141.06 63.5829 144.898 63.6198 144.898 63.6634Z" fill="#263238"/>
<path d="M200.802 95.7131C200.802 95.2267 200.892 63.9184 201.033 13.2957L201.097 13.356H55.8582L55.9387 13.2789C55.8313 42.4333 55.7307 70.3129 55.6368 95.6963L55.5629 95.6225L200.812 95.6963L55.5629 95.7701H55.4891V95.6963C55.5764 70.3062 55.6737 42.4333 55.7743 13.2789V13.1984H55.8615L201.1 13.2185H201.161V13.2789C200.939 63.9184 200.805 95.2267 200.802 95.7131Z" fill="#263238"/>
<path d="M185.067 115.957C181.014 114.008 176.344 110.448 174.288 106.382C178.737 108.455 182.483 111.783 185.067 115.957Z" fill="#004FA1"/>
<path d="M186.936 116.37C183.403 119.154 178.149 121.788 173.596 121.845C177.415 118.76 182.051 116.857 186.936 116.37Z" fill="#004FA1"/>
<path d="M191.555 118.429C188.623 121.838 183.97 125.428 179.511 126.35C182.669 122.594 186.855 119.841 191.555 118.429Z" fill="#004FA1"/>
<path d="M196.356 122.66C193.572 124.858 189.428 126.934 185.839 126.978C188.85 124.546 192.505 123.045 196.356 122.66Z" fill="#004FA1"/>
<path d="M189.532 117.483C186.365 114.293 183.158 109.371 182.584 104.852C186.08 108.297 188.495 112.687 189.532 117.483Z" fill="#004FA1"/>
<path d="M200.322 122.623C195.625 120.08 190.328 115.45 188.268 110.19C193.498 112.958 197.717 117.31 200.322 122.623Z" fill="#E8505B"/>
<path d="M200.017 114.739C195.32 112.193 190.019 107.563 187.962 102.306C193.191 105.075 197.41 109.427 200.017 114.739Z" fill="#E8505B"/>
<path d="M199.312 107.023C194.615 104.48 189.314 99.8498 187.258 94.5892C192.487 97.3581 196.706 101.71 199.312 107.023Z" fill="#E8505B"/>
<path d="M198.282 98.9238C193.921 95.74 189.224 90.409 187.801 84.9069C192.658 88.3854 196.319 93.2817 198.282 98.9238Z" fill="#E8505B"/>
<path d="M196.957 92.6736C194.001 87.9465 191.478 81.089 192.055 75.4091C195.349 80.5579 197.054 86.5623 196.957 92.6736Z" fill="#E8505B"/>
<path d="M197.625 95.6494C198.869 89.7514 201.895 82.4746 206.254 78.3782C204.976 84.8043 201.996 90.7693 197.625 95.6494Z" fill="#E8505B"/>
<path d="M198.594 102.326C200.376 96.2868 204.126 88.9764 208.994 85.088C207.141 91.6646 203.548 97.6196 198.594 102.326Z" fill="#E8505B"/>
<path d="M199.664 110.441C201.446 104.402 205.197 97.0953 210.065 93.2036C208.211 99.7802 204.618 105.735 199.664 110.441Z" fill="#E8505B"/>
<path d="M200.205 120.342C201.983 114.303 205.733 106.992 210.605 103.104C208.75 109.68 205.157 115.635 200.205 120.342Z" fill="#E8505B"/>
<path d="M196.836 91.4825C196.85 91.5137 196.86 91.5464 196.866 91.5798C196.866 91.6536 196.907 91.7476 196.933 91.8617L197.172 92.9587C197.38 93.9082 197.651 95.3072 197.96 97.0048C198.269 98.7024 198.601 100.766 198.923 103.044C199.245 105.322 199.537 107.838 199.782 110.485C200.027 113.132 200.184 115.658 200.292 117.96C200.399 120.261 200.443 122.321 200.449 124.076C200.456 125.83 200.449 127.226 200.413 128.199C200.413 128.672 200.386 129.048 200.379 129.32C200.379 129.437 200.379 129.534 200.379 129.608C200.383 129.641 200.383 129.675 200.379 129.709C200.374 129.675 200.374 129.641 200.379 129.608C200.379 129.531 200.379 129.437 200.379 129.316V128.196C200.379 127.223 200.379 125.817 200.352 124.076C200.325 122.335 200.265 120.265 200.158 117.966C200.05 115.668 199.872 113.145 199.631 110.502C199.389 107.858 199.091 105.349 198.789 103.067C198.487 100.786 198.161 98.7393 197.866 97.0283C197.571 95.3172 197.326 93.9283 197.141 92.9721C197.054 92.5058 196.984 92.1368 196.937 91.8717L196.887 91.5832C196.865 91.5524 196.848 91.5185 196.836 91.4825Z" fill="#263238"/>
<path d="M200.322 122.623C195.625 120.08 190.328 115.45 188.268 110.19C193.498 112.958 197.717 117.31 200.322 122.623Z" fill="#053A6B"/>
<path d="M200.017 114.739C195.32 112.193 190.019 107.563 187.962 102.306C193.191 105.075 197.41 109.427 200.017 114.739Z" fill="#053A6B"/>
<path d="M199.312 107.023C194.615 104.48 189.314 99.8498 187.258 94.5892C192.487 97.3581 196.706 101.71 199.312 107.023Z" fill="#053A6B"/>
<path d="M198.282 98.9238C193.921 95.74 189.224 90.409 187.801 84.9069C192.658 88.3854 196.319 93.2817 198.282 98.9238Z" fill="#053A6B"/>
<path d="M196.957 92.6736C194.001 87.9465 191.478 81.089 192.055 75.4091C195.349 80.5579 197.054 86.5623 196.957 92.6736Z" fill="#053A6B"/>
<path d="M197.625 95.6494C198.869 89.7514 201.895 82.4746 206.254 78.3782C204.976 84.8043 201.996 90.7693 197.625 95.6494Z" fill="#053A6B"/>
<path d="M198.594 102.326C200.376 96.2868 204.126 88.9764 208.994 85.088C207.141 91.6646 203.548 97.6196 198.594 102.326Z" fill="#053A6B"/>
<path d="M199.664 110.441C201.446 104.402 205.197 97.0953 210.065 93.2036C208.211 99.7802 204.618 105.735 199.664 110.441Z" fill="#053A6B"/>
<path d="M200.205 120.342C201.983 114.303 205.733 106.992 210.605 103.104C208.75 109.68 205.157 115.635 200.205 120.342Z" fill="#053A6B"/>
<path d="M202.389 124.66C200.198 120.073 198.604 113.622 199.681 108.586C202.128 113.566 203.069 119.152 202.389 124.66Z" fill="#004FA1"/>
<path d="M206.032 118.718C203.841 114.132 202.251 107.694 203.325 102.661C205.772 107.64 206.713 113.225 206.032 118.731" fill="#004FA1"/>
<path d="M209.296 112.679C207.106 108.093 205.512 101.641 206.589 96.6056C209.036 101.586 209.977 107.172 209.296 112.679Z" fill="#004FA1"/>
<path d="M212.52 106.167C210.89 101.309 210.075 94.6898 211.735 89.8486C213.574 95.0969 213.847 100.767 212.52 106.167Z" fill="#004FA1"/>
<path d="M214.614 100.833C214.775 95.6661 216.291 89.1945 219.502 85.3799C219.431 90.9 217.731 96.2761 214.614 100.833Z" fill="#004FA1"/>
<path d="M213.658 103.393C217.459 99.8062 223.236 96.2466 228.42 95.7803C224.361 99.7225 219.223 102.372 213.658 103.393Z" fill="#004FA1"/>
<path d="M211.085 108.828C215.342 105.453 221.669 102.286 227.138 102.272C222.555 106 216.967 108.282 211.085 108.828Z" fill="#004FA1"/>
<path d="M207.881 115.38C212.141 112.005 218.465 108.838 223.934 108.828C219.351 112.556 213.763 114.836 207.881 115.38Z" fill="#004FA1"/>
<path d="M203.422 122.925C207.679 119.55 214.007 116.383 219.475 116.37C214.893 120.099 209.305 122.381 203.422 122.925Z" fill="#004FA1"/>
<path d="M215.114 99.8934C215.107 99.9219 215.098 99.9499 215.087 99.9773L215 100.222L214.644 101.152C214.332 101.957 213.859 103.114 213.252 104.533C212.034 107.375 210.232 111.243 207.998 115.4C206.877 117.473 205.754 119.426 204.7 121.17C203.647 122.915 202.657 124.472 201.798 125.757C200.939 127.042 200.235 128.075 199.731 128.776L199.148 129.581L198.993 129.789C198.976 129.814 198.956 129.837 198.933 129.856C198.945 129.828 198.96 129.801 198.977 129.776L199.118 129.561L199.668 128.732C200.154 128.018 200.845 126.978 201.681 125.683C202.516 124.388 203.492 122.828 204.546 121.08C205.599 119.332 206.706 117.389 207.824 115.309C210.058 111.163 211.876 107.304 213.124 104.48C213.748 103.067 214.238 101.92 214.57 101.125L214.96 100.212L215.067 99.9739C215.078 99.9447 215.094 99.9175 215.114 99.8934Z" fill="#263238"/>
<path d="M175.885 115.41L175.958 115.393L176.176 115.356C176.371 115.329 176.653 115.272 177.022 115.235C178.063 115.114 179.111 115.071 180.159 115.105C181.713 115.146 183.259 115.349 184.772 115.712C190.042 116.961 194.69 120.055 197.876 124.435C198.499 125.28 199.06 126.169 199.554 127.095C199.731 127.431 199.842 127.686 199.929 127.86L200.023 128.061C200.036 128.083 200.045 128.107 200.05 128.132C200.05 128.132 200.05 128.112 200.01 128.068C199.97 128.025 199.946 127.954 199.903 127.874C199.805 127.706 199.684 127.444 199.497 127.125C197.578 123.639 194.79 120.708 191.403 118.618C188.016 116.529 184.146 115.352 180.169 115.202C179.126 115.159 178.081 115.186 177.042 115.282C176.673 115.309 176.391 115.356 176.197 115.373L175.975 115.397L175.885 115.41Z" fill="#263238"/>
<path d="M208.696 143.511H195.115L192.733 125.908L211.209 125.736L208.696 143.511Z" fill="#263238"/>
<path d="M180.82 115.229C176.103 117.121 169.567 118.302 164.609 116.906C169.734 114.781 175.368 114.198 180.82 115.229Z" fill="#004FA1"/>
<path d="M212.175 125.736H191.767V128.407H212.175V125.736Z" fill="#4D5A64"/>
<path d="M212.188 128.441C212.188 128.484 207.602 128.521 201.942 128.521C196.283 128.521 191.696 128.484 191.696 128.441C191.696 128.397 196.283 128.363 201.942 128.363C207.602 128.363 212.188 128.397 212.188 128.441Z" fill="#455A64"/>
<path d="M209.86 132.721C209.86 132.721 209.696 132.544 209.353 132.285C208.862 131.928 208.295 131.689 207.696 131.584C206.808 131.429 205.895 131.502 205.042 131.796C204 132.164 203.008 132.664 202.093 133.285C201.172 133.911 200.216 134.484 199.228 134.999C198.41 135.418 197.52 135.677 196.605 135.761C195.987 135.817 195.365 135.746 194.776 135.553C194.617 135.503 194.463 135.438 194.317 135.358C194.263 135.335 194.212 135.306 194.166 135.271C194.166 135.254 194.384 135.372 194.796 135.496C195.382 135.661 195.993 135.713 196.598 135.65C197.495 135.552 198.365 135.287 199.164 134.869C200.143 134.348 201.093 133.774 202.009 133.151C202.936 132.524 203.941 132.021 204.999 131.655C205.875 131.363 206.812 131.3 207.72 131.473C208.332 131.591 208.907 131.853 209.397 132.238C209.473 132.298 209.546 132.362 209.615 132.43C209.667 132.477 209.715 132.529 209.759 132.584C209.83 132.671 209.867 132.718 209.86 132.721Z" fill="white"/>
<path d="M209.4 134.58C209.4 134.597 209.196 134.476 208.807 134.355C208.569 134.287 208.325 134.243 208.079 134.225C207.753 134.206 207.427 134.223 207.106 134.275C206.265 134.425 205.461 134.739 204.74 135.197C203.908 135.687 203.063 136.352 202.11 136.942C201.209 137.512 200.203 137.896 199.151 138.073C198.294 138.215 197.419 138.215 196.561 138.073C195.984 137.98 195.42 137.815 194.884 137.583C194.737 137.522 194.594 137.454 194.454 137.378C194.404 137.356 194.357 137.328 194.313 137.294C194.313 137.294 194.525 137.382 194.907 137.526C195.448 137.733 196.011 137.88 196.585 137.962C198.479 138.257 200.416 137.851 202.033 136.821C202.982 136.238 203.828 135.577 204.673 135.083C205.412 134.622 206.236 134.314 207.096 134.178C207.429 134.129 207.767 134.12 208.102 134.151C208.353 134.177 208.601 134.231 208.84 134.312C208.99 134.362 209.135 134.427 209.273 134.506C209.318 134.527 209.36 134.552 209.4 134.58Z" fill="white"/>
<path d="M222.978 143.511C222.978 143.555 176.093 143.591 118.267 143.591C60.4411 143.591 13.5424 143.555 13.5424 143.511C13.5424 143.467 60.4209 143.434 118.267 143.434C176.113 143.434 222.978 143.467 222.978 143.511Z" fill="#263238"/>
<path d="M32.3568 133.58L31.9274 140.082C31.9274 140.082 38.3991 142.229 38.436 143.437L25.7811 143.528L26.0361 133.372L32.3568 133.58Z" fill="#004FA1"/>
<g opacity="0.6">
<path opacity="0.6" d="M28.0354 139.415C27.9131 139.448 27.8074 139.525 27.7387 139.631C27.67 139.738 27.6431 139.866 27.6633 139.991C27.6907 140.115 27.765 140.224 27.8705 140.294C27.9761 140.365 28.1048 140.392 28.2299 140.37C28.3599 140.335 28.4721 140.252 28.5452 140.139C28.6182 140.026 28.6468 139.89 28.6255 139.757C28.5838 139.629 28.494 139.522 28.375 139.46C28.2561 139.397 28.1174 139.383 27.9885 139.421" fill="white"/>
</g>
<g opacity="0.6">
<path opacity="0.6" d="M25.7811 143.528L25.808 142.505L38.02 142.84C38.1474 142.905 38.2569 143 38.3388 143.117C38.4207 143.234 38.4725 143.369 38.4896 143.511L25.7811 143.528Z" fill="white"/>
</g>
<path d="M32.1346 140.022C32.1346 140.086 31.8195 140.102 31.511 140.293C31.2026 140.485 31.0316 140.736 30.9779 140.709C30.9243 140.682 31.0215 140.33 31.4004 140.106C31.7792 139.881 32.1547 139.965 32.1346 140.022Z" fill="#263238"/>
<path d="M33.4433 140.612C33.4433 140.673 33.1851 140.766 32.9672 141.021C32.7493 141.276 32.6822 141.551 32.6319 141.548C32.5817 141.544 32.5448 141.192 32.8197 140.877C33.0946 140.562 33.4433 140.552 33.4433 140.612Z" fill="#263238"/>
<path d="M34.1484 142.219C34.0914 142.219 34.0143 141.92 34.1853 141.588C34.3562 141.256 34.6446 141.129 34.668 141.179C34.6915 141.23 34.5105 141.407 34.3764 141.682C34.2423 141.957 34.2087 142.215 34.1484 142.219Z" fill="#263238"/>
<path d="M32.0683 138.529C32.0415 138.586 31.7597 138.492 31.3974 138.505C31.035 138.519 30.7733 138.619 30.7264 138.566C30.6794 138.512 30.9612 138.301 31.3739 138.291C31.7865 138.281 32.0985 138.482 32.0683 138.529Z" fill="#263238"/>
<g opacity="0.3">
<path opacity="0.3" d="M32.0482 138.247L31.9711 139.445L25.8986 139.207L25.9221 138.163L32.0482 138.247Z" fill="black"/>
</g>
<path d="M32.1321 137.217C31.9224 137.266 31.7034 137.258 31.498 137.194C31.2664 137.146 31.0412 137.072 30.827 136.972C30.7027 136.912 30.5828 136.844 30.468 136.768C30.3988 136.725 30.3356 136.673 30.2801 136.613C30.242 136.566 30.2213 136.506 30.2213 136.445C30.2213 136.384 30.242 136.325 30.2801 136.278C30.3121 136.235 30.3537 136.201 30.4015 136.177C30.4493 136.154 30.502 136.142 30.5552 136.143C30.6351 136.145 30.7143 136.159 30.7901 136.184C30.9248 136.219 31.0553 136.268 31.1793 136.331C31.3895 136.435 31.583 136.569 31.753 136.731C32.0381 137.012 32.1287 137.244 32.1086 137.257C32.0884 137.271 31.9442 137.08 31.6523 136.845C31.4814 136.71 31.2943 136.597 31.0954 136.509C30.9793 136.459 30.8592 136.419 30.7364 136.388C30.6056 136.348 30.4915 136.345 30.4546 136.388C30.4177 136.432 30.4378 136.419 30.4546 136.459C30.4956 136.502 30.5418 136.541 30.5921 136.573C30.6998 136.647 30.8118 136.714 30.9276 136.774C31.12 136.878 31.3223 136.962 31.5315 137.026C31.7357 137.076 31.9363 137.14 32.1321 137.217Z" fill="#263238"/>
<path d="M32.0482 137.301C32.0247 137.301 31.9106 137.086 31.9006 136.687C31.8958 136.452 31.9321 136.218 32.0079 135.996C32.0508 135.864 32.1082 135.736 32.179 135.617C32.2153 135.534 32.2724 135.462 32.3447 135.408C32.417 135.354 32.5021 135.32 32.5917 135.308C32.6482 135.311 32.7027 135.33 32.749 135.363C32.7953 135.395 32.8314 135.44 32.8534 135.493C32.8817 135.568 32.9009 135.647 32.9104 135.727C32.9307 135.869 32.9307 136.012 32.9104 136.154C32.8688 136.39 32.7697 136.612 32.6219 136.801C32.3635 137.12 32.1052 137.187 32.0985 137.163C32.0918 137.14 32.2998 137.019 32.4977 136.71C32.6129 136.533 32.6874 136.333 32.7158 136.123C32.7325 136.002 32.7325 135.879 32.7158 135.758C32.7158 135.62 32.6521 135.513 32.6018 135.523C32.5514 135.533 32.4273 135.62 32.3736 135.724C32.3079 135.831 32.2517 135.943 32.2059 136.06C32.1298 136.261 32.0823 136.472 32.065 136.687C32.0213 137.063 32.0817 137.294 32.0482 137.301Z" fill="#263238"/>
<path d="M45.7598 133.946L44.6258 140.361C44.6258 140.361 50.8258 143.199 50.7318 144.407L38.1508 143.125L39.4928 133.06L45.7598 133.946Z" fill="#004FA1"/>
<g opacity="0.6">
<path opacity="0.6" d="M40.8278 139.277C40.7025 139.297 40.5891 139.362 40.5092 139.46C40.4293 139.559 40.3888 139.683 40.3953 139.81C40.4088 139.936 40.471 140.052 40.5686 140.134C40.6662 140.215 40.7916 140.255 40.9183 140.246C41.0515 140.225 41.1723 140.156 41.2572 140.051C41.3421 139.946 41.385 139.814 41.3776 139.679C41.3478 139.55 41.2692 139.436 41.158 139.363C41.0468 139.29 40.9117 139.263 40.7808 139.287" fill="white"/>
</g>
<g opacity="0.6">
<path opacity="0.6" d="M38.1508 143.125L38.2884 142.119L50.393 143.779C50.5141 143.86 50.6133 143.969 50.6818 144.097C50.7503 144.225 50.7859 144.369 50.7855 144.514L38.1508 143.125Z" fill="white"/>
</g>
<path d="M44.8372 140.327C44.8372 140.387 44.5017 140.371 44.1897 140.528C43.8777 140.686 43.663 140.914 43.6127 140.884C43.5623 140.854 43.6999 140.512 44.0991 140.33C44.4984 140.149 44.8573 140.273 44.8372 140.327Z" fill="#263238"/>
<path d="M46.0746 141.052C46.0746 141.115 45.7997 141.182 45.5583 141.41C45.3169 141.638 45.223 141.907 45.1559 141.893C45.0889 141.88 45.1023 141.531 45.4107 141.253C45.7192 140.975 46.0813 140.995 46.0746 141.052Z" fill="#263238"/>
<path d="M46.6019 142.729C46.5415 142.729 46.5013 142.417 46.7058 142.105C46.9103 141.793 47.2121 141.699 47.2322 141.753C47.2523 141.807 47.0478 141.961 46.8969 142.222C46.7461 142.484 46.6622 142.732 46.6019 142.729Z" fill="#263238"/>
<path d="M44.9345 138.834C44.901 138.888 44.6326 138.764 44.2837 138.74C43.9348 138.717 43.6496 138.784 43.6127 138.74C43.5758 138.697 43.8744 138.499 44.2837 138.536C44.693 138.572 44.9714 138.791 44.9345 138.834Z" fill="#263238"/>
<g opacity="0.3">
<path opacity="0.3" d="M45.1123 137.579L44.807 139.357L38.7715 138.435L38.909 137.398L45.1123 137.579Z" fill="black"/>
</g>
<path d="M45.1392 137.553C44.9257 137.581 44.7085 137.55 44.5118 137.462C44.2916 137.39 44.0809 137.292 43.8844 137.17C43.7679 137.096 43.6559 137.016 43.5489 136.929C43.4857 136.878 43.4293 136.819 43.3812 136.754C43.346 136.704 43.3285 136.644 43.3315 136.583C43.3346 136.523 43.358 136.464 43.3979 136.419C43.4343 136.38 43.4795 136.35 43.5296 136.332C43.5798 136.314 43.6336 136.308 43.6865 136.315C43.7665 136.325 43.8445 136.348 43.918 136.382C44.0465 136.433 44.1701 136.496 44.287 136.57C44.4859 136.694 44.6638 136.849 44.8137 137.029C44.966 137.183 45.0698 137.377 45.1123 137.589C45.0821 137.606 44.9647 137.395 44.703 137.133C44.5475 136.981 44.374 136.848 44.1864 136.737C44.0786 136.675 43.9665 136.622 43.8509 136.576C43.7234 136.523 43.6127 136.506 43.569 136.576C43.5254 136.647 43.569 136.603 43.569 136.647C43.6041 136.695 43.6459 136.738 43.6932 136.774C43.7908 136.858 43.8927 136.936 43.9985 137.009C44.1797 137.132 44.3717 137.239 44.5722 137.328C44.7658 137.39 44.9552 137.465 45.1392 137.553Z" fill="#263238"/>
<path d="M45.0452 137.613C44.9517 137.418 44.9234 137.198 44.9647 136.986C44.9865 136.753 45.0477 136.526 45.1459 136.315C45.2047 136.188 45.2766 136.067 45.3606 135.956C45.4056 135.878 45.4701 135.812 45.5477 135.767C45.6252 135.721 45.7134 135.696 45.8035 135.694C45.8591 135.703 45.9109 135.728 45.9531 135.765C45.9952 135.803 46.0259 135.851 46.0417 135.905C46.0632 135.983 46.0745 136.063 46.0752 136.144C46.0778 136.287 46.0574 136.429 46.0148 136.566C45.9487 136.797 45.8252 137.007 45.6558 137.177C45.3673 137.469 45.1023 137.512 45.0989 137.482C45.0956 137.452 45.3136 137.361 45.5451 137.076C45.6773 136.912 45.7723 136.721 45.8236 136.516C45.8542 136.397 45.8678 136.273 45.8638 136.15C45.8638 136.016 45.8269 135.902 45.7766 135.909C45.7263 135.915 45.5955 135.982 45.5284 136.083C45.4504 136.181 45.3829 136.287 45.3271 136.399C45.2281 136.591 45.1569 136.797 45.1157 137.009C45.0486 137.371 45.0821 137.61 45.0452 137.613Z" fill="#263238"/>
<path d="M46.0685 137.808L50.6916 109.032L40.3148 108.398L38.493 137.801L46.0685 137.808Z" fill="#263238"/>
<path d="M36.2788 78.5459L23.7481 80.1596L23.8622 83.2462L25.0096 138.136L32.9641 138.247L36.7955 91.5027L36.2788 78.5459Z" fill="#263238"/>
<path d="M42.6364 77.2878L50.6916 109.032L40.7207 110.854L36.3928 95.8071L32.7795 79.0693L42.6364 77.2878Z" fill="#263238"/>
<path d="M33.2694 80.6763C33.2694 80.6763 33.2694 80.7266 33.2694 80.8239C33.2694 80.9212 33.2694 81.0722 33.2694 81.26C33.2694 81.6492 33.2291 82.2128 33.1989 82.9375C33.1352 84.3935 33.0278 86.5004 32.8634 89.1005C32.5682 94.304 32.065 101.487 31.5416 109.421C31.2833 113.39 31.0551 117.175 30.8706 120.613C30.8203 121.476 30.7934 122.314 30.7297 123.13C30.6659 123.945 30.5988 124.733 30.5385 125.498C30.4177 127.025 30.3036 128.447 30.203 129.746C29.9983 132.346 29.8406 134.443 29.7433 135.902C29.6964 136.63 29.6628 137.194 29.646 137.579C29.646 137.771 29.646 137.915 29.646 138.016C29.6419 138.052 29.6419 138.089 29.646 138.126C29.646 138.156 29.646 138.126 29.646 138.126H29.6259C29.6205 138.09 29.6205 138.052 29.6259 138.016C29.6259 137.918 29.6259 137.771 29.6259 137.579C29.6259 137.194 29.6595 136.63 29.6997 135.902C29.7802 134.446 29.9212 132.342 30.1124 129.742C30.2097 128.444 30.317 127.021 30.4479 125.492C30.5083 124.727 30.5698 123.937 30.6324 123.123C30.6928 122.311 30.7196 121.472 30.7632 120.61C30.9377 117.171 31.1591 113.387 31.4342 109.418C31.9576 101.484 32.4776 94.3007 32.7963 89.1005C32.9507 86.5004 33.0782 84.4036 33.1654 82.9375C33.2056 82.2162 33.2392 81.6526 33.2593 81.26C33.2593 81.0722 33.2828 80.9245 33.2895 80.8239C33.2962 80.7232 33.2694 80.6763 33.2694 80.6763Z" fill="#455A64"/>
<path d="M37.6577 82.3739C37.7013 82.3739 37.3423 86.7353 36.8559 92.1334C36.3694 97.5315 35.94 101.886 35.8963 101.883C35.8527 101.88 36.2117 97.5215 36.6982 92.12C37.1846 86.7186 37.6141 82.3705 37.6577 82.3739Z" fill="#455A64"/>
<path d="M41.697 114.833C41.6534 114.833 40.4322 110.596 38.9694 105.342C37.5067 100.088 36.3492 95.8205 36.3929 95.807C36.4365 95.7936 37.6543 100.044 39.1204 105.298C40.5865 110.552 41.7373 114.823 41.697 114.833Z" fill="#455A64"/>
<path d="M29.6058 80.465C29.6473 80.5572 29.6723 80.656 29.6796 80.7569C29.7184 81.0272 29.7184 81.3017 29.6796 81.5721C29.6193 81.9766 29.4827 82.366 29.277 82.7195C29.0315 83.1597 28.6791 83.5309 28.2522 83.7989C27.8253 84.0669 27.3378 84.223 26.8346 84.2527C26.4272 84.284 26.0175 84.2385 25.6269 84.1185C25.3654 84.0443 25.1166 83.9312 24.8888 83.783C24.8028 83.7307 24.7249 83.6663 24.6573 83.5918C24.9768 83.7706 25.3142 83.9157 25.6638 84.0246C26.0827 84.1483 26.5232 84.1815 26.9559 84.122C27.3887 84.0625 27.8039 83.9116 28.1738 83.6793C28.5438 83.4471 28.8601 83.1388 29.1018 82.7749C29.3435 82.411 29.505 81.9998 29.5756 81.5687C29.6271 81.2031 29.6372 80.8329 29.6058 80.465Z" fill="#455A64"/>
<path d="M43.4248 81.3472C43.2366 81.3782 43.0438 81.3656 42.8612 81.3103C42.4147 81.2073 41.9982 81.0022 41.6443 80.7112C41.2904 80.4201 41.0087 80.051 40.8214 79.6329C40.7324 79.4653 40.6841 79.2791 40.6805 79.0894C40.7699 79.2504 40.8505 79.4161 40.922 79.5859C41.1278 79.9717 41.407 80.3137 41.744 80.5924C42.0846 80.8632 42.4742 81.0659 42.8914 81.1896C43.0719 81.2323 43.25 81.285 43.4248 81.3472Z" fill="#455A64"/>
<path d="M43.6899 138.14C43.6899 138.14 43.6899 138.089 43.71 137.992C43.7301 137.895 43.7469 137.747 43.7771 137.566C43.8442 137.183 43.9381 136.633 44.0623 135.929C44.3172 134.503 44.6829 132.446 45.1325 129.913C46.0551 124.831 47.3233 117.819 48.7256 110.072C48.7256 110.005 48.7525 109.938 48.7625 109.878V109.904C47.5791 103.338 46.0335 96.8417 44.1327 90.4458C43.4013 87.99 42.7673 86.0206 42.3143 84.6619C42.0896 83.9909 41.9151 83.4642 41.7943 83.0985C41.7373 82.9274 41.6937 82.7898 41.6601 82.6925L41.6199 82.5516C41.6416 82.5951 41.6607 82.64 41.6769 82.6858L41.8245 83.0884C41.952 83.4441 42.16 83.9641 42.3747 84.6418C42.8444 85.9837 43.4953 87.9632 44.2401 90.4123C46.1776 96.8048 47.7436 103.304 48.9303 109.878V109.904C48.9303 109.968 48.9068 110.035 48.8967 110.102C47.4742 117.842 46.1893 124.864 45.2566 129.933C44.7836 132.463 44.4011 134.513 44.1361 135.939C44.0019 136.643 43.8945 137.194 43.8241 137.573L43.7368 137.995C43.7033 138.093 43.6899 138.14 43.6899 138.14Z" fill="#455A64"/>
<path d="M40.3248 48.6466C40.9694 49.0332 41.5097 49.5716 41.8985 50.2148C42.2874 50.8581 42.513 51.5866 42.5559 52.337C42.6163 53.6958 42.935 58.537 42.935 58.537L46.4275 55.2693L49.9703 61.0196C49.9703 61.0196 44.8372 68.1053 44.3071 68.4609C43.7771 68.8165 41.6232 69.7291 40.6838 69.2728C39.7444 68.8165 40.3248 48.6466 40.3248 48.6466Z" fill="#004FA1"/>
<path d="M28.9784 43.8693L27.9283 46.5868L21.6244 50.5557L24.8049 70.5578C24.8049 70.5578 22.2283 74.9192 22.2954 78.1165C22.2954 78.8714 23.7481 80.1597 23.7481 80.1597C23.7481 80.1597 30.6727 80.6562 35.8929 80.1261C40.9254 79.6195 42.7504 77.8011 42.7504 77.8011L43.6898 75.8284L42.8377 73.2686L41.5729 53.0081C41.5729 53.0081 41.1032 49.576 40.3248 48.6467L38.0804 46.9491L36.8525 44.8053L28.9784 43.8693Z" fill="#004FA1"/>
<path d="M38.0804 46.9458C38.0905 47.0327 38.0905 47.1205 38.0804 47.2075C38.0804 47.3953 38.0804 47.6403 38.0804 47.9456C38.0804 48.6165 38.0804 49.519 38.0502 50.6295V50.7838L37.9395 50.6698L36.262 48.9252L36.3895 48.8849C36.2922 49.6465 36.1849 50.4752 36.0708 51.334L36.054 51.4548L35.9534 51.3911L35.5977 51.1797L30.1762 47.8919L28.539 46.8854C28.3611 46.768 28.2035 46.6774 28.0995 46.6036C28.0466 46.5731 27.9971 46.5371 27.9518 46.4962C28.0109 46.5134 28.0665 46.5406 28.1162 46.5767L28.5725 46.8317L30.25 47.8013L35.695 51.0489L36.0507 51.2602L35.9332 51.3173C36.0473 50.4584 36.158 49.6398 36.2687 48.8682L36.2889 48.7138L36.3962 48.8279L38.0468 50.5859L37.9361 50.6295C37.973 49.5291 37.9999 48.6165 38.02 47.9456C38.02 47.6403 38.0469 47.392 38.0536 47.2041C38.0548 47.1174 38.0638 47.0309 38.0804 46.9458Z" fill="#263238"/>
<g opacity="0.3">
<path opacity="0.3" d="M22.9094 74.7514C24.0714 75.0439 25.2569 75.2337 26.4522 75.3184C27.6035 75.3958 28.7539 75.1544 29.7769 74.6206C30.4777 74.1767 31.1309 73.6618 31.7261 73.084C33.4036 71.6313 35.2857 70.4672 37.1679 69.3097L40.2074 67.4343C40.4756 67.2938 40.712 67.0997 40.9019 66.864C40.9985 66.7565 41.0578 66.6207 41.071 66.4768C41.0842 66.333 41.0506 66.1887 40.9752 66.0654C40.8998 65.9421 40.7867 65.8465 40.6526 65.7927C40.5185 65.7389 40.3706 65.7299 40.2309 65.7669C39.9636 65.8305 39.7109 65.9444 39.4861 66.1024L36.1714 68.0583C32.112 70.4537 27.925 72.8995 23.265 73.6409L22.9094 74.7514Z" fill="black"/>
</g>
<path d="M27.2305 64.9316C27.2528 64.8592 27.2989 64.7966 27.3614 64.7538L27.982 64.3042C28.0313 64.2682 28.0709 64.2206 28.0972 64.1655C28.1236 64.1105 28.1359 64.0498 28.133 63.9888L27.9518 61.06C27.9502 61.0511 27.9502 61.042 27.9518 61.0331C27.9518 60.6976 28.0659 54.3233 27.3312 52.2231C26.6199 50.2101 24.9458 49.2875 21.7687 50.4517C21.4703 50.6464 21.1866 50.8628 20.9199 51.0992C20.3101 52.106 19.9725 53.254 19.9402 54.4306L19.7423 61.3049C19.7423 61.3049 19.1451 67.6457 19.0713 68.5046C18.8566 70.645 19.6484 74.104 21.4667 74.3455C22.2887 74.4562 27.5962 73.339 28.6497 73.0304C28.9636 72.8084 29.2163 72.5107 29.3844 72.1648L30.0151 65.6227C30.023 65.545 30.0147 65.4665 29.9909 65.3921C29.967 65.3177 29.928 65.2491 29.8763 65.1905C29.8247 65.1319 29.7614 65.0846 29.6907 65.0516C29.6199 65.0186 29.543 65.0006 29.4649 64.9987L27.2305 64.9316Z" fill="#004FA1"/>
<path d="M27.7941 54.9775C27.7706 54.9775 27.5794 54.642 27.207 54.1454C26.2353 52.8211 24.9483 51.7602 23.4629 51.0589C22.8926 50.7905 22.5202 50.6664 22.5302 50.6395C22.622 50.6476 22.7122 50.6679 22.7986 50.6999C23.0393 50.7712 23.2757 50.8563 23.5065 50.9549C24.2715 51.2817 24.9856 51.7167 25.6268 52.2465C26.2698 52.7747 26.8346 53.3915 27.3043 54.0783C27.4473 54.2852 27.5762 54.5016 27.6901 54.7258C27.7369 54.8042 27.7719 54.889 27.7941 54.9775Z" fill="#263238"/>
<path d="M28.1296 55.672C28.1551 55.8001 28.1674 55.9305 28.1665 56.0612L28.2135 57.128C28.2437 58.0272 28.2772 59.2718 28.304 60.6474L28.3376 62.5865C28.3928 63.1267 28.289 63.6712 28.039 64.1533C27.8435 64.4602 27.5793 64.7174 27.2674 64.9048C27.1582 64.9802 27.0367 65.0358 26.9084 65.0692C26.9084 65.0692 27.0325 64.9987 27.2439 64.8545C27.5324 64.6554 27.775 64.3969 27.9551 64.0962C28.1767 63.6259 28.2627 63.1031 28.2034 62.5865L28.1296 60.6507C28.1027 59.2752 28.0893 58.0305 28.086 57.1314V56.0612C28.0862 55.9302 28.1008 55.7997 28.1296 55.672Z" fill="#263238"/>
<path d="M21.3997 74.379C21.4612 74.3623 21.524 74.3511 21.5875 74.3455L22.1277 74.275C22.594 74.2146 23.2717 74.1274 24.1037 73.9865C24.9358 73.8456 25.9255 73.651 27.0091 73.4027L27.8411 73.1981C28.1277 73.134 28.4092 73.0487 28.6832 72.9431C28.8171 72.8886 28.9372 72.8048 29.0347 72.6981C29.1322 72.5913 29.2047 72.4641 29.2469 72.3258C29.3232 72.0224 29.3693 71.7123 29.3844 71.3998C29.5085 70.1182 29.6293 68.897 29.7367 67.7832L29.8977 66.203C29.9335 65.9722 29.9414 65.7379 29.9212 65.5052C29.9129 65.4057 29.8724 65.3115 29.8058 65.2371C29.7392 65.1626 29.6502 65.1119 29.5522 65.0925C29.3584 65.0674 29.1622 65.0674 28.9684 65.0925L28.4316 65.1227L27.5694 65.1664L27.0259 65.1898C26.9624 65.1977 26.8982 65.1977 26.8347 65.1898C26.8968 65.1716 26.9611 65.1615 27.0259 65.1596L27.566 65.1093L28.4249 65.0389L28.9617 64.9952C29.1655 64.9684 29.3719 64.9684 29.5756 64.9952C29.6942 65.0183 29.803 65.0768 29.8876 65.163C29.9695 65.2582 30.0229 65.3744 30.042 65.4985C30.0738 65.7412 30.0738 65.9871 30.042 66.2299C29.9984 66.7264 29.9514 67.2363 29.8977 67.81C29.7937 68.9239 29.6796 70.1585 29.5622 71.43C29.5459 71.7541 29.4964 72.0756 29.4146 72.3895C29.3542 72.5464 29.259 72.6875 29.1361 72.8022C29.0227 72.9204 28.887 73.015 28.7369 73.0807C28.4542 73.1894 28.1637 73.2769 27.868 73.3423L27.0326 73.5436C25.9422 73.7919 24.9492 73.9697 24.1104 74.0938C23.2717 74.218 22.594 74.2918 22.121 74.3354L21.5808 74.3757C21.5208 74.3846 21.4599 74.3858 21.3997 74.379Z" fill="#263238"/>
<path d="M24.6002 68.055C24.5955 67.8664 24.6262 67.6786 24.6908 67.5014C24.8184 67.0644 25.0242 66.654 25.298 66.2903C25.5692 65.9247 25.9116 65.6177 26.3045 65.3878C26.4613 65.2827 26.6385 65.2118 26.8245 65.1798C26.2864 65.4935 25.8091 65.9015 25.4155 66.3842C25.0693 66.9016 24.795 67.4637 24.6002 68.055Z" fill="#263238"/>
<path d="M23.3589 66.5352C23.4438 66.352 23.5661 66.1886 23.7179 66.0554C24.0647 65.7114 24.4764 65.4396 24.929 65.2559C25.3817 65.0722 25.8664 64.9801 26.3549 64.9852C26.5558 64.975 26.7567 65.0058 26.9453 65.0758C26.7491 65.0944 26.5519 65.1011 26.3549 65.0959C25.8853 65.1248 25.4233 65.2278 24.986 65.4012C24.5512 65.5802 24.1489 65.8296 23.795 66.1393C23.6581 66.2803 23.5125 66.4125 23.3589 66.5352Z" fill="#263238"/>
<path d="M38.0099 75.0299C38.0903 75.022 38.1712 75.022 38.2515 75.0299C38.4092 75.0299 38.6407 75.0299 38.9225 74.9998C39.2842 74.9783 39.644 74.9324 39.9994 74.8622C40.4678 74.7754 40.9146 74.5976 41.3146 74.3388C41.7906 74.0143 42.1262 73.5217 42.2539 72.9599C42.3704 72.3047 42.4042 71.6375 42.3546 70.9738C42.3278 69.5547 42.3009 67.998 42.2707 66.3641C42.2271 63.0998 42.1835 60.1441 42.1533 57.9768C42.1533 56.9166 42.1533 56.0544 42.1533 55.4371V54.7661C42.1454 54.6858 42.1454 54.6049 42.1533 54.5245C42.1642 54.6047 42.1709 54.6853 42.1734 54.7661C42.1734 54.9372 42.1734 55.1653 42.1969 55.4371C42.1969 56.0544 42.2372 56.9166 42.2674 57.9768C42.3076 60.134 42.3647 63.0863 42.4284 66.3641C42.4552 67.998 42.4787 69.5547 42.4989 70.9738C42.5452 71.6471 42.5057 72.3235 42.3814 72.9868C42.2403 73.5767 41.8806 74.091 41.375 74.4261C40.9591 74.6865 40.4964 74.8632 40.0128 74.9461C39.6529 75.0119 39.2883 75.049 38.9225 75.0568C38.6205 75.0568 38.3891 75.0568 38.2314 75.0568C38.1571 75.052 38.0832 75.0431 38.0099 75.0299Z" fill="#263238"/>
<path d="M41.432 75.9089C41.2739 75.9827 41.1086 76.04 40.9388 76.08C40.6033 76.184 40.1504 76.3115 39.5666 76.4491C36.5079 77.1679 33.3474 77.3495 30.2265 76.9859C29.6293 76.9154 29.1462 76.8416 28.8174 76.7779C28.6447 76.7532 28.4742 76.715 28.3074 76.6638C28.4818 76.6692 28.6556 76.6871 28.8275 76.7175C29.1629 76.7611 29.6393 76.8181 30.2365 76.8752C33.3455 77.1745 36.4821 76.9946 39.5364 76.3417C40.1235 76.2176 40.5966 76.1069 40.9187 76.0062C41.087 75.9606 41.2586 75.9281 41.432 75.9089Z" fill="#263238"/>
<path d="M37.3926 74.4797C37.3926 74.4797 37.3926 74.3891 37.3926 74.218C37.3926 74.0469 37.4128 73.7886 37.4262 73.4766C37.4564 72.8056 37.4966 71.8863 37.5503 70.7457C37.6476 68.4442 37.7482 65.257 37.651 61.741C37.5537 58.225 37.2517 55.0479 36.9598 52.7632C36.8089 51.6192 36.678 50.6932 36.574 50.0591C36.5304 49.7504 36.4935 49.5055 36.4667 49.3244C36.4494 49.2393 36.4404 49.1528 36.4398 49.066C36.4643 49.1486 36.4833 49.2326 36.4969 49.3177C36.5304 49.4988 36.5774 49.7404 36.6344 50.049C36.7585 50.6831 36.9062 51.6057 37.0706 52.733C37.4822 55.7164 37.7286 58.7203 37.8086 61.7309C37.9059 65.2536 37.7852 68.4408 37.661 70.749C37.6006 71.8998 37.5369 72.8324 37.4866 73.4766C37.4597 73.7886 37.4396 74.0335 37.4262 74.218C37.4227 74.3061 37.4115 74.3936 37.3926 74.4797Z" fill="#263238"/>
<path d="M27.9686 58.8558C27.9686 58.8558 27.8545 58.7854 27.6331 58.6981C27.3324 58.5795 27.01 58.5258 26.687 58.5405C26.2048 58.5723 25.7289 58.667 25.2712 58.8223C25.0096 58.8994 24.7311 58.9833 24.4325 59.0471C23.7346 59.1927 23.0114 59.1631 22.3277 58.9612C21.6439 58.7592 21.0208 58.3911 20.5139 57.8896C20.2773 57.6553 20.069 57.3941 19.8933 57.1113C19.8285 57.0056 19.7756 56.8931 19.7356 56.7758C19.9859 57.1446 20.2725 57.4874 20.5911 57.799C21.3882 58.5249 22.4188 58.9415 23.4965 58.9732C24.0876 58.9623 24.6735 58.8617 25.2343 58.6747C25.7043 58.5228 26.1934 58.4381 26.687 58.423C27.0233 58.418 27.3561 58.4903 27.66 58.6344C27.778 58.6843 27.8835 58.76 27.9686 58.8558Z" fill="white"/>
<path d="M25.4725 65.2368C25.3634 65.2951 25.26 65.3636 25.1638 65.4415C24.9247 65.6773 24.7662 65.9825 24.7109 66.3138C24.664 66.5218 24.6371 66.7566 24.5868 67.0116C24.5363 67.2808 24.4645 67.5455 24.3721 67.8034C24.1599 68.3983 23.8504 68.9538 23.4562 69.4473C22.7342 70.3469 21.7487 70.998 20.638 71.3093C20.3093 71.4019 19.9721 71.4615 19.6315 71.4871C19.5059 71.506 19.3781 71.506 19.2524 71.4871C19.7138 71.4264 20.1702 71.3322 20.6179 71.2053C21.4433 70.9474 22.1986 70.5036 22.8256 69.908C23.4526 69.3124 23.9346 68.5809 24.2345 67.7698C24.3263 67.5178 24.4014 67.26 24.4593 66.9982C24.513 66.7499 24.5499 66.5151 24.6036 66.3003C24.6646 65.9496 24.8433 65.6301 25.1102 65.3945C25.1854 65.3344 25.2706 65.2879 25.3618 65.257C25.3965 65.2412 25.4345 65.2343 25.4725 65.2368Z" fill="white"/>
<path d="M29.1361 71.6213C29.0499 71.589 28.9704 71.5412 28.9013 71.4804C28.7014 71.3308 28.525 71.1521 28.3779 70.9503C27.9004 70.2723 27.6555 69.4577 27.6801 68.6287C27.713 67.8118 27.8878 67.007 28.1967 66.2501C28.3108 65.9615 28.4115 65.73 28.4853 65.5791C28.5591 65.4281 28.6094 65.3375 28.6195 65.3442C28.6295 65.3509 28.502 65.7099 28.3041 66.297C28.0282 67.051 27.8708 67.8433 27.8378 68.6455C27.8178 69.4385 28.0364 70.2192 28.4651 70.8866C28.6634 71.1535 28.8882 71.3997 29.1361 71.6213Z" fill="white"/>
<path d="M29.9849 48.0327C30.0042 48.1185 30.011 48.2067 30.005 48.2944C30.0025 48.531 29.9778 48.7669 29.9312 48.9989C29.7783 49.7751 29.4162 50.4948 28.8841 51.0802C28.3519 51.6655 27.6699 52.0944 26.9118 52.3203C26.6839 52.3881 26.4503 52.4353 26.214 52.4612C26.1274 52.4763 26.0388 52.4763 25.9523 52.4612C25.9523 52.4344 26.3213 52.4076 26.8749 52.213C27.5964 51.9655 28.2437 51.5394 28.7564 50.9745C29.269 50.4097 29.6305 49.7243 29.8071 48.9822C29.9614 48.4051 29.9547 48.0327 29.9849 48.0327Z" fill="white"/>
<path d="M30.5922 45.3689C30.238 45.5306 29.9008 45.7273 29.5857 45.956C29.3073 46.2243 29.0567 46.5199 28.8375 46.8384C28.9223 46.4347 29.1528 46.0764 29.485 45.8319C29.7844 45.5463 30.1787 45.3814 30.5922 45.3689Z" fill="white"/>
<path d="M34.8026 47.9153C34.9403 48.2831 34.9403 48.6882 34.8026 49.056C34.7117 49.4336 34.4863 49.7652 34.1685 49.9886C34.3594 49.6683 34.5211 49.3315 34.6516 48.9822C34.7304 48.6311 34.7809 48.2744 34.8026 47.9153Z" fill="white"/>
<path d="M37.8858 48.5729C37.7066 48.292 37.5464 47.9994 37.406 47.6972C37.2175 47.4224 37.0472 47.1355 36.8961 46.8384C37.1721 47.0417 37.3934 47.3103 37.5402 47.6201C37.7307 47.9051 37.8493 48.232 37.8858 48.5729Z" fill="white"/>
<path d="M37.188 56.1986C37.188 56.1986 37.0404 56.2187 36.7921 56.3026C36.44 56.427 36.1178 56.6236 35.846 56.8797C35.449 57.2667 35.1019 57.7017 34.8127 58.1747C34.4581 58.7697 34.0042 59.2997 33.4707 59.7414C32.4612 60.5208 31.1999 60.9006 29.9279 60.8083C29.5475 60.7783 29.1723 60.7017 28.8107 60.5802C28.6777 60.5378 28.5495 60.4816 28.4282 60.4124C28.9188 60.5606 29.4238 60.6562 29.9346 60.6976C30.4878 60.7241 31.0417 60.6618 31.5752 60.5131C32.229 60.3393 32.8408 60.0346 33.3734 59.6173C33.9018 59.1872 34.3553 58.6725 34.7154 58.0941C35.0157 57.6149 35.3791 57.1782 35.7957 56.7958C36.0849 56.5374 36.4291 56.3481 36.8022 56.2422C36.9032 56.2156 37.0065 56.1987 37.1108 56.1919C37.141 56.1919 37.188 56.1919 37.188 56.1986Z" fill="white"/>
<path d="M42.1365 57.9767C42.0083 58.1687 41.8429 58.333 41.65 58.4598C41.1992 58.7906 40.6819 59.0195 40.1339 59.1307C39.586 59.2419 39.0204 59.2328 38.4762 59.104C38.2491 59.0653 38.0328 58.9784 37.8422 58.849C37.8422 58.8255 38.0938 58.9195 38.5132 58.9933C39.5844 59.1878 40.6894 58.9632 41.5997 58.3659C41.9318 58.1411 42.1164 57.9566 42.1365 57.9767Z" fill="white"/>
<path d="M42.4922 51.552C41.9834 50.935 41.3757 50.4067 40.6939 49.9886C39.9851 49.6196 39.2198 49.3713 38.4293 49.2539C38.6673 49.2221 38.909 49.2312 39.1439 49.2807C40.2981 49.4684 41.3467 50.0635 42.0996 50.9582C42.2633 51.1324 42.396 51.3332 42.4922 51.552Z" fill="white"/>
<path d="M37.1142 71.7555C37.0671 71.7863 37.0164 71.8111 36.9632 71.8293C36.815 71.8825 36.6714 71.9475 36.5338 72.0239C36.028 72.3074 35.5742 72.675 35.1918 73.1109C34.6886 73.6443 34.1853 74.3522 33.5143 75.0735C33.1662 75.4559 32.7665 75.7879 32.3267 76.0599C32.2059 76.1236 32.0918 76.1974 31.9643 76.2511L31.5718 76.3987C31.2999 76.479 31.0195 76.5274 30.7364 76.543C29.5756 76.5866 28.539 76.1706 27.6331 75.8351C26.8441 75.4938 26.0158 75.2516 25.1672 75.1138C24.5958 75.0238 24.0113 75.0674 23.4596 75.2413C23.0738 75.3788 22.8859 75.513 22.8792 75.4996C22.8725 75.4862 22.9194 75.4593 23.0134 75.399C23.1452 75.3127 23.2857 75.2408 23.4327 75.1842C23.99 74.9842 24.5874 74.922 25.1739 75.0031C26.0349 75.1263 26.8762 75.3608 27.6767 75.7009C28.5859 76.0364 29.6092 76.4289 30.7197 76.3719C30.991 76.3564 31.2599 76.3114 31.5215 76.2377L31.8939 76.0934C32.0147 76.0465 32.1254 75.9726 32.2294 75.9156C32.6575 75.6505 33.048 75.3289 33.3902 74.9595C34.0612 74.2549 34.5846 73.5504 35.1046 73.0203C35.5062 72.5858 35.9852 72.2297 36.517 71.9702C36.6558 71.8967 36.802 71.8382 36.9531 71.7958C37.0052 71.7766 37.0592 71.7631 37.1142 71.7555Z" fill="white"/>
<path d="M42.2573 73.1679C42.0727 72.937 41.9024 72.695 41.7473 72.4433C41.3621 71.8489 40.9021 71.3065 40.3785 70.8295C39.8532 70.3622 39.2167 70.0376 38.5299 69.8868C38.241 69.8439 37.9497 69.8193 37.6577 69.813C37.7316 69.7801 37.8116 69.763 37.8925 69.7627C38.1152 69.7337 38.3408 69.7337 38.5635 69.7627C39.2847 69.8871 39.9565 70.2114 40.5026 70.6987C41.0384 71.1854 41.4966 71.7511 41.8614 72.3762C42.0237 72.6238 42.1566 72.8895 42.2573 73.1679Z" fill="white"/>
<path d="M36.7217 76.6839C36.7356 76.756 36.7356 76.83 36.7217 76.902C36.6967 77.1006 36.6518 77.2962 36.5875 77.4858C36.4935 77.7692 36.371 78.0424 36.2218 78.301C36.0319 78.6142 35.8068 78.9046 35.5508 79.1666C35.2925 79.4226 35.0055 79.6478 34.6953 79.8376C34.4416 79.9941 34.1716 80.1223 33.8901 80.2201C33.7017 80.2874 33.5074 80.3369 33.3097 80.3677C33.2365 80.3816 33.1614 80.3816 33.0883 80.3677C33.0883 80.3375 33.3936 80.2872 33.8498 80.1026C34.1173 79.9927 34.3744 79.8591 34.6181 79.7034C34.9141 79.5082 35.1895 79.2833 35.4401 79.0324C35.6852 78.7783 35.9033 78.4995 36.0909 78.2004C36.2446 77.9548 36.3749 77.6953 36.4801 77.4254C36.6445 76.9859 36.6915 76.6772 36.7217 76.6839Z" fill="white"/>
<path d="M47.5883 64.4551C47.5614 64.4551 47.4272 64.1498 47.1018 63.7069C46.6834 63.1298 46.1398 62.6549 45.5117 62.3179C44.8836 61.9809 44.1873 61.7905 43.4751 61.7611C42.9283 61.7376 42.5894 61.798 42.5827 61.7611C42.6562 61.725 42.7359 61.7034 42.8175 61.6973C43.0391 61.6586 43.2636 61.6395 43.4885 61.6403C44.2239 61.6407 44.9477 61.8229 45.5956 62.1706C46.2436 62.5182 46.7955 63.0206 47.2024 63.6331C47.3317 63.816 47.444 64.0103 47.5379 64.2135C47.569 64.2904 47.586 64.3722 47.5883 64.4551Z" fill="white"/>
<path d="M60.696 48.1971C60.6222 47.9623 60.1961 47.8918 60.1961 47.8918L60.2901 47.7677C60.355 47.6801 60.3959 47.5771 60.4088 47.4688C60.4218 47.3606 60.4063 47.2508 60.3639 47.1504C60.3639 47.1202 60.337 47.0867 60.3203 47.0565C60.2043 46.8825 60.0382 46.7479 59.8439 46.6706C59.8439 46.6706 60.1794 46.2613 60.1156 46.0466C60.0392 45.8607 59.909 45.7019 59.7415 45.5907C59.5741 45.4795 59.3772 45.4209 59.1762 45.4226C58.481 45.5394 57.7948 45.7054 57.123 45.9191C57.0614 45.9382 56.9964 45.9437 56.9325 45.9353C56.8685 45.9268 56.8072 45.9046 56.7527 45.8702C56.6981 45.8357 56.6517 45.7899 56.6166 45.7358C56.5815 45.6817 56.5586 45.6206 56.5493 45.5568C56.4651 44.8971 56.2795 44.2543 55.9991 43.6512C55.6636 43.0104 55.2275 42.9634 54.9624 43.007C54.9322 43.0117 54.9033 43.023 54.8779 43.0401C54.8525 43.0572 54.8312 43.0797 54.8155 43.1059C54.7998 43.1322 54.7901 43.1616 54.7871 43.1921C54.7841 43.2225 54.7878 43.2533 54.798 43.2821C54.9603 43.7206 55.0947 44.1688 55.2006 44.6241C55.251 44.9596 54.8651 47.3618 54.8651 47.3618L54.2948 48.5863L52.4798 50.6328L46.7059 55.6921L49.7254 60.6071L55.0329 53.9274L55.3885 53.4745L56.6399 52.1325L57.4384 51.3709L60.1223 50.3644C60.1223 50.3644 60.6524 49.7673 60.6088 49.5492C60.571 49.4066 60.4873 49.2804 60.3706 49.1902L60.7061 48.7507C60.7388 48.5673 60.7353 48.3793 60.696 48.1971Z" fill="#FFBE9D"/>
<path d="M60.0754 46.7344C60.0754 46.7344 60.0586 46.7343 60.0183 46.7679L59.8539 46.8518L59.2366 47.1504L58.3207 47.5865C58.1415 47.6773 57.9579 47.759 57.7705 47.8314C57.6664 47.8753 57.5533 47.8937 57.4406 47.8849C57.328 47.8761 57.2191 47.8406 57.123 47.7811C57.0296 47.7101 56.9652 47.6076 56.9418 47.4926C56.9134 47.3825 56.9134 47.2671 56.9418 47.1571C57.0059 46.9604 57.1333 46.7905 57.3042 46.674C57.4544 46.569 57.6126 46.4759 57.7772 46.3955L58.1932 46.1741L58.8038 45.8621L58.9682 45.7782L59.0286 45.7513C59.0286 45.7513 59.0286 45.7681 58.9749 45.7882L58.8139 45.8822L58.2167 46.2177L57.8007 46.4425C57.6413 46.5246 57.4877 46.6177 57.3411 46.7209C57.1812 46.8311 57.0631 46.9918 57.0056 47.1772C56.9724 47.2737 56.9687 47.3779 56.995 47.4765C57.0213 47.5751 57.0764 47.6636 57.1532 47.7308C57.2394 47.7892 57.341 47.8207 57.4451 47.8214C57.5468 47.8229 57.648 47.8059 57.7437 47.771C57.9349 47.7039 58.1161 47.61 58.2905 47.5328L59.2131 47.1101L59.8371 46.8283L60.0083 46.7545L60.0754 46.7344Z" fill="#EB996E"/>
<path d="M60.2263 48.0058L59.8573 48.1467C59.5453 48.2675 59.1158 48.4285 58.6327 48.5929C58.5119 48.6332 58.3945 48.6734 58.2972 48.7003C58.1872 48.7287 58.0717 48.7287 57.9617 48.7003C57.8744 48.6701 57.797 48.6167 57.7379 48.5457C57.6787 48.4748 57.6401 48.389 57.6262 48.2977C57.6103 48.1693 57.6412 48.0394 57.7135 47.932C57.7671 47.8582 57.8108 47.828 57.8074 47.8213L57.7738 47.8414C57.7043 47.8944 57.65 47.9648 57.6165 48.0455C57.5829 48.1262 57.5712 48.2144 57.5826 48.301C57.5946 48.4038 57.6357 48.5011 57.7011 48.5813C57.7665 48.6615 57.8534 48.7214 57.9517 48.754C58.068 48.786 58.1909 48.786 58.3073 48.754C58.4268 48.7255 58.5445 48.6897 58.6596 48.6466C59.1427 48.4856 59.5721 48.3111 59.8807 48.1836C60.0351 48.1199 60.1592 48.0662 60.2431 48.0259C60.2885 48.0082 60.3314 47.9845 60.3706 47.9555C60.321 47.9676 60.2727 47.9845 60.2263 48.0058Z" fill="#EB996E"/>
<path d="M60.3102 49.1297L59.9513 49.2035L58.7703 49.4719C58.6598 49.5013 58.5478 49.5248 58.4348 49.5424C58.3341 49.5575 58.2311 49.5459 58.1362 49.5088C58.095 49.4912 58.0577 49.4655 58.0266 49.4332C57.9955 49.401 57.9712 49.3628 57.9551 49.321C57.9313 49.2445 57.9313 49.1626 57.9551 49.0861C57.9994 48.9767 58.0783 48.8847 58.1798 48.8244C58.2537 48.7775 58.2973 48.7573 58.2939 48.7506C58.25 48.7603 58.208 48.7773 58.1698 48.8009C58.0563 48.8598 57.9663 48.9557 57.9148 49.0727C57.8857 49.1575 57.8857 49.2496 57.9148 49.3344C57.9302 49.3846 57.9565 49.4309 57.9919 49.4697C58.0273 49.5086 58.0708 49.5392 58.1195 49.5592C58.2248 49.6056 58.3412 49.6207 58.4549 49.6028C58.5679 49.5852 58.6799 49.5617 58.7904 49.5323C59.2501 49.425 59.6627 49.3243 59.9647 49.2471L60.3169 49.1532C60.4008 49.1297 60.4478 49.1163 60.4444 49.1096C60.3991 49.1114 60.3541 49.1182 60.3102 49.1297Z" fill="#EB996E"/>
<path d="M60.0016 50.1296H59.0454H58.7737C58.6904 50.1336 58.6069 50.1268 58.5254 50.1094C58.4555 50.0949 58.392 50.0585 58.3442 50.0054C58.3251 49.9824 58.3115 49.9553 58.3045 49.9263C58.2975 49.8972 58.2973 49.8669 58.304 49.8377C58.3158 49.7937 58.3365 49.7525 58.3647 49.7168C58.393 49.681 58.4283 49.6514 58.4684 49.6297C58.5254 49.5961 58.5656 49.5894 58.5623 49.5861C58.5589 49.5827 58.522 49.5861 58.4583 49.6095C58.4109 49.6284 58.3684 49.6579 58.3341 49.6957C58.2998 49.7335 58.2746 49.7786 58.2603 49.8276C58.251 49.8638 58.2501 49.9017 58.2576 49.9384C58.2652 49.975 58.281 50.0094 58.304 50.039C58.357 50.1036 58.4303 50.1485 58.512 50.1665C58.5971 50.1827 58.6836 50.1906 58.7703 50.1899H60.0016C60.1337 50.193 60.266 50.1874 60.3974 50.1732C60.2669 50.1479 60.1345 50.1333 60.0016 50.1296Z" fill="#EB996E"/>
<path d="M57.2774 48.9218C57.5078 48.9685 57.7327 49.0394 57.9484 49.1331C57.7614 48.9851 57.5375 48.8911 57.3009 48.8614C57.0671 48.8118 56.824 48.8292 56.5997 48.9117C56.8254 48.8931 57.0523 48.8964 57.2774 48.9218Z" fill="#EB996E"/>
<path d="M28.757 33.3179L29.1764 44.1644L36.3123 48.7943L36.8961 44.9294V43.6444C36.8961 43.6444 39.9793 43.3089 40.1605 40.2526C40.251 38.7697 40.1839 35.6899 40.09 32.912C40.0401 31.4308 39.4127 30.028 38.3418 29.0035C37.2709 27.979 35.8417 27.4143 34.3598 27.43C33.6021 27.4384 32.8539 27.5986 32.1592 27.901C31.4645 28.2035 30.8375 28.6421 30.3152 29.191C29.7929 29.7399 29.386 30.3879 29.1183 31.0967C28.8507 31.8055 28.7278 32.5608 28.757 33.3179Z" fill="#FFBE9D"/>
<path d="M36.8961 43.6512C35.4824 43.6099 34.1127 43.1499 32.9608 42.3293C32.9608 42.3293 33.7995 44.5738 36.8659 44.443L36.8961 43.6512Z" fill="#EB996E"/>
<path d="M39.0829 35.1025C39.0786 35.2166 39.0299 35.3246 38.9473 35.4035C38.8647 35.4823 38.7546 35.5259 38.6404 35.5249C38.5835 35.5281 38.5266 35.5197 38.473 35.5004C38.4195 35.481 38.3704 35.451 38.3288 35.4121C38.2871 35.3733 38.2538 35.3264 38.2307 35.2744C38.2076 35.2223 38.1953 35.1661 38.1945 35.1092C38.1988 34.9951 38.2475 34.8871 38.3301 34.8083C38.4127 34.7294 38.5228 34.6858 38.637 34.6868C38.694 34.6831 38.7511 34.6911 38.8048 34.7103C38.8586 34.7296 38.9079 34.7595 38.9496 34.7985C38.9914 34.8374 39.0247 34.8844 39.0477 34.9367C39.0706 34.989 39.0826 35.0454 39.0829 35.1025Z" fill="#263238"/>
<path d="M39.3553 34.4754C39.2983 34.5291 38.9795 34.2674 38.5098 34.2472C38.0402 34.2271 37.6845 34.4452 37.6342 34.3848C37.5839 34.3244 37.6711 34.2573 37.8254 34.1567C38.0354 34.0236 38.2819 33.9602 38.53 33.9755C38.7748 33.9853 39.01 34.0735 39.201 34.2271C39.3385 34.3445 39.3855 34.4485 39.3553 34.4754Z" fill="#263238"/>
<path d="M34.6276 35.089C34.6232 35.2029 34.5744 35.3105 34.4917 35.3888C34.409 35.4671 34.2989 35.51 34.185 35.5081C34.1296 35.5099 34.0743 35.5006 34.0226 35.4807C33.9708 35.4608 33.9235 35.4308 33.8835 35.3924C33.8435 35.3539 33.8116 35.3079 33.7897 35.257C33.7678 35.206 33.7563 35.1512 33.7559 35.0957C33.7594 34.9819 33.8073 34.874 33.8894 34.795C33.9714 34.7161 34.0812 34.6724 34.1951 34.6733C34.2509 34.6715 34.3066 34.6809 34.3588 34.701C34.411 34.721 34.4586 34.7513 34.4989 34.79C34.5392 34.8288 34.5713 34.8752 34.5934 34.9265C34.6155 34.9779 34.6271 35.0331 34.6276 35.089Z" fill="#263238"/>
<path d="M34.7288 34.3445C34.6718 34.3982 34.353 34.1365 33.8833 34.1164C33.4136 34.0962 33.058 34.3143 33.0111 34.2539C32.9641 34.1935 33.0446 34.1264 33.2023 34.0258C33.4108 33.8924 33.6564 33.8289 33.9035 33.8446C34.1485 33.8538 34.3839 33.942 34.5745 34.0962C34.712 34.2204 34.759 34.3177 34.7288 34.3445Z" fill="#263238"/>
<path d="M36.2721 37.9109C36.5229 37.8449 36.781 37.8111 37.0403 37.8102C37.1611 37.8102 37.2785 37.7834 37.302 37.7029C37.3164 37.5796 37.2942 37.4547 37.2383 37.3439C37.1376 37.0487 37.0336 36.7367 36.9263 36.4112C36.4935 35.0693 36.1882 33.999 36.2553 33.9823C36.3224 33.9655 36.7015 35.0256 37.1343 36.3508C37.2383 36.6863 37.3356 36.9883 37.4295 37.2869C37.5001 37.4344 37.5144 37.6026 37.4698 37.7599C37.4508 37.8017 37.4225 37.8386 37.387 37.8677C37.3516 37.8968 37.3098 37.9173 37.2651 37.9277C37.1972 37.9369 37.1284 37.9369 37.0605 37.9277C36.798 37.9555 36.5331 37.9499 36.2721 37.9109Z" fill="#263238"/>
<path d="M34.8731 38.1693C34.9502 38.1693 34.9268 38.6792 35.3461 39.0617C35.7655 39.4441 36.3124 39.3972 36.3124 39.4877C36.3124 39.5783 36.1849 39.5817 35.9567 39.575C35.6561 39.5618 35.3698 39.443 35.1482 39.2395C34.9356 39.0474 34.8057 38.7805 34.7859 38.4947C34.7758 38.29 34.8395 38.1659 34.8731 38.1693Z" fill="#263238"/>
<path d="M34.9402 32.506C34.8865 32.6301 34.4202 32.5496 33.8666 32.5899C33.313 32.6301 32.8601 32.7576 32.7897 32.6402C32.7595 32.5832 32.8433 32.4691 33.0279 32.3517C33.2735 32.2095 33.5495 32.1279 33.833 32.1135C34.1163 32.0913 34.4008 32.1385 34.6617 32.251C34.863 32.3416 34.9603 32.4456 34.9402 32.506Z" fill="#263238"/>
<path d="M39.2479 33.1066C39.1607 33.2072 38.842 33.0831 38.4528 33.0596C38.0636 33.0361 37.7281 33.0965 37.6577 32.9791C37.6275 32.9254 37.6845 32.8214 37.8321 32.7274C38.0344 32.6084 38.2697 32.5578 38.5031 32.5832C38.731 32.5976 38.9489 32.682 39.1271 32.8247C39.2479 32.9422 39.2848 33.0562 39.2479 33.1066Z" fill="#263238"/>
<path d="M40.4322 29.5436C40.7468 29.3003 40.9831 28.9701 41.1119 28.5938C41.2408 28.2175 41.2564 27.8117 41.1569 27.4266C41.046 27.0444 40.8387 26.6971 40.555 26.418C40.2712 26.1389 39.9205 25.9375 39.5364 25.833C39.1501 25.7382 38.7477 25.7292 38.3575 25.8069C37.9674 25.8846 37.5991 26.047 37.2785 26.2826C37.2698 26.0989 37.2015 25.923 37.0842 25.7814C36.9668 25.6399 36.8066 25.5402 36.6277 25.4976C36.2691 25.4171 35.8937 25.4658 35.5675 25.6351C34.977 25.9117 34.5022 26.3866 34.2255 26.9771C34.0591 26.7123 33.8239 26.4978 33.5449 26.3564C33.266 26.2151 32.9539 26.1523 32.642 26.1747C32.3301 26.1971 32.0301 26.3039 31.7742 26.4836C31.5184 26.6634 31.3162 26.9093 31.1893 27.1952C31.1103 27.4248 31.0162 27.649 30.9075 27.8661C30.8255 27.9743 30.7187 28.0613 30.5961 28.1197C30.4735 28.178 30.3387 28.2061 30.203 28.2016C29.7869 28.2455 29.391 28.4034 29.0589 28.6579C28.707 28.9181 28.4185 29.2545 28.2151 29.6421C28.0118 30.0296 27.8988 30.4582 27.8847 30.8957C27.9082 33.1032 28.596 34.2338 28.6597 36.3474C28.65 36.4887 28.6814 36.6297 28.7503 36.7534C28.9516 37.052 29.4213 36.9044 29.7064 36.6695C30.3501 36.0551 30.7684 35.2422 30.8941 34.3613C31.0618 33.4957 31.082 32.6067 31.2296 31.7411V31.6807C31.2969 31.3159 31.4472 30.9715 31.6691 30.6742C31.9284 30.8717 32.2033 31.0478 32.491 31.201C33.002 31.4243 33.5712 31.4777 34.1147 31.3533C34.6583 31.2289 35.1476 30.9332 35.5105 30.5098C36.2088 31.0568 37.0762 31.3427 37.963 31.3184C38.8325 31.3449 39.683 31.0606 40.3617 30.5165C40.534 30.3679 40.6607 30.1737 40.7274 29.9563C40.7387 29.863 40.7146 29.769 40.66 29.6926C40.6053 29.6162 40.5241 29.5631 40.4322 29.5436Z" fill="#263238"/>
<path d="M29.7198 34.8042C29.6662 34.7773 27.6465 34.0829 27.6129 36.1764C27.5794 38.2699 29.693 37.874 29.6964 37.8136C29.6997 37.7532 29.7198 34.8042 29.7198 34.8042Z" fill="#FFBE9D"/>
<path d="M29.069 37.0084C29.069 37.0084 29.0321 37.0353 28.9684 37.0621C28.8814 37.0981 28.7836 37.0981 28.6966 37.0621C28.5604 36.9736 28.4507 36.8497 28.3792 36.7038C28.3078 36.5579 28.2772 36.3954 28.2907 36.2334C28.2873 36.0539 28.3252 35.876 28.4014 35.7134C28.4222 35.6482 28.4584 35.5888 28.5068 35.5404C28.5553 35.492 28.6146 35.4558 28.6799 35.435C28.7221 35.4248 28.7667 35.4295 28.8058 35.4485C28.845 35.4675 28.8764 35.4995 28.8946 35.539C28.9214 35.5994 28.8946 35.6396 28.9181 35.643C28.9415 35.6463 28.965 35.6094 28.9482 35.5222C28.9385 35.4701 28.9098 35.4235 28.8677 35.3914C28.8396 35.369 28.8073 35.3525 28.7728 35.3427C28.7382 35.3329 28.7021 35.3301 28.6664 35.3343C28.5783 35.3513 28.4962 35.3913 28.4284 35.4502C28.3607 35.5091 28.3097 35.5849 28.2806 35.6698C28.188 35.849 28.1418 36.0486 28.1464 36.2502C28.1325 36.4364 28.1742 36.6225 28.2662 36.785C28.3581 36.9474 28.4963 37.0789 28.6631 37.1628C28.719 37.1813 28.7785 37.1864 28.8368 37.1776C28.8951 37.1689 28.9505 37.1466 28.9986 37.1124C29.0623 37.0588 29.0757 37.0118 29.069 37.0084Z" fill="#EB996E"/>
<path d="M28.0525 32.8482C28.2345 32.7471 28.4215 32.6553 28.6128 32.5731C29.0547 32.343 29.4523 32.0363 29.787 31.6673C30.1193 31.2976 30.3849 30.8731 30.572 30.4126C30.6333 30.2132 30.705 30.0173 30.7868 29.8254C30.794 30.0389 30.7563 30.2515 30.6761 30.4495C30.5145 30.9403 30.2516 31.3918 29.9044 31.7747C29.5588 32.1587 29.1357 32.4651 28.6631 32.6738C28.4738 32.7735 28.2659 32.8329 28.0525 32.8482Z" fill="#455A64"/>
<path d="M31.4611 30.53C31.4553 30.7618 31.4028 30.99 31.3068 31.201C31.0978 31.7278 30.7751 32.2018 30.3615 32.5893C29.948 32.9767 29.4539 33.2679 28.9147 33.4421C28.695 33.5244 28.4614 33.5631 28.2269 33.5562C28.2269 33.526 28.4853 33.4857 28.8778 33.3381C29.9078 32.9428 30.7423 32.1601 31.2028 31.1574C31.3772 30.7951 31.4343 30.53 31.4611 30.53Z" fill="#455A64"/>
<path d="M38.7279 29.4329C38.7078 29.4329 38.587 29.2987 38.332 29.1376C38.0072 28.9197 37.6203 28.8136 37.2298 28.8354C36.8393 28.8572 36.4666 29.0057 36.1681 29.2584C35.9366 29.4463 35.8326 29.6107 35.8091 29.5939C35.7856 29.5771 35.8661 29.396 36.0943 29.1712C36.3971 28.8744 36.7976 28.6978 37.221 28.6743C37.6444 28.6509 38.0619 28.7821 38.3958 29.0437C38.6507 29.245 38.7413 29.4262 38.7279 29.4329Z" fill="#455A64"/>
<path d="M40.0799 26.1686C39.8091 26.1151 39.5311 26.1083 39.258 26.1484C38.9511 26.1994 38.663 26.3301 38.4226 26.5275C38.1098 26.7843 37.8924 27.1388 37.8053 27.534L37.7751 27.6682L37.6845 27.5609C37.4245 27.2595 37.0694 27.056 36.678 26.9838C36.2508 26.8922 35.8046 26.973 35.4367 27.2086C35.227 27.3438 35.0479 27.5214 34.911 27.73C34.774 27.9386 34.6823 28.1735 34.6416 28.4197L34.6181 28.5841L34.5107 28.46C34.341 28.2653 34.1345 28.1061 33.903 27.9915C33.6716 27.8769 33.4197 27.8093 33.162 27.7923C32.7464 27.7716 32.3357 27.8896 31.9945 28.1278C31.7692 28.2866 31.5776 28.4884 31.4309 28.7217C31.3302 28.8861 31.29 28.9867 31.2799 28.9834C31.2973 28.8824 31.3337 28.7856 31.3873 28.6982C31.5604 28.38 31.8173 28.1151 32.1301 27.9324C32.4429 27.7497 32.7998 27.656 33.162 27.6615C33.4422 27.6673 33.7183 27.7297 33.9738 27.845C34.2292 27.9603 34.4586 28.1262 34.6483 28.3325L34.5174 28.3728C34.5576 28.1042 34.6547 27.8473 34.8023 27.6193C34.9498 27.3914 35.1444 27.1976 35.3729 27.0509C35.7713 26.7975 36.2528 26.7097 36.7149 26.806C37.1354 26.8908 37.5143 27.1169 37.7885 27.4468L37.6644 27.4736C37.7659 27.0591 38.0019 26.6899 38.3353 26.4235C38.5963 26.2212 38.9068 26.0926 39.2345 26.0511C39.4426 26.0237 39.654 26.0339 39.8585 26.0813C39.9376 26.0947 40.013 26.1244 40.0799 26.1686Z" fill="#455A64"/>
<path d="M48.7457 56.8092L46.6589 57.7755L45.6759 58.7819C45.6759 58.7819 47.9573 58.5102 48.0244 58.8926C48.0915 59.2751 48.0948 59.7112 47.9439 59.832C47.8013 59.9767 47.6763 60.1378 47.5715 60.3118C47.5715 60.3118 48.1183 60.9224 47.907 61.2344C47.7728 61.432 47.6604 61.6435 47.5715 61.8651L47.236 61.8383C47.236 61.8383 47.2729 63.0259 47.0246 63.1803C46.8733 63.3096 46.6859 63.3892 46.4878 63.4084C46.1523 63.4721 45.4444 63.5057 45.4444 63.5057L45.0687 63.4721C45.0687 63.4721 43.1127 65.9347 42.4149 65.8709C41.7171 65.8072 40.4221 65.7904 40.4221 65.7904L29.4716 72.1648L29.9748 66.4614L30.0419 65.418L40.8146 61.5397L44.646 57.2689L46.4408 56.3899L49.051 55.8162C49.1091 55.9929 49.111 56.1834 49.0563 56.3613C49.0016 56.5391 48.8931 56.6956 48.7457 56.8092Z" fill="#FFBE9D"/>
<path d="M40.4288 65.7871H40.8214L41.9486 65.8173H42.3344C42.4697 65.8309 42.6059 65.8016 42.7236 65.7335C42.9957 65.5699 43.2469 65.3739 43.4718 65.1497C44.0274 64.608 44.5474 64.0308 45.0285 63.4219L45.0486 63.3951H45.0821L45.4545 63.4253C45.6827 63.4253 45.9175 63.3951 46.1557 63.3716C46.2731 63.3716 46.3939 63.3447 46.5113 63.3213C46.6298 63.3089 46.7443 63.2711 46.8468 63.2105L47.0079 63.1032C47.0432 63.0692 47.0687 63.0263 47.0817 62.9791C47.1204 62.8593 47.1451 62.7355 47.1555 62.61C47.1826 62.3459 47.1927 62.0803 47.1857 61.8149V61.7344H47.2662L47.6017 61.7646L47.5279 61.8115C47.5805 61.6767 47.6422 61.5456 47.7124 61.419C47.7728 61.2882 47.8936 61.1573 47.9003 61.0634C47.8997 60.9286 47.86 60.797 47.7862 60.6843C47.7154 60.558 47.6311 60.4399 47.5346 60.332L47.4977 60.2884L47.5279 60.2414C47.6115 60.1024 47.7057 59.9701 47.8097 59.8455C47.8393 59.8126 47.8707 59.7812 47.9036 59.7516C47.926 59.7332 47.9443 59.7104 47.9573 59.6845C47.984 59.6181 47.9998 59.5479 48.0043 59.4765C48.0192 59.3192 48.0192 59.1608 48.0043 59.0034V58.8827C48.0043 58.8625 48.0043 58.8592 47.9707 58.8391C47.9053 58.8066 47.8351 58.7851 47.7627 58.7753C47.0918 58.7186 46.4167 58.7366 45.7498 58.829L45.5317 58.8491L45.686 58.6948L45.7196 58.6579L46.6657 57.6984L48.7558 56.7322C48.889 56.6277 48.9865 56.4844 49.0346 56.3221C49.0827 56.1598 49.079 55.9865 49.0242 55.8263L49.1114 55.8733L46.4979 56.4403L44.6997 57.3092H44.7198C43.5422 58.6042 42.5827 59.6577 41.9017 60.4092L41.1233 61.2546L40.9153 61.4727C40.8683 61.5197 40.8448 61.5431 40.8415 61.5398C40.8591 61.5111 40.8793 61.4842 40.9019 61.4593L41.0965 61.2311L41.8513 60.3622L44.6259 57.2253L46.4174 56.343L49.0275 55.7626H49.0946L49.1148 55.823C49.1731 56.0143 49.1731 56.2187 49.1148 56.4101C49.0588 56.6062 48.9412 56.7792 48.7793 56.9033L46.6925 57.8695H46.7126L45.7699 58.829L45.733 58.8659L45.6692 58.7317C46.0047 58.6948 46.3604 58.6646 46.7026 58.6512C47.0449 58.626 47.3889 58.6361 47.7292 58.6814C47.8221 58.694 47.9119 58.7236 47.9942 58.7686C48.021 58.7852 48.0441 58.8072 48.0621 58.8332C48.08 58.8592 48.0923 58.8886 48.0982 58.9196V59.0437C48.1206 59.2116 48.1262 59.3813 48.115 59.5503C48.1074 59.6403 48.0859 59.7286 48.0512 59.812C48.0307 59.8587 47.9983 59.8991 47.9573 59.9294L47.8835 60.0066C47.7844 60.1242 47.6936 60.2487 47.6118 60.379V60.2884C47.7143 60.4074 47.8042 60.5367 47.8801 60.6742C47.9685 60.8124 48.0151 60.9732 48.0143 61.1372C48.0001 61.2214 47.9655 61.3008 47.9137 61.3687C47.8768 61.4257 47.8399 61.4861 47.8063 61.5498C47.7396 61.6703 47.6803 61.7947 47.6285 61.9222L47.6084 61.9726H47.5547L47.2192 61.9424L47.2997 61.8686C47.3055 62.1408 47.2943 62.413 47.2662 62.6838C47.2528 62.8195 47.2247 62.9534 47.1823 63.0831C47.1573 63.1586 47.112 63.2259 47.0515 63.2776L46.8904 63.3816C46.7759 63.4508 46.6477 63.4943 46.5147 63.5091C46.3906 63.5326 46.2664 63.546 46.1456 63.5595C45.9007 63.5829 45.6659 63.5964 45.4378 63.6064L45.0654 63.5729L45.119 63.5494C44.6281 64.1601 44.0968 64.7374 43.5288 65.2772C43.2963 65.5039 43.0359 65.7001 42.7538 65.8609C42.6866 65.8956 42.6157 65.9227 42.5424 65.9415C42.469 65.9513 42.3945 65.9513 42.321 65.9415L41.9386 65.9213L40.8146 65.8609L40.5228 65.8375C40.4887 65.8265 40.4568 65.8095 40.4288 65.7871Z" fill="#EB996E"/>
<path d="M47.5883 60.2514C47.5883 60.2715 47.4541 60.1876 47.2528 60.1138C46.9759 60.0242 46.6827 59.9967 46.3939 60.0333C46.1 60.073 45.8103 60.1393 45.5284 60.2313C45.3069 60.295 45.166 60.3319 45.1593 60.3118C45.1526 60.2916 45.2767 60.2178 45.4948 60.1239C45.7761 59.9977 46.0746 59.914 46.3805 59.8756C46.6934 59.8361 47.0112 59.8825 47.2998 60.0098C47.4977 60.1172 47.5883 60.238 47.5883 60.2514Z" fill="#EB996E"/>
<path d="M47.2528 61.8853C47.2326 61.8853 47.2528 61.7276 47.0951 61.6203C46.8376 61.5268 46.5608 61.4991 46.2899 61.5398C45.8961 61.6085 45.5113 61.721 45.1425 61.8752C45.446 61.5774 45.8513 61.4059 46.2765 61.3955C46.4393 61.3784 46.6035 61.3784 46.7663 61.3955C46.9073 61.4042 47.0432 61.4518 47.1588 61.533C47.1992 61.5633 47.2322 61.6022 47.2554 61.6469C47.2786 61.6916 47.2915 61.741 47.293 61.7914C47.2897 61.8585 47.2528 61.8887 47.2528 61.8853Z" fill="#EB996E"/>
<path d="M46.2027 62.7374C46.2027 62.7575 46.1088 62.7978 45.9444 62.8145C45.7409 62.8212 45.5386 62.8482 45.3405 62.8951C45.2503 62.9144 45.1689 62.9625 45.1084 63.0321C45.0479 63.1016 45.0116 63.1889 45.005 63.2809C45.005 63.4251 45.0855 63.4922 45.0721 63.509C45.0587 63.5258 44.9312 63.4855 44.8943 63.2943C44.8836 63.2397 44.8843 63.1835 44.8965 63.1292C44.9086 63.075 44.9318 63.0238 44.9647 62.9789C45.0418 62.8709 45.151 62.7899 45.2767 62.7474C45.4887 62.6905 45.7099 62.6756 45.9276 62.7038C46.0987 62.7374 46.196 62.7173 46.2027 62.7374Z" fill="#EB996E"/>
<g opacity="0.3">
<path opacity="0.3" d="M39.4593 74.9225C35.5642 75.5499 31.5047 75.3587 27.613 74.681C27.2607 74.6206 26.8044 74.5971 26.6367 74.9158C26.5867 75.0296 26.5751 75.1566 26.6035 75.2776C26.632 75.3986 26.6989 75.5071 26.7944 75.5868C26.9825 75.7392 27.2046 75.844 27.4419 75.8921C29.1193 76.3551 30.9109 76.3215 32.6588 76.2444C35.9044 76.1133 39.1107 75.4866 42.1667 74.3857L39.4593 74.9225Z" fill="black"/>
</g>
<g opacity="0.3">
<path opacity="0.3" d="M26.8312 64.9886C26.0655 64.7432 25.2487 64.7033 24.4626 64.8729C23.6766 65.0424 22.9489 65.4156 22.3524 65.9549C22.2048 66.0924 22.0505 66.2904 22.1108 66.4782C22.1374 66.5472 22.1831 66.6072 22.2425 66.6512C22.3019 66.6951 22.3726 66.7213 22.4463 66.7265C22.5951 66.7322 22.7432 66.7035 22.8791 66.6426C23.5522 66.3396 24.2015 65.9863 24.8216 65.5858C25.448 65.1847 26.1863 64.9943 26.9285 65.0423" fill="black"/>
</g>
</svg>
