<svg width="85" height="73" viewBox="0 0 85 73" fill="none" xmlns="http://www.w3.org/2000/svg">
<g clip-path="url(#clip0)">
<path d="M76.9046 47.2568C79.6775 47.2568 81.9253 45.009 81.9253 42.2361C81.9253 39.4633 79.6775 37.2154 76.9046 37.2154C74.1318 37.2154 71.8839 39.4633 71.8839 42.2361C71.8839 45.009 74.1318 47.2568 76.9046 47.2568Z" fill="#F2F2F2"/>
<path d="M53.9953 47.2568C56.7682 47.2568 59.016 45.009 59.016 42.2361C59.016 39.4633 56.7682 37.2154 53.9953 37.2154C51.2225 37.2154 48.9746 39.4633 48.9746 42.2361C48.9746 45.009 51.2225 47.2568 53.9953 47.2568Z" fill="#F2F2F2"/>
<path d="M59.1648 2.03337H46.892V16.612H59.1648V2.03337Z" fill="#F2F2F2"/>
<path d="M62.3139 16.7115H46.7925V0H62.3139V16.7115ZM46.9915 16.5125H62.1149V0.198999H46.9915V16.5125Z" fill="#3F3D56"/>
<path d="M62.3139 49.5877H46.7925V32.8762H62.3139V49.5877ZM46.9915 49.3888H62.1149V33.0752H46.9915V49.3888Z" fill="#3F3D56"/>
<path d="M39.6278 49.5877H24.1064V32.8762H39.6278V49.5877ZM24.3054 49.3888H39.4288V33.0752H24.3054V49.3888Z" fill="#3F3D56"/>
<path d="M85 49.5877H69.4786V32.8762H85V49.5877ZM69.6776 49.3888H84.801V33.0752H69.6776V49.3888Z" fill="#3F3D56"/>
<path d="M54.6527 16.612H54.4537V32.9757H54.6527V16.612Z" fill="#3F3D56"/>
<path d="M77.3389 32.9757H77.1399V23.852H31.9666V32.9757H31.7676V23.653H77.3389V32.9757Z" fill="#3F3D56"/>
<path d="M57.0821 6.66321H46.892V6.86221H57.0821V6.66321Z" fill="#3F3D56"/>
<path d="M57.0821 9.37193H46.892V9.57094H57.0821V9.37193Z" fill="#3F3D56"/>
<path d="M57.0821 12.0807H46.892V12.2797H57.0821V12.0807Z" fill="#3F3D56"/>
<path d="M42.7972 71.4568H2.41803V71.6333H42.7972V71.4568Z" fill="#3F3D56"/>
<path d="M31.8671 47.2568C35.1945 47.2568 37.8919 44.5594 37.8919 41.232C37.8919 37.9046 35.1945 35.2072 31.8671 35.2072C28.5397 35.2072 25.8423 37.9046 25.8423 41.232C25.8423 44.5594 28.5397 47.2568 31.8671 47.2568Z" fill="#0B519D"/>
<path d="M35.6606 40.637H32.4622V37.4386H31.2721V40.637H28.0737V41.827H31.2721V45.0254H32.4622V41.827H35.6606V40.637Z" fill="white"/>
<path d="M54.5532 47.3563C53.3419 47.3563 52.1579 46.9971 51.1507 46.3242C50.1436 45.6512 49.3586 44.6948 48.8951 43.5757C48.4316 42.4566 48.3103 41.2252 48.5466 40.0372C48.7829 38.8492 49.3662 37.758 50.2227 36.9015C51.0791 36.045 52.1704 35.4617 53.3584 35.2254C54.5464 34.9891 55.7778 35.1103 56.8968 35.5739C58.0159 36.0374 58.9724 36.8224 59.6454 37.8295C60.3183 38.8366 60.6775 40.0207 60.6775 41.232C60.6757 42.8557 60.0299 44.4123 58.8817 45.5605C57.7336 46.7086 56.1769 47.3545 54.5532 47.3563ZM54.5532 35.3067C53.3813 35.3067 52.2357 35.6542 51.2613 36.3053C50.2869 36.9564 49.5274 37.8818 49.0789 38.9645C48.6305 40.0472 48.5131 41.2386 48.7417 42.388C48.9704 43.5374 49.5347 44.5932 50.3634 45.4218C51.1921 46.2505 52.2479 46.8148 53.3973 47.0435C54.5467 47.2721 55.7381 47.1547 56.8208 46.7063C57.9035 46.2578 58.8289 45.4983 59.48 44.5239C60.131 43.5495 60.4785 42.4039 60.4785 41.232C60.4767 39.661 59.8519 38.1549 58.7411 37.0441C57.6302 35.9333 56.1241 35.3085 54.5532 35.3067V35.3067Z" fill="#3F3D56"/>
<path d="M58.4461 41.9265H50.6603V40.5374H58.4461L58.4461 41.9265ZM50.8593 41.7275H58.2471V40.7364H50.8593V41.7275Z" fill="#3F3D56"/>
<path d="M77.2393 47.3563C76.0281 47.3563 74.844 46.9972 73.8369 46.3242C72.8297 45.6513 72.0447 44.6948 71.5812 43.5757C71.1177 42.4567 70.9964 41.2253 71.2327 40.0373C71.469 38.8493 72.0522 37.758 72.9087 36.9015C73.7652 36.045 74.8565 35.4617 76.0445 35.2254C77.2325 34.9891 78.4638 35.1103 79.5829 35.5739C80.702 36.0374 81.6585 36.8224 82.3314 37.8295C83.0044 38.8366 83.3636 40.0207 83.3636 41.232C83.3618 42.8557 82.7159 44.4123 81.5678 45.5605C80.4197 46.7086 78.863 47.3545 77.2393 47.3563V47.3563ZM77.2393 35.3067C76.0674 35.3067 74.9218 35.6542 73.9474 36.3053C72.973 36.9563 72.2135 37.8818 71.765 38.9645C71.3166 40.0472 71.1992 41.2386 71.4278 42.388C71.6565 43.5374 72.2208 44.5932 73.0495 45.4218C73.8781 46.2505 74.9339 46.8148 76.0833 47.0435C77.2327 47.2721 78.4241 47.1548 79.5068 46.7063C80.5895 46.2578 81.515 45.4983 82.166 44.5239C82.8171 43.5495 83.1646 42.4039 83.1646 41.232C83.1628 39.661 82.538 38.155 81.4272 37.0441C80.3163 35.9333 78.8103 35.3085 77.2393 35.3067V35.3067Z" fill="#3F3D56"/>
<path d="M78.7762 42.9891V41.9265H73.6439V40.5374H78.7762V39.4651L80.8907 41.2911L78.7762 42.9891ZM73.8429 41.7275H78.9752V42.574L80.5798 41.2855L78.9752 39.8998V40.7364H73.8429V41.7275Z" fill="#3F3D56"/>
<path d="M25.4302 35.7371C25.4302 35.7371 27.5482 40.1496 26.1362 40.3261C24.7242 40.5026 24.3712 36.3548 24.3712 36.3548L25.4302 35.7371Z" fill="#FFB9B9"/>
<path d="M17.3992 63.9776L18.8112 66.4799L16.252 68.0813L15.6408 65.1266L17.3992 63.9776Z" fill="#FFB9B9"/>
<path d="M18.0022 66.8275C18.0022 66.8275 18.7775 65.5652 19.058 65.7765C19.3384 65.9878 20.495 66.9033 20.495 66.9033L22.0016 68.3463C22.0016 68.3463 27.0917 68.8845 23.8573 70.6679C20.623 72.4514 18.8356 70.9726 18.8356 70.9726C18.8356 70.9726 14.3055 71.2082 14.3786 69.9443C14.4517 68.6805 15.9127 66.681 15.9127 66.681C15.9127 66.681 17.754 67.9154 18.0022 66.8275Z" fill="#2F2E41"/>
<path opacity="0.1" d="M18.0022 66.8275C18.0022 66.8275 18.7775 65.5652 19.058 65.7765C19.3384 65.9878 20.495 66.9033 20.495 66.9033L22.0016 68.3463C22.0016 68.3463 27.0917 68.8845 23.8573 70.6679C20.623 72.4514 18.8356 70.9726 18.8356 70.9726C18.8356 70.9726 14.3055 71.2082 14.3786 69.9443C14.4517 68.6805 15.9127 66.681 15.9127 66.681C15.9127 66.681 17.754 67.9154 18.0022 66.8275Z" fill="black"/>
<path d="M11.1334 35.6929L12.4571 51.7106C12.4571 51.7106 12.5013 61.2859 13.9133 63.1392C15.3253 64.9925 15.3694 65.9191 15.3694 65.9191L18.2817 64.4188C18.2817 64.4188 17.311 64.3306 17.7522 63.7128C18.1935 63.0951 19.5173 63.7128 18.2817 62.8303C17.0462 61.9478 16.7815 61.9189 17.0903 61.5362C17.2807 61.2935 17.4162 61.0124 17.4875 60.7123L16.6932 50.8281L18.1935 33.619L11.1334 35.6929Z" fill="#2F2E41"/>
<path opacity="0.1" d="M11.1334 35.6929L12.4571 51.7106C12.4571 51.7106 12.5013 61.2859 13.9133 63.1392C15.3253 64.9925 15.3694 65.9191 15.3694 65.9191L18.2817 64.4188C18.2817 64.4188 17.311 64.3306 17.7522 63.7128C18.1935 63.0951 19.5173 63.7128 18.2817 62.8303C17.0462 61.9478 16.7815 61.9189 17.0903 61.5362C17.2807 61.2935 17.4162 61.0124 17.4875 60.7123L16.6932 50.8281L18.1935 33.619L11.1334 35.6929Z" fill="black"/>
<path d="M14.7517 63.9776L13.5162 67.2429L9.98615 65.9191L12.1924 63.6246L14.7517 63.9776Z" fill="#FFB9B9"/>
<path d="M12.9988 65.8391C12.9988 65.8391 14.3179 65.0147 14.4827 65.3445C14.6476 65.6742 15.3071 67.0757 15.3071 67.0757L16.0491 69.1367C16.0491 69.1367 20.5833 72.0222 16.7086 72.1871C12.8339 72.3519 11.8446 70.126 11.8446 70.126C11.8446 70.126 7.47529 68.2299 8.13482 67.0757C8.79435 65.9216 11.1027 64.7245 11.1027 64.7245C11.1027 64.7245 12.2568 66.746 12.9988 65.8391Z" fill="#2F2E41"/>
<path d="M22.3413 35.7371L23.0473 50.4751C23.0473 50.4751 19.6055 60.271 16.605 61.8596C16.605 61.8596 16.605 63.8011 15.8989 64.1541C15.6886 64.2627 15.5021 64.4124 15.3505 64.5943C15.1989 64.7762 15.0853 64.9866 15.0164 65.2131L11.1334 64.2423C11.1334 64.2423 12.1041 63.2716 11.7511 62.8303C11.3981 62.3891 12.8984 61.4183 12.8984 61.4183L16.7815 51.9754C16.7815 51.9754 17.3992 51.7106 17.5757 50.8281C17.7522 49.9456 18.1052 49.9456 17.2227 49.7691C16.3402 49.5926 16.3402 48.7101 16.3402 48.7101L13.4279 35.2958L22.3413 35.7371Z" fill="#2F2E41"/>
<path d="M19.1643 12.6151C21.1139 12.6151 22.6944 11.0347 22.6944 9.08507C22.6944 7.13547 21.1139 5.55501 19.1643 5.55501C17.2147 5.55501 15.6343 7.13547 15.6343 9.08507C15.6343 11.0347 17.2147 12.6151 19.1643 12.6151Z" fill="#FFB9B9"/>
<path d="M16.0314 9.30569C16.0314 9.30569 15.7666 13.8065 15.4136 14.2478C15.0606 14.689 19.1202 14.6008 19.1202 14.6008C19.1202 14.6008 18.8554 10.806 19.1202 10.453C19.3849 10.1 16.0314 9.30569 16.0314 9.30569Z" fill="#FFB9B9"/>
<path d="M14.84 12.8799C14.84 12.8799 18.1935 12.5269 19.4291 13.5859C19.8238 13.9229 20.2466 14.2254 20.693 14.4901C21.0658 14.7137 21.3763 15.0274 21.5961 15.4025C21.8159 15.7776 21.9379 16.2019 21.9507 16.6364L22.6061 36.7078C22.6061 36.7078 12.6337 35.8253 10.7804 36.7078C10.7804 36.7078 10.6922 34.678 10.5157 34.4133C10.387 34.2203 10.1645 26.5231 10.0534 22.3654C9.99067 20.0192 10.797 17.7176 12.3705 15.976C12.9053 15.3839 13.503 14.8876 14.134 14.6449C14.134 14.6449 13.9575 12.9681 14.84 12.8799Z" fill="#575A89"/>
<path d="M20.2233 14.6449C20.7201 14.7757 21.1672 15.0503 21.5085 15.4342C21.8497 15.8182 22.0699 16.2945 22.1413 16.8032L23.4004 25.7646L25.1654 32.913C25.1654 32.913 26.0479 33.7073 25.6949 34.1485C25.3419 34.5898 26.1362 36.4431 26.1362 36.4431L23.9299 37.1491C23.9299 37.1491 23.6651 35.2958 23.2239 35.2076C22.8361 35.13 18.4951 23.5335 17.4487 20.7242C17.3044 20.3368 17.2228 20.1165 17.2228 20.1165C17.2228 20.1165 17.3993 14.2037 20.2233 14.6449Z" fill="#575A89"/>
<path opacity="0.1" d="M17.2669 20.0724L22.6061 34.5165C22.6061 34.5165 17.4434 24.7497 17.2669 20.0724Z" fill="black"/>
<path d="M17.3201 10.1253C17.6187 10.1074 17.9102 10.2083 18.2066 10.2477C19.2673 10.3885 20.3707 9.61884 20.6049 8.5748C20.6237 8.43577 20.6651 8.30076 20.7276 8.17513C20.8908 7.90861 21.2626 7.85779 21.5691 7.91908C21.8756 7.98036 22.1661 8.1238 22.4782 8.14018C22.9601 8.16547 23.4228 7.86878 23.6796 7.46023C23.9364 7.05167 24.0091 6.54895 23.9745 6.06762L23.7434 6.31009C23.6496 6.11149 23.6133 5.89053 23.6388 5.67234C23.5164 5.63974 23.3877 5.63911 23.2649 5.67052C23.1422 5.70192 23.0296 5.76431 22.9378 5.85171C22.7341 5.87339 22.8879 5.47387 22.7365 5.33579C22.6732 5.27798 22.576 5.28889 22.4902 5.28971C22.0569 5.29389 21.7063 4.96242 21.3648 4.69559C20.7731 4.23428 20.0812 3.91867 19.3449 3.77424C18.8556 3.6788 18.3352 3.66346 17.8711 3.84568C17.49 3.99533 17.171 4.2679 16.8758 4.5517C16.1492 5.25034 15.5059 6.07123 15.2036 7.03282C14.9579 7.82043 14.9509 8.66319 15.1836 9.45476C15.3054 9.86584 15.6725 11.2737 16.2098 11.3065C16.8851 11.3477 16.4797 10.1754 17.3201 10.1253Z" fill="#2F2E41"/>
<path d="M6.31553 71.5165L6.22082 71.481C6.2 71.4732 4.1285 70.6795 3.15812 68.8799C2.1877 67.0803 2.66287 64.9134 2.66778 64.8918L2.69015 64.7931L2.78482 64.8286C2.80563 64.8365 4.87709 65.6301 5.84751 67.4297C6.81794 69.2294 6.34277 71.3962 6.33785 71.4179L6.31553 71.5165ZM3.31351 68.7962C4.13393 70.3177 5.7709 71.0977 6.18565 71.2757C6.26451 70.8312 6.51182 69.0336 5.69213 67.5135C4.87252 65.9936 3.23491 65.2124 2.81998 65.0339C2.74108 65.4787 2.49386 67.2762 3.31351 68.7962H3.31351Z" fill="#3F3D56"/>
<path d="M3.89969 68.2487C5.6436 69.2978 6.31523 71.3818 6.31523 71.3818C6.31523 71.3818 4.15944 71.7647 2.41553 70.7155C0.671632 69.6663 0 67.5824 0 67.5824C0 67.5824 2.15579 67.1995 3.89969 68.2487Z" fill="#0B519D"/>
</g>
<defs>
<clipPath id="clip0">
<rect width="85" height="72.1958" fill="white"/>
</clipPath>
</defs>
</svg>
