<svg width="575" height="137" viewBox="0 0 575 137" fill="none" xmlns="http://www.w3.org/2000/svg">
<path d="M91.5407 33.4351H87.074V44.5363H91.5407V33.4351Z" fill="#FF8406"/>
<path d="M108.619 55.0464L105.532 51.959L111.51 45.9158V17.8671H115.976V47.755L108.619 55.0464Z" fill="#FF8406"/>
<path d="M126.487 68.4467L123.333 65.2937L129.311 59.2504V35.6685H133.778V61.0897L126.487 68.4467Z" fill="#FF8406"/>
<path d="M89.2417 29.034C85.5631 29.034 82.5415 26.0124 82.5415 22.3338C82.5415 18.6553 85.5631 15.6337 89.2417 15.6337C92.9202 15.6337 95.9418 18.6553 95.9418 22.3338C95.9418 26.0124 92.9202 29.034 89.2417 29.034Z" fill="#08519C"/>
<path d="M71.5058 17.8671H67.0391V42.3686H71.5058V17.8671Z" fill="#FF8406"/>
<path d="M69.2067 13.4003C65.5282 13.4003 62.5066 10.3787 62.5066 6.70015C62.5066 3.02164 65.5282 0 69.2067 0C72.8853 0 75.9069 3.02164 75.9069 6.70015C75.9069 10.3787 72.8853 13.4003 69.2067 13.4003Z" fill="#08519C"/>
<path d="M113.743 13.4003C110.065 13.4003 107.043 10.3787 107.043 6.70015C107.043 3.02164 110.065 0 113.743 0C117.422 0 120.443 3.02164 120.443 6.70015C120.443 10.3787 117.422 13.4003 113.743 13.4003Z" fill="#08519C"/>
<path d="M131.545 31.2674C127.866 31.2674 124.844 28.2458 124.844 24.5672C124.844 20.8887 127.866 17.8671 131.545 17.8671C135.223 17.8671 138.245 20.8887 138.245 24.5672C138.245 28.2458 135.223 31.2674 131.545 31.2674Z" fill="#08519C"/>
<path d="M51.4712 33.4351H47.0044V46.7697H51.4712V33.4351Z" fill="#FF8406"/>
<path d="M29.794 55.0464L22.5027 47.755V17.8671H26.9695V45.9158L32.947 51.959L29.794 55.0464Z" fill="#FF8406"/>
<path d="M16.4595 72.9135L4.70142 61.0897V35.6685H9.1025V59.2504L19.6125 69.7604L16.4595 72.9135Z" fill="#FF8406"/>
<path d="M49.1721 29.034C45.4936 29.034 42.4719 26.0124 42.4719 22.3338C42.4719 18.6553 45.4936 15.6337 49.1721 15.6337C52.8506 15.6337 55.8722 18.6553 55.8722 22.3338C55.8722 26.0124 52.8506 29.034 49.1721 29.034Z" fill="#08519C"/>
<path d="M24.736 13.4003C21.0575 13.4003 18.0359 10.3787 18.0359 6.70015C18.0359 3.02164 21.0575 0 24.736 0C28.4146 0 31.4362 3.02164 31.4362 6.70015C31.4362 10.3787 28.4146 13.4003 24.736 13.4003Z" fill="#08519C"/>
<path d="M6.93477 31.2674C3.25626 31.2674 0.234619 28.2458 0.234619 24.5672C0.234619 20.8887 3.25626 17.8671 6.93477 17.8671C10.6133 17.8671 13.6349 20.8887 13.6349 24.5672C13.6349 28.2458 10.6133 31.2674 6.93477 31.2674Z" fill="#08519C"/>
<path d="M129.311 84.8686C129.311 84.8029 129.311 84.7373 129.311 84.6716C129.311 75.0155 121.56 67.1329 111.904 66.8702C110.13 63.7829 107.109 61.4838 103.627 60.5641C101.065 53.7326 94.4309 49.0031 87.0082 49.0031C84.2493 49.0031 81.5561 49.66 79.06 50.9081C75.5785 48.2805 71.3088 46.8354 66.9734 46.8354C61.8498 46.8354 56.9232 48.806 53.2447 52.2875C51.2741 51.6306 49.172 51.2365 46.9387 51.2365C37.0198 51.2365 28.6774 58.4621 27.1666 68.1839C23.094 70.0232 19.941 73.5703 18.6272 78.0371C8.31423 78.8254 0.168945 87.4961 0.168945 98.0062C0.168945 109.042 9.16817 118.041 20.2037 118.041H33.5383V113.574H20.2037C11.5986 113.574 4.63571 106.611 4.63571 98.0062C4.63571 89.4011 11.5986 82.4382 20.2037 82.4382C24.9332 82.4382 29.4 84.5402 32.356 88.2844L35.8374 85.5255C32.6844 81.5842 28.2176 79.0224 23.291 78.2998C24.9332 74.1615 28.9402 71.3369 33.604 71.3369C37.5453 71.3369 41.2895 73.4389 43.2601 76.9204L47.1357 74.687C44.3768 69.8918 39.1875 66.8702 33.6697 66.8702C33.1442 66.8702 32.6187 66.9359 32.0932 66.9359C33.9982 60.4328 40.0414 55.7033 47.07 55.7033C55.6751 55.7033 62.638 62.6662 62.638 71.2713H67.1048C67.1048 64.177 63.3606 57.9366 57.7771 54.3895C60.4703 52.3532 63.7547 51.2365 67.1048 51.2365C70.9147 51.2365 74.5932 52.6816 77.4835 55.2434L78.7315 56.3601L80.1767 55.5062C82.2787 54.1924 84.7091 53.5356 87.2053 53.5356C92.0662 53.5356 96.4672 56.2288 98.7663 60.3671C92.2632 61.221 87.2053 66.8045 87.2053 73.5703H91.672C91.672 68.6438 95.679 64.6368 100.606 64.6368C105.532 64.6368 109.539 68.6438 109.539 73.5703C109.539 78.4969 105.532 82.5039 100.606 82.5039V86.9706C107.963 86.9706 113.94 80.993 113.94 73.636C113.94 72.9134 113.875 72.2566 113.743 71.5997C119.589 72.5193 124.188 77.1832 124.91 83.0951C123.531 82.7666 122.085 82.5696 120.575 82.5696C114.269 82.5696 108.554 85.7883 105.335 91.1747L109.145 93.4737C111.575 89.4011 115.845 86.9706 120.575 86.9706C127.932 86.9706 133.909 92.9482 133.909 100.305C133.909 107.662 127.932 113.64 120.575 113.64H105.007V118.107H120.575C130.362 118.107 138.376 110.093 138.376 100.305C138.245 93.6708 134.632 87.956 129.311 84.8686Z" fill="#08519C"/>
<path d="M97.1898 113.574V100.24L91.3436 98.7944C91.0808 97.9405 90.6867 97.1522 90.3583 96.364L93.4456 91.1747L83.9865 81.7156L78.7972 84.8029C78.009 84.4088 77.2207 84.0804 76.3668 83.8176L74.9216 77.9714H61.587L60.1419 83.8176C59.2879 84.0804 58.4997 84.4745 57.7114 84.8029L52.5221 81.7156L43.0631 91.1747L46.1504 96.364C45.7563 97.1522 45.4278 97.9405 45.1651 98.7944L39.3188 100.24V113.574L45.1651 115.019C45.4278 115.873 45.8219 116.662 46.1504 117.45L43.0631 122.639L52.5221 132.098L57.7114 129.011C58.4997 129.405 59.2879 129.733 60.1419 129.996L61.587 135.842H74.9216L76.3668 129.996C77.2207 129.733 78.009 129.339 78.7972 129.011L83.9865 132.098L93.4456 122.639L90.2926 117.45C90.6867 116.662 91.0151 115.873 91.2779 115.019L97.1898 113.574ZM68.5499 125.004C58.6311 125.004 50.5515 116.924 50.5515 107.005C50.5515 97.0866 58.6311 89.007 68.5499 89.007C78.4688 89.007 86.5484 97.0866 86.5484 107.005C86.5484 116.924 78.4688 125.004 68.5499 125.004Z" fill="#FF8406"/>
<path d="M75.6442 136.762H60.7987L59.2879 130.653C58.7624 130.456 58.2369 130.259 57.7114 129.996L52.325 133.215L41.815 122.705L45.0337 117.318C44.7709 116.793 44.5739 116.267 44.3768 115.742L38.2678 114.231V99.3856L44.3768 97.8748C44.5739 97.3493 44.7709 96.8238 45.0337 96.2983L41.815 90.9119L52.325 80.4019L57.7114 83.6206C58.2369 83.3578 58.7624 83.1607 59.2879 82.9637L60.7987 76.8547H75.6442L77.155 82.9637C77.6805 83.1607 78.206 83.3578 78.7315 83.6206L84.1179 80.4019L94.6279 90.9119L91.4092 96.2983C91.672 96.8238 91.8691 97.3493 92.0661 97.8748L98.1751 99.3856V114.231L92.0661 115.742C91.8691 116.267 91.672 116.793 91.4092 117.318L94.6279 122.705L84.1179 133.215L78.7315 129.996C78.206 130.259 77.6805 130.456 77.155 130.653L75.6442 136.762ZM62.3095 134.857H74.199L75.5785 129.208L76.0383 129.011C76.8266 128.748 77.6148 128.42 78.3374 128.026L78.7972 127.828L83.7895 130.85L92.1975 122.442L89.1759 117.45L89.3729 116.99C89.767 116.202 90.0298 115.479 90.3582 114.691L90.5553 114.231L96.2044 112.852V100.962L90.5553 99.5827L90.3582 99.1229C90.0955 98.3346 89.767 97.5464 89.3729 96.8238L89.1759 96.364L92.1975 91.3717L83.7895 82.9637L78.7972 85.9853L78.3374 85.7883C77.5491 85.3941 76.8266 85.1314 76.0383 84.8029L75.5785 84.6059L74.199 78.9567H62.3095L60.9301 84.6059L60.4703 84.8029C59.682 85.0657 58.8938 85.3941 58.1712 85.7883L57.7114 85.9853L52.7191 82.9637L44.3111 91.3717L47.3327 96.364L47.1357 96.8238C46.7415 97.6121 46.4788 98.3346 46.1504 99.1229L45.9533 99.5827L40.3041 100.962V112.852L45.9533 114.231L46.1504 114.691C46.4131 115.479 46.7415 116.267 47.1357 116.99L47.3327 117.45L44.3111 122.442L52.7191 130.85L57.7114 127.828L58.1712 128.026C58.9595 128.42 59.682 128.682 60.4703 129.011L60.9301 129.208L62.3095 134.857ZM68.5499 125.924C58.1055 125.924 49.5661 117.45 49.5661 106.94C49.5661 96.4954 58.0398 87.956 68.5499 87.956C79.0599 87.956 87.5337 96.4297 87.5337 106.94C87.5337 117.45 78.9942 125.924 68.5499 125.924ZM68.5499 89.9266C59.1565 89.9266 51.4711 97.5464 51.4711 107.005C51.4711 116.399 59.0908 124.084 68.5499 124.084C77.9432 124.084 85.6287 116.464 85.6287 107.005C85.6287 97.6121 77.9432 89.9266 68.5499 89.9266Z" fill="#08519C"/>
<circle cx="68.4842" cy="107.071" r="6.51005" stroke="#08519C" stroke-width="8"/>
<path d="M161.984 85.7031V103H152V59.6875C152 58.2812 152.469 57.1094 153.406 56.1719C154.438 55.1406 155.656 54.625 157.062 54.625H173.516C178.672 54.625 182.516 55.9375 185.047 58.5625C187.672 61.1875 188.984 65.0781 188.984 70.2344C188.984 75.1094 187.719 78.9531 185.188 81.7656C182.656 84.3906 179 85.7031 174.219 85.7031H161.984ZM161.984 76.9844H171.688C174.312 76.9844 176.188 76.4219 177.312 75.2969C178.531 74.2656 179.141 72.4844 179.141 69.9531C179.141 67.7969 178.578 66.0625 177.453 64.75C176.141 63.625 174.406 63.0625 172.25 63.0625H161.984V76.9844ZM194.412 103V84.8594C194.412 81.2031 194.928 78.1562 195.959 75.7188C197.084 73.1875 198.584 71.1719 200.459 69.6719C202.241 68.2656 204.303 67.2344 206.647 66.5781C209.084 65.9219 211.569 65.5938 214.1 65.5938C214.287 65.5938 214.522 65.5938 214.803 65.5938C215.084 65.5938 215.319 65.5938 215.506 65.5938V75.5781H212.272C209.553 75.5781 207.537 76.2344 206.225 77.5469C204.912 78.8594 204.256 80.9219 204.256 83.7344V103H194.412ZM246.106 91.4688H253.137C252.106 95.4062 250.137 98.4062 247.231 100.469C244.325 102.625 240.669 103.703 236.262 103.703C230.919 103.703 226.747 101.969 223.747 98.5C220.747 95.125 219.247 90.2969 219.247 84.0156C219.247 78.0156 220.7 73.3281 223.606 69.9531C226.606 66.4844 230.778 64.75 236.122 64.75C241.747 64.75 246.106 66.4375 249.2 69.8125C252.2 73.2812 253.7 78.1094 253.7 84.2969C253.7 84.6719 253.7 85 253.7 85.2812C253.7 85.5625 253.7 85.75 253.7 85.8438C253.7 86.3125 253.653 86.6406 253.559 86.8281H229.231C229.325 89.7344 230.028 91.8906 231.341 93.2969C232.559 94.7969 234.387 95.5469 236.825 95.5469C238.419 95.5469 239.778 95.2188 240.903 94.5625C241.184 94.4688 241.419 94.3281 241.606 94.1406C241.887 93.8594 242.169 93.5781 242.45 93.2969C242.544 93.0156 242.872 92.6406 243.434 92.1719C244.091 91.7031 244.981 91.4688 246.106 91.4688ZM229.231 80.5H243.575C243.387 77.9688 242.731 76.0938 241.606 74.875C240.387 73.5625 238.653 72.9062 236.403 72.9062C234.341 72.9062 232.653 73.5625 231.341 74.875C230.028 76.1875 229.325 78.0625 229.231 80.5ZM283.597 54.4844H288.378C289.691 54.4844 290.816 55 291.753 56.0312C292.691 56.9688 293.159 58.0469 293.159 59.2656V86.6875C293.159 93.3438 291.238 97.8438 287.394 100.188C283.55 102.531 279.378 103.703 274.878 103.703C272.441 103.703 270.05 103.328 267.706 102.578C265.363 101.734 263.488 100.422 262.081 98.6406C259.363 95.1719 258.003 90.4375 258.003 84.4375C258.003 78.5312 259.363 73.7969 262.081 70.2344C264.894 66.5781 268.503 64.75 272.909 64.75C275.253 64.75 277.316 65.2188 279.097 66.1562C280.972 67.2812 282.472 68.7344 283.597 70.5156V54.4844ZM267.566 84.0156C267.566 87.7656 268.269 90.625 269.675 92.5938C271.081 94.5625 273.097 95.5469 275.722 95.5469C278.253 95.5469 280.222 94.5625 281.628 92.5938C282.941 90.625 283.597 87.7656 283.597 84.0156C283.597 80.6406 282.894 77.9688 281.488 76C279.988 74.125 277.972 73.1875 275.441 73.1875C273.003 73.1875 271.081 74.1719 269.675 76.1406C268.269 78.0156 267.566 80.6406 267.566 84.0156ZM299.291 65.5938H304.353C305.666 65.5938 306.791 66.0625 307.728 67C308.666 67.9375 309.134 69.0625 309.134 70.375V103H299.291V65.5938ZM299.291 54.625H304.353C305.666 54.625 306.791 55.0938 307.728 56.0312C308.666 56.9688 309.134 58.0938 309.134 59.4062V62.3594H299.291V54.625ZM339.172 91.4688H346.203C345.172 95.4062 343.203 98.4062 340.297 100.469C337.391 102.625 333.734 103.703 329.328 103.703C323.984 103.703 319.812 101.969 316.812 98.5C313.812 95.125 312.312 90.2969 312.312 84.0156C312.312 78.0156 313.766 73.3281 316.672 69.9531C319.672 66.4844 323.844 64.75 329.188 64.75C334.812 64.75 339.172 66.4375 342.266 69.8125C343.953 71.875 345.172 74.2656 345.922 76.9844H336.078C335.609 76.0469 335.141 75.3438 334.672 74.875C333.453 73.5625 331.719 72.9062 329.469 72.9062C327.406 72.9062 325.719 73.5625 324.406 74.875C322.719 76.75 321.875 79.8438 321.875 84.1562C321.875 88.4688 322.719 91.5156 324.406 93.2969C325.625 94.7969 327.453 95.5469 329.891 95.5469C331.484 95.5469 332.844 95.2188 333.969 94.5625C334.25 94.4688 334.484 94.3281 334.672 94.1406C334.953 93.8594 335.234 93.5781 335.516 93.2969C335.703 93.0156 336.078 92.6406 336.641 92.1719C337.203 91.7031 338.047 91.4688 339.172 91.4688ZM367.944 103C364.85 103.188 361.475 103.141 357.819 102.859C354.256 102.578 352.475 100.281 352.475 95.9688V54.625H357.538C358.756 54.625 359.834 55.0938 360.772 56.0312C361.709 56.9688 362.178 58.0938 362.178 59.4062V65.7344H367.944V67.7031C367.944 69.1094 367.475 70.2812 366.538 71.2188C365.6 72.0625 364.475 72.4844 363.163 72.4844H362.178V93.2969C362.178 94.8906 363.116 95.6875 364.991 95.6875H367.944V103ZM372.387 87.9531H382.231C382.606 90.7656 383.684 92.7344 385.466 93.8594C387.341 95.1719 389.919 95.8281 393.2 95.8281C396.106 95.8281 398.309 95.3125 399.809 94.2812C401.309 93.25 402.059 91.75 402.059 89.7812C402.059 86.7812 397.841 84.3438 389.403 82.4688L389.122 82.3281C389.122 82.3281 388.747 82.2344 387.997 82.0469C383.216 81.0156 380.028 79.9375 378.434 78.8125C376.559 77.7812 375.247 76.2812 374.497 74.3125C373.559 72.625 373.091 70.4688 373.091 67.8438C373.091 63.25 374.684 59.6406 377.872 57.0156C381.059 54.4844 385.7 53.2188 391.794 53.2188C397.512 53.2188 401.919 54.5312 405.012 57.1562C408.2 60.0625 409.887 63.8594 410.075 68.5469H404.45C402.294 68.5469 400.747 67.5625 399.809 65.5938C399.341 64.6562 398.684 63.8594 397.841 63.2031C396.153 61.9844 393.856 61.375 390.95 61.375C388.137 61.375 386.122 61.8906 384.903 62.9219C383.497 63.9531 382.794 65.4062 382.794 67.2812C382.794 69.8125 385.512 71.6875 390.95 72.9062C392.544 73.375 393.716 73.6562 394.466 73.75C396.153 74.3125 397.606 74.7812 398.825 75.1562C400.137 75.4375 401.169 75.6719 401.919 75.8594C403.231 76.4219 404.544 76.9844 405.856 77.5469C407.731 78.6719 409.184 80.125 410.216 81.9062C411.247 83.875 411.762 86.0312 411.762 88.375C411.762 93.4375 410.075 97.375 406.7 100.188C403.325 102.812 398.544 104.125 392.356 104.125C385.981 104.125 381.2 102.766 378.012 100.047C374.544 97.3281 372.669 93.2969 372.387 87.9531ZM443.347 91.4688H450.378C449.347 95.4062 447.378 98.4062 444.472 100.469C441.566 102.625 437.909 103.703 433.503 103.703C428.159 103.703 423.987 101.969 420.987 98.5C417.987 95.125 416.487 90.2969 416.487 84.0156C416.487 78.0156 417.941 73.3281 420.847 69.9531C423.847 66.4844 428.019 64.75 433.362 64.75C438.987 64.75 443.347 66.4375 446.441 69.8125C449.441 73.2812 450.941 78.1094 450.941 84.2969C450.941 84.6719 450.941 85 450.941 85.2812C450.941 85.5625 450.941 85.75 450.941 85.8438C450.941 86.3125 450.894 86.6406 450.8 86.8281H426.472C426.566 89.7344 427.269 91.8906 428.581 93.2969C429.8 94.7969 431.628 95.5469 434.066 95.5469C435.659 95.5469 437.019 95.2188 438.144 94.5625C438.425 94.4688 438.659 94.3281 438.847 94.1406C439.128 93.8594 439.409 93.5781 439.691 93.2969C439.784 93.0156 440.112 92.6406 440.675 92.1719C441.331 91.7031 442.222 91.4688 443.347 91.4688ZM426.472 80.5H440.816C440.628 77.9688 439.972 76.0938 438.847 74.875C437.628 73.5625 435.894 72.9062 433.644 72.9062C431.581 72.9062 429.894 73.5625 428.581 74.875C427.269 76.1875 426.566 78.0625 426.472 80.5ZM488.712 103H483.791C482.384 103 481.212 102.578 480.275 101.734C479.431 100.797 479.009 99.625 479.009 98.2188V79.0938C479.009 76.8438 478.306 75.2031 476.9 74.1719C475.587 73.1406 474.087 72.625 472.4 72.625C470.712 72.625 469.212 73.1406 467.9 74.1719C466.587 75.2031 465.931 76.8438 465.931 79.0938V103H456.087V81.0625C456.087 74.6875 457.728 70.4219 461.009 68.2656C464.384 66.1094 468.087 64.9375 472.119 64.75C476.244 64.75 480.041 65.8281 483.509 67.9844C486.978 70.1406 488.712 74.5 488.712 81.0625V103ZM493.016 90.625H502.578C502.672 92.5 503.375 93.9062 504.688 94.8438C506.094 95.7812 507.969 96.25 510.312 96.25C512 96.25 513.453 95.9219 514.672 95.2656C515.797 94.6094 516.359 93.7188 516.359 92.5938C516.359 90.9062 514.391 89.6406 510.453 88.7969C508.766 88.5156 507.5 88.2344 506.656 87.9531C501.688 86.7344 498.359 85.2812 496.672 83.5938C494.797 81.9062 493.859 79.6562 493.859 76.8438C493.859 73.2812 495.219 70.3281 497.938 67.9844C500.75 65.8281 504.406 64.75 508.906 64.75C513.781 64.75 517.672 65.8281 520.578 67.9844C523.297 70.3281 524.75 73.375 524.938 77.125H518.891C517.109 77.125 515.75 76.3281 514.812 74.7344C514.438 74.3594 514.062 73.9844 513.688 73.6094C512.562 72.7656 511.016 72.3438 509.047 72.3438C507.172 72.3438 505.766 72.625 504.828 73.1875C503.984 73.75 503.562 74.5938 503.562 75.7188C503.562 77.2188 506 78.4844 510.875 79.5156C511.438 79.7031 511.906 79.8438 512.281 79.9375C512.75 80.0312 513.172 80.0781 513.547 80.0781C518.328 81.2969 521.656 82.7031 523.531 84.2969C525.312 85.9844 526.203 88.2344 526.203 91.0469C526.203 95.1719 524.703 98.3594 521.703 100.609C518.891 102.672 514.672 103.703 509.047 103.703C503.703 103.703 499.719 102.625 497.094 100.469C494.375 98.3125 493.016 95.1719 493.016 91.0469V90.625ZM557.366 91.4688H564.397C563.366 95.4062 561.397 98.4062 558.491 100.469C555.584 102.625 551.928 103.703 547.522 103.703C542.178 103.703 538.006 101.969 535.006 98.5C532.006 95.125 530.506 90.2969 530.506 84.0156C530.506 78.0156 531.959 73.3281 534.866 69.9531C537.866 66.4844 542.038 64.75 547.381 64.75C553.006 64.75 557.366 66.4375 560.459 69.8125C563.459 73.2812 564.959 78.1094 564.959 84.2969C564.959 84.6719 564.959 85 564.959 85.2812C564.959 85.5625 564.959 85.75 564.959 85.8438C564.959 86.3125 564.913 86.6406 564.819 86.8281H540.491C540.584 89.7344 541.288 91.8906 542.6 93.2969C543.819 94.7969 545.647 95.5469 548.084 95.5469C549.678 95.5469 551.038 95.2188 552.163 94.5625C552.444 94.4688 552.678 94.3281 552.866 94.1406C553.147 93.8594 553.428 93.5781 553.709 93.2969C553.803 93.0156 554.131 92.6406 554.694 92.1719C555.35 91.7031 556.241 91.4688 557.366 91.4688ZM540.491 80.5H554.834C554.647 77.9688 553.991 76.0938 552.866 74.875C551.647 73.5625 549.913 72.9062 547.663 72.9062C545.6 72.9062 543.913 73.5625 542.6 74.875C541.288 76.1875 540.584 78.0625 540.491 80.5Z" fill="#08519C"/>
<circle cx="19.2185" cy="103.787" r="3.28439" fill="#C4C4C4"/>
<circle cx="119.064" cy="101.159" r="3.28439" fill="#C4C4C4"/>
<circle cx="78.9944" cy="65.0309" r="3.28439" fill="#C4C4C4"/>
<circle cx="50.0918" cy="65.0309" r="3.28439" fill="#C4C4C4"/>
</svg>
