<svg width="17" height="19" viewBox="0 0 17 19" fill="none" xmlns="http://www.w3.org/2000/svg">
<path d="M14.5952 11.5267V15.8333C14.5952 16.2767 14.2835 16.625 13.8869 16.625H3.1202C2.72353 16.625 2.41187 16.2767 2.41187 15.8333V11.5267C2.41187 11.0833 2.72353 10.735 3.1202 10.735C3.51687 10.735 3.82853 11.0833 3.82853 11.5267V15.0417H13.1785V11.5267C13.1785 11.0833 13.4902 10.735 13.8869 10.735C14.2835 10.735 14.5952 11.0833 14.5952 11.5267ZM7.99354 12.5083C8.12104 12.6667 8.3052 12.7458 8.50353 12.7458C8.70187 12.7458 8.87186 12.6667 9.01353 12.5083L11.8327 9.27835C12.1019 8.96168 12.1019 8.47083 11.8185 8.15417C11.5352 7.85333 11.096 7.85335 10.8127 8.17002L9.1977 10.0067V3.16667C9.1977 2.72333 8.88604 2.375 8.48937 2.375C8.0927 2.375 7.78104 2.72333 7.78104 3.16667V10.0225L6.16603 8.18583C5.89687 7.86916 5.44354 7.86918 5.1602 8.17002C4.87687 8.47085 4.87687 8.97749 5.14604 9.29416L7.99354 12.5083Z" fill="#3B4052"/>
</svg>
