<svg width="22" height="22" viewBox="0 0 22 22" fill="none" xmlns="http://www.w3.org/2000/svg">
<path d="M18.8879 13.24V18C18.8879 18.49 18.4845 18.875 17.9712 18.875H4.03788C3.52455 18.875 3.12122 18.49 3.12122 18V13.24C3.12122 12.75 3.52455 12.365 4.03788 12.365C4.55122 12.365 4.95455 12.75 4.95455 13.24V17.125H17.0545V13.24C17.0545 12.75 17.4579 12.365 17.9712 12.365C18.4845 12.365 18.8879 12.75 18.8879 13.24ZM10.3446 14.325C10.5096 14.5 10.7479 14.5875 11.0045 14.5875C11.2612 14.5875 11.4812 14.5 11.6645 14.325L15.3129 10.755C15.6612 10.405 15.6612 9.8625 15.2946 9.5125C14.9279 9.18 14.3596 9.18002 13.9929 9.53002L11.9029 11.56V4C11.9029 3.51 11.4996 3.125 10.9862 3.125C10.4729 3.125 10.0696 3.51 10.0696 4V11.5775L7.97955 9.54749C7.63122 9.19749 7.04455 9.19752 6.67789 9.53002C6.31122 9.86252 6.31122 10.4225 6.65956 10.7725L10.3446 14.325Z" fill="white"/>
</svg>
