<svg width="14" height="14" viewBox="0 0 14 14" fill="none" xmlns="http://www.w3.org/2000/svg">
<path fill-rule="evenodd" clip-rule="evenodd" d="M10.5 1.75004C9.85569 1.75004 9.33335 2.27238 9.33335 2.91671C9.33335 3.56104 9.85569 4.08337 10.5 4.08337C11.1444 4.08337 11.6667 3.56104 11.6667 2.91671C11.6667 2.27238 11.1444 1.75004 10.5 1.75004ZM8.16669 2.91671C8.16669 1.62804 9.21136 0.583374 10.5 0.583374C11.7887 0.583374 12.8334 1.62804 12.8334 2.91671C12.8334 4.20537 11.7887 5.25004 10.5 5.25004C9.21136 5.25004 8.16669 4.20537 8.16669 2.91671Z" fill="#3B4052"/>
<path fill-rule="evenodd" clip-rule="evenodd" d="M3.50002 5.83337C2.85569 5.83337 2.33335 6.35571 2.33335 7.00004C2.33335 7.64437 2.85569 8.16671 3.50002 8.16671C4.14435 8.16671 4.66669 7.64437 4.66669 7.00004C4.66669 6.35571 4.14435 5.83337 3.50002 5.83337ZM1.16669 7.00004C1.16669 5.71138 2.21136 4.66671 3.50002 4.66671C4.78868 4.66671 5.83335 5.71138 5.83335 7.00004C5.83335 8.2887 4.78868 9.33337 3.50002 9.33337C2.21136 9.33337 1.16669 8.2887 1.16669 7.00004Z" fill="#3B4052"/>
<path fill-rule="evenodd" clip-rule="evenodd" d="M10.5 9.91671C9.85569 9.91671 9.33335 10.439 9.33335 11.0834C9.33335 11.7277 9.85569 12.25 10.5 12.25C11.1444 12.25 11.6667 11.7277 11.6667 11.0834C11.6667 10.439 11.1444 9.91671 10.5 9.91671ZM8.16669 11.0834C8.16669 9.79471 9.21136 8.75004 10.5 8.75004C11.7887 8.75004 12.8334 9.79471 12.8334 11.0834C12.8334 12.372 11.7887 13.4167 10.5 13.4167C9.21136 13.4167 8.16669 12.372 8.16669 11.0834Z" fill="#3B4052"/>
<path fill-rule="evenodd" clip-rule="evenodd" d="M4.74399 7.79368C4.90619 7.51533 5.26333 7.42117 5.54169 7.58337L9.04169 9.62504C9.32004 9.78724 9.4142 10.1444 9.252 10.4227C9.08979 10.7011 8.73265 10.7953 8.4543 10.633L4.9543 8.59138C4.67594 8.42918 4.58178 8.07204 4.74399 7.79368Z" fill="#3B4052"/>
<path fill-rule="evenodd" clip-rule="evenodd" d="M9.25149 3.57721C9.41387 3.85546 9.31994 4.21266 9.04169 4.37504L5.54639 6.54934C5.26814 6.71172 4.91093 6.61779 4.74855 6.33954C4.58617 6.06129 4.6801 5.70409 4.95835 5.54171L8.45365 3.36741C8.73191 3.20502 9.08911 3.29896 9.25149 3.57721Z" fill="#3B4052"/>
</svg>
