<svg width="19" height="19" viewBox="0 0 19 19" fill="none" xmlns="http://www.w3.org/2000/svg">
<path d="M16.1539 3.16663H2.85391C2.50558 3.16663 2.22058 3.45163 2.22058 3.79996V11.8908C2.22058 12.2391 2.50558 12.5083 2.85391 12.5083H10.2956V15.2C10.2956 15.4691 10.5014 15.7066 10.7389 15.8016C10.8181 15.8333 10.8973 15.8333 10.9764 15.8333C11.1664 15.8333 11.3406 15.7541 11.4673 15.6116L14.0956 12.5083H16.1539C16.5022 12.5083 16.7872 12.2391 16.7872 11.8908V3.79996C16.7872 3.45163 16.5022 3.16663 16.1539 3.16663ZM15.5206 11.2416H13.8106C13.6206 11.2416 13.4148 11.3366 13.2881 11.4633L11.5622 13.4583V11.875C11.5622 11.5266 11.3406 11.2258 10.9923 11.2258H3.48725V4.41746H15.5206V11.2416ZM5.16558 6.64996C5.16558 6.30163 5.45058 6.01663 5.79891 6.01663H10.3906C10.7389 6.01663 11.0239 6.30163 11.0239 6.64996C11.0239 6.99829 10.7389 7.28329 10.3906 7.28329H5.79891C5.45058 7.28329 5.16558 6.99829 5.16558 6.64996ZM12.1164 7.14079C12.0056 7.02996 11.9264 6.8558 11.9264 6.69747C11.9264 6.5233 11.9897 6.36496 12.1164 6.25413C12.2431 6.12746 12.4014 6.06413 12.5598 6.06413C12.7339 6.06413 12.8922 6.12746 13.0031 6.25413C13.1139 6.36496 13.1931 6.53913 13.1931 6.69747C13.1931 6.87163 13.1297 7.02996 13.0031 7.14079C12.8764 7.26746 12.7181 7.3308 12.5598 7.3308C12.4014 7.31497 12.2431 7.25162 12.1164 7.14079Z" fill="#3B4052"/>
</svg>
