<svg width="19" height="19" viewBox="0 0 19 19" fill="none" xmlns="http://www.w3.org/2000/svg">
<path d="M14.634 6.87168L14.1432 16.0233C14.1274 16.3558 13.8424 16.625 13.5099 16.625H5.48234C5.14984 16.625 4.86484 16.3558 4.84901 16.0233L4.35818 6.87168C4.34235 6.52335 4.61152 6.2225 4.95985 6.20667C5.30819 6.19083 5.60901 6.46001 5.62485 6.80834L6.08402 15.3583H12.9082L13.3674 6.80834C13.3832 6.46001 13.684 6.19083 14.0323 6.20667C14.3807 6.2225 14.6499 6.52335 14.634 6.87168ZM16.3123 4.75001C16.3123 5.09834 16.0273 5.38334 15.679 5.38334H3.32901C2.98068 5.38334 2.69568 5.09834 2.69568 4.75001C2.69568 4.40167 2.98068 4.11667 3.32901 4.11667H6.81235V2.69167C6.81235 2.39084 7.01817 2.21667 7.31901 2.21667H11.689C11.9899 2.21667 12.1957 2.39084 12.1957 2.69167V4.11667H15.679C16.0273 4.11667 16.3123 4.40167 16.3123 4.75001ZM7.92068 4.11667H11.0873V3.32501H7.92068V4.11667ZM8.18984 14.4083C8.50651 14.4083 8.74401 14.1075 8.74401 13.8067L8.58567 6.96667C8.58567 6.66584 8.33234 6.41251 8.01568 6.41251C7.71484 6.41251 7.46151 6.66584 7.47734 6.9825L7.63567 13.8383C7.63567 14.1392 7.88901 14.4083 8.18984 14.4083ZM10.8023 14.4083C11.1032 14.4083 11.3565 14.155 11.3565 13.8542L11.5148 7.01418C11.5148 6.71335 11.2774 6.44417 10.9765 6.44417C10.6599 6.44417 10.4223 6.68167 10.4065 6.9825L10.2482 13.8225C10.2323 14.1392 10.4857 14.4083 10.8023 14.4083C10.7865 14.4083 10.7865 14.4083 10.8023 14.4083Z" fill="#3B4052"/>
</svg>
