<svg width="26" height="26" viewBox="0 0 26 26" fill="none" xmlns="http://www.w3.org/2000/svg">
<path d="M17.0021 10.8009C17.0021 9.52759 16.4963 8.30647 15.596 7.40614C14.6957 6.5058 13.4745 6 12.2013 6C10.928 6 9.7069 6.5058 8.80656 7.40614C7.90623 8.30647 7.40043 9.52759 7.40043 10.8009C7.40043 16.4018 5 18.0021 5 18.0021H19.4026C19.4026 18.0021 17.0021 16.4018 17.0021 10.8009Z" stroke="#8E94A7" stroke-width="1.5" stroke-linecap="round" stroke-linejoin="round"/>
<path d="M13.5856 21.2026C13.4449 21.4451 13.243 21.6464 13 21.7864C12.7571 21.9263 12.4817 21.9999 12.2013 21.9999C11.921 21.9999 11.6455 21.9263 11.4026 21.7864C11.1597 21.6464 10.9578 21.4451 10.8171 21.2026" stroke="#8E94A7" stroke-width="1.5" stroke-linecap="round" stroke-linejoin="round"/>
<circle cx="19" cy="7" r="5.75" fill="white" stroke="white" stroke-width="1.5"/>
<circle cx="19" cy="7" r="5" fill="#07509D"/>
</svg>
